<?xml version="1.0" encoding="UTF-8"?>
<svg xmlns="http://www.w3.org/2000/svg" xmlns:xlink="http://www.w3.org/1999/xlink" width="144pt" height="174pt" viewBox="0 0 144 174">
<defs>
<clipPath id="clip-0">
<path clip-rule="nonzero" d="M 22 22.5 L 122 22.5 L 122 151.5 L 22 151.5 Z M 22 22.5 "/>
</clipPath>
</defs>
<rect x="-14.4" y="-17.4" width="172.8" height="208.8" fill="rgb(100%, 100%, 100%)" fill-opacity="1"/>
<path fill-rule="nonzero" fill="rgb(100%, 100%, 100%)" fill-opacity="1" d="M 29.988281 39.503906 C 29.988281 18.53125 113.890625 18.53125 113.890625 39.503906 L 113.890625 133.890625 C 113.890625 154.867188 29.988281 154.867188 29.988281 133.890625 Z M 29.988281 39.503906 "/>
<g clip-path="url(#clip-0)">
<path fill="none" stroke-width="1" stroke-linecap="butt" stroke-linejoin="miter" stroke="rgb(0%, 0%, 0%)" stroke-opacity="1" stroke-miterlimit="10" d="M 439.997717 69.996915 C 439.997717 30.001137 600.003177 30.001137 600.003177 69.996915 L 600.003177 249.996539 C 600.003177 289.999767 439.997717 289.999767 439.997717 249.996539 Z M 439.997717 69.996915 " transform="matrix(0.524372, 0, 0, 0.524372, -200.734093, 2.799501)"/>
</g>
<path fill="none" stroke-width="1" stroke-linecap="butt" stroke-linejoin="miter" stroke="rgb(0%, 0%, 0%)" stroke-opacity="1" stroke-miterlimit="10" d="M 439.997717 69.996915 C 439.997717 100.00306 600.003177 100.00306 600.003177 69.996915 M 439.997717 84.999987 C 439.997717 114.998683 600.003177 114.998683 600.003177 84.999987 M 439.997717 100.00306 C 439.997717 130.001756 600.003177 130.001756 600.003177 100.00306 " transform="matrix(0.524372, 0, 0, 0.524372, -200.734093, 2.799501)"/>
<path fill-rule="nonzero" fill="rgb(0%, 0%, 0%)" fill-opacity="1" stroke-width="13.948665" stroke-linecap="butt" stroke-linejoin="miter" stroke="rgb(0%, 0%, 0%)" stroke-opacity="0.0258" stroke-miterlimit="4" d="M 94.119871 249.970129 C 94.119871 295.829996 97.298278 339.873631 104.109149 381.192917 C 110.465963 422.512203 118.18495 457.928734 126.812054 487.896568 C 135.893216 517.864402 148.152784 547.378178 164.044817 575.983838 C 179.93685 604.589497 192.650477 626.838344 202.185697 643.184435 C 211.266859 659.076468 225.342659 676.330676 243.959041 694.947057 C 262.575423 713.563439 273.472817 724.914891 277.105282 729.001414 C 280.283688 733.087937 288.456734 739.898808 302.078477 749.888086 L 318.878626 749.888086 C 328.413846 749.888086 332.954427 747.163738 332.954427 740.806925 C 332.954427 738.990692 327.50573 732.179821 316.154278 719.920252 C 304.802825 708.114742 291.181083 690.406477 274.834991 666.795456 C 258.942958 643.638493 242.596867 615.032834 225.796718 580.978477 C 209.450626 546.92412 195.374825 501.064253 184.023373 442.944817 C 172.671921 384.825382 167.223224 320.803191 167.223224 249.970129 C 167.223224 179.137067 172.671921 115.114876 184.023373 57.903557 C 195.374825 0.692237 208.996568 -45.621688 224.888601 -81.038219 C 240.780635 -116.45475 257.126726 -145.060409 273.926875 -166.855198 C 290.727024 -189.104044 304.802825 -206.81231 316.154278 -219.979994 C 327.50573 -233.147679 332.954427 -240.412608 332.954427 -240.866667 C 332.954427 -247.22348 327.959788 -249.947828 317.97051 -249.947828 L 302.078477 -249.947828 L 273.926875 -225.88275 C 211.266859 -169.125488 165.86105 -98.746484 136.801332 -13.837621 C 108.195672 70.617183 94.119871 158.704453 94.119871 249.970129 Z M 94.119871 249.970129 " transform="matrix(0.00860297, 0, 0, -0.00860297, 31.86607, 83.974705)"/>
<path fill-rule="nonzero" fill="rgb(0%, 0%, 0%)" fill-opacity="1" stroke-width="13.948665" stroke-linecap="butt" stroke-linejoin="miter" stroke="rgb(0%, 0%, 0%)" stroke-opacity="0.0258" stroke-miterlimit="4" d="M 308.109093 23.8492 C 347.158089 23.8492 383.482736 41.557466 416.174919 76.06588 C 448.867101 110.574295 465.213193 150.985465 466.121309 196.845332 C 466.121309 239.072735 448.867101 268.132453 413.904628 284.024486 C 343.525624 302.186809 298.119815 314.446378 278.141259 320.803191 C 258.162703 327.614062 244.086903 334.424934 235.913857 340.781747 C 195.956745 368.933349 175.978189 409.344519 175.978189 462.015257 C 175.978189 502.880485 186.875583 539.659191 208.216314 572.805431 C 229.557044 606.40573 250.897774 631.378925 273.14662 648.179074 C 292.21706 664.525165 315.828081 678.146908 343.071566 688.136186 C 370.315052 698.125464 391.655782 703.120103 407.093757 704.028219 L 424.802023 704.028219 C 488.824213 704.028219 535.138139 682.687489 564.197856 640.006029 C 564.651914 640.006029 569.192495 644.546609 576.911483 653.173713 C 585.084528 661.800817 593.711632 671.336037 602.792794 681.779373 C 612.328014 692.676767 619.138885 699.941696 623.225408 704.028219 C 623.679466 704.028219 625.04164 704.028219 626.857873 704.028219 C 629.128163 704.028219 630.490337 704.482277 631.852512 704.936335 C 640.479615 704.936335 645.020196 702.666045 645.020196 698.125464 C 645.020196 693.130825 635.484976 653.173713 616.868595 576.891954 C 598.252213 501.064253 587.808877 461.561199 585.084528 458.836851 C 582.36018 456.112502 576.911483 455.204386 569.192495 456.112502 C 555.570753 456.112502 549.213939 458.836851 549.213939 465.193664 C 549.213939 468.826129 549.213939 472.458593 550.122056 475.182942 C 550.122056 476.999174 550.122056 483.355987 551.030172 493.799323 C 551.48423 504.696718 552.392346 513.323821 552.846404 520.134693 C 552.846404 542.837597 550.122056 562.362095 544.2193 579.162244 C 537.862487 595.508336 531.959732 608.221962 526.056977 615.94095 C 520.154222 624.113995 511.527118 632.287041 501.083782 640.914145 C 477.018703 654.989946 449.775218 661.800817 418.899267 661.800817 C 381.212446 661.800817 345.795915 646.8169 313.103732 615.94095 C 280.41155 585.519058 263.611401 550.102527 263.157342 510.145415 C 263.157342 490.166859 268.151981 472.458593 278.141259 457.928734 C 288.130537 443.398875 301.75228 432.955539 319.006488 427.052784 C 321.730836 425.69061 344.887799 419.333797 388.931433 407.982344 C 432.975068 396.630892 455.223915 390.728137 456.132031 389.820021 C 478.834935 382.555091 500.629724 366.663058 521.970454 342.143921 C 543.311184 317.170726 554.208578 284.024486 554.208578 241.797083 C 554.208578 224.542876 551.48423 205.926494 546.035533 185.947938 C 542.857126 171.418079 536.500313 155.071988 527.873209 136.909665 C 519.246105 119.201399 507.440595 99.222843 492.00262 77.882113 C 476.564645 56.541383 454.769857 36.562827 426.164197 17.946445 C 397.558537 -0.669937 365.774471 -13.383563 332.174172 -20.194435 C 324.001127 -21.556609 312.649674 -22.010667 298.119815 -22.010667 C 231.827334 -22.010667 180.51877 -3.848343 144.194123 32.930362 L 134.204845 43.827756 L 106.053243 12.951806 C 90.615268 -5.210518 81.534106 -15.199796 77.901642 -17.924144 C 74.723235 -20.648493 70.182654 -22.010667 65.188015 -22.010667 C 56.106853 -22.010667 52.020331 -19.286318 52.020331 -13.837621 C 52.020331 -12.021389 71.544828 66.530661 110.139766 220.910411 C 111.50194 224.996934 117.858754 226.813166 130.118322 226.813166 L 142.831949 226.813166 C 146.918471 223.180702 149.188762 219.548237 149.188762 215.915772 C 149.188762 214.553598 148.734704 211.829249 147.826588 206.83461 C 147.372529 202.29403 146.010355 195.483158 144.194123 185.947938 C 141.923832 176.866776 141.469774 165.515324 141.923832 152.801698 C 143.286007 126.920387 149.188762 105.125598 160.086156 86.963275 C 170.529492 68.800951 185.059351 55.633266 203.221675 47.006163 C 220.92994 38.379059 238.184148 32.476304 254.984297 28.843839 C 271.784446 25.665432 289.492712 23.8492 308.109093 23.8492 Z M 308.109093 23.8492 " transform="matrix(0.00860297, 0, 0, -0.00860297, 35.212627, 83.974705)"/>
<path fill-rule="nonzero" fill="rgb(0%, 0%, 0%)" fill-opacity="1" stroke-width="19.729371" stroke-linecap="butt" stroke-linejoin="miter" stroke="rgb(0%, 0%, 0%)" stroke-opacity="0.0182" stroke-miterlimit="4" d="M 26.229869 385.261447 C 21.092012 389.757071 19.165316 392.968232 19.165316 394.894928 C 19.165316 397.463857 19.807548 403.243946 21.734244 410.950731 C 24.303173 419.299749 25.587637 423.795374 26.872101 425.079838 C 28.156566 428.290999 31.367726 430.217695 35.863351 430.217695 C 40.358976 430.217695 57.699243 430.217695 87.241921 430.859927 L 139.904954 430.859927 L 159.171918 511.138942 C 161.098614 518.203495 163.025311 527.836977 166.236471 540.039387 C 168.8054 552.241798 170.732096 560.590815 173.301024 565.728672 C 175.227721 571.508761 177.154417 577.931082 179.081114 586.2801 C 181.00781 593.986885 183.576738 599.766974 186.787899 602.978135 C 190.641292 606.189296 193.852452 610.042688 197.063613 615.180545 C 200.274773 619.67617 204.770398 622.887331 211.19272 624.171795 C 216.972809 625.456259 222.752898 626.098491 229.175219 626.098491 C 240.735397 625.456259 249.084415 621.602866 254.222271 615.180545 C 258.717896 608.115992 261.286825 601.693671 261.286825 595.913582 C 261.286825 591.417957 258.075664 575.362154 252.295575 549.030637 C 245.873254 522.056888 239.450933 495.725371 231.744147 470.036086 L 222.110666 432.786623 C 222.110666 431.502159 238.808701 430.859927 272.204771 430.859927 L 322.941108 430.859927 C 327.436733 426.364302 330.005661 422.51091 330.005661 419.941981 C 330.005661 405.170642 325.510037 393.610464 317.161019 385.261447 L 209.908255 385.261447 L 173.943257 240.116988 C 148.253972 133.506456 134.767097 75.705565 134.767097 67.99878 C 134.767097 39.740567 143.758347 26.253692 161.740846 26.253692 C 185.503435 26.253692 207.981559 37.171638 229.817451 60.291995 C 252.295575 82.770119 269.635842 110.3861 283.122717 143.78217 C 284.407181 148.277795 285.691645 150.204491 288.260574 150.846723 C 290.18727 151.488955 294.682895 152.131188 303.031912 152.77342 L 306.885305 152.77342 C 317.161019 152.77342 322.298876 150.204491 322.298876 145.066634 C 322.298876 143.139938 321.014412 139.286545 319.087715 132.864224 C 315.876555 122.58851 309.454234 109.743868 301.105216 94.972529 C 292.113966 80.20119 281.19602 64.787619 267.066914 48.089584 C 252.937807 31.391549 236.239772 17.262443 215.688344 5.702264 C 195.779149 -5.215682 175.869953 -10.995771 155.318525 -10.995771 C 134.767097 -10.995771 116.142366 -5.857914 98.159867 3.775568 C 80.177367 14.051282 66.690493 31.391549 58.983707 55.79637 C 57.699243 61.576459 57.057011 70.567708 57.057011 82.770119 L 57.057011 100.752618 L 91.737545 240.75922 C 115.500134 335.167341 127.060312 382.050286 127.702544 382.692518 C 127.702544 384.619215 111.004509 385.261447 76.966207 385.261447 Z M 26.229869 385.261447 " transform="matrix(0.0060823, 0, 0, -0.0060823, 40.77015, 85.265152)"/>
<path fill-rule="nonzero" fill="rgb(0%, 0%, 0%)" fill-opacity="1" stroke-width="13.948665" stroke-linecap="butt" stroke-linejoin="miter" stroke="rgb(0%, 0%, 0%)" stroke-opacity="0.0258" stroke-miterlimit="4" d="M 77.852897 35.200652 C 77.852897 35.200652 77.852897 43.373698 77.852897 60.173847 C 77.852897 76.519939 83.301594 91.049797 94.198988 102.855308 C 104.642324 115.114876 119.172183 121.017631 136.880449 121.017631 C 155.49683 121.017631 172.29698 112.844586 186.826839 96.044436 C 201.810756 79.244287 209.529743 50.184569 209.983801 7.957167 C 209.983801 -15.199796 206.805395 -37.9027 200.902639 -60.151547 C 194.999884 -81.946335 188.189013 -101.016775 180.015967 -116.908808 C 171.842922 -132.800841 163.215818 -146.876642 154.134656 -157.774036 C 144.599436 -169.125488 136.880449 -178.20665 130.069577 -185.017521 C 123.258706 -191.828393 119.172183 -194.552741 116.901893 -194.098683 C 114.177544 -194.098683 110.091021 -190.920277 104.188266 -185.017521 C 97.831453 -179.114766 95.107104 -174.574185 95.107104 -171.849837 C 95.107104 -169.125488 98.739569 -164.130849 106.004499 -155.957804 C 113.269428 -147.784758 121.442474 -137.79548 130.977694 -125.98997 C 140.512913 -114.184459 149.140017 -97.38431 156.859005 -76.04358 C 165.03205 -54.70285 170.480747 -30.183713 173.205096 -2.940227 L 173.205096 8.865283 L 171.842922 7.957167 C 170.480747 7.503109 169.118573 6.594993 166.848283 6.140935 C 165.03205 5.232818 163.215818 4.324702 160.945528 2.962528 C 159.129295 1.600354 155.950889 1.146296 151.864366 1.146296 C 147.777843 1.146296 144.145378 0.692237 140.058855 -0.215879 C 121.896532 -0.215879 107.366673 5.686876 96.015221 17.038329 Z M 77.852897 35.200652 " transform="matrix(0.00860297, 0, 0, -0.00860297, 43.39664, 83.974705)"/>
<path fill-rule="nonzero" fill="rgb(0%, 0%, 0%)" fill-opacity="1" stroke-width="13.948665" stroke-linecap="butt" stroke-linejoin="miter" stroke="rgb(0%, 0%, 0%)" stroke-opacity="0.0258" stroke-miterlimit="4" d="M 208.090445 73.79559 C 208.090445 57.903557 223.528421 48.822395 253.950313 46.098046 C 266.209881 46.098046 272.112636 42.465582 272.112636 35.200652 C 272.112636 34.292536 271.20452 30.206013 269.842346 22.032968 C 268.026113 12.497748 266.209881 6.594993 263.939591 3.870644 C 262.123358 1.146296 257.582777 -0.215879 251.225964 -0.215879 C 249.86379 -0.215879 245.777267 -0.215879 238.966396 -0.215879 C 232.155524 -0.215879 220.804072 0.238179 204.912039 1.146296 C 189.020006 1.600354 167.679275 2.054412 140.889848 2.054412 C 93.667807 2.054412 63.245915 1.146296 50.07823 -0.215879 L 41.905184 -0.215879 C 37.364604 4.77876 35.094313 8.411225 35.094313 11.135574 C 36.456487 28.843839 40.54301 40.649349 47.80794 46.098046 L 61.88374 46.098046 C 108.651724 47.914279 142.706081 64.714428 164.046811 96.044436 C 168.133334 100.130959 228.52306 201.839971 345.215989 401.171473 C 461.45486 600.502975 520.93647 701.303871 523.20676 704.028219 C 527.747341 712.201265 535.466329 715.83373 546.817781 715.83373 L 571.790976 715.83373 C 575.877499 709.930974 578.147789 706.752568 578.147789 705.844452 L 605.845333 383.009149 C 624.461714 167.785615 634.450992 58.811673 635.813167 56.995441 C 639.445631 49.730511 660.786361 46.098046 701.197531 46.098046 C 717.543623 46.098046 726.170726 42.465582 726.170726 36.108769 C 726.170726 34.746594 724.808552 30.206013 722.99232 22.032968 C 721.176087 12.04369 719.359855 6.140935 717.997681 3.870644 C 716.635507 2.054412 712.094926 0.692237 703.92188 -0.215879 C 702.105648 -0.215879 697.111009 -0.215879 689.846079 -0.215879 C 682.58115 -0.215879 669.867523 0.238179 650.797083 1.146296 C 632.180702 1.600354 608.115623 2.054412 578.147789 2.054412 C 515.487773 2.054412 474.168486 1.146296 455.098047 -0.215879 L 442.838478 -0.215879 C 439.206013 3.870644 436.935723 7.049051 436.935723 8.865283 C 436.935723 11.135574 437.843839 17.038329 439.206013 27.027607 C 441.476304 35.65471 443.746594 41.103408 445.108769 42.91964 L 449.195291 46.098046 L 469.173847 46.098046 C 505.044437 47.914279 526.385167 53.817034 533.196038 62.898196 L 520.93647 213.191424 L 283.01003 213.191424 L 248.955674 155.071988 C 221.712188 109.212121 208.090445 81.968636 208.090445 73.79559 Z M 515.941831 259.959407 C 515.941831 267.224336 511.855308 319.441017 504.13632 416.15539 C 495.963275 512.869763 491.422694 561.453979 490.06052 561.908037 L 462.817034 519.226577 C 452.373698 501.064253 431.487026 465.193664 400.157018 412.068867 L 309.799458 259.959407 L 412.870644 259.051291 C 481.887474 259.051291 515.941831 259.505349 515.941831 259.959407 Z M 515.941831 259.959407 " transform="matrix(0.00860297, 0, 0, -0.00860297, 47.221522, 83.974705)"/>
<path fill-rule="nonzero" fill="rgb(0%, 0%, 0%)" fill-opacity="1" stroke-width="19.729371" stroke-linecap="butt" stroke-linejoin="miter" stroke="rgb(0%, 0%, 0%)" stroke-opacity="0.0182" stroke-miterlimit="4" d="M 26.230617 385.261447 C 21.09276 389.757071 19.166064 392.968232 19.166064 394.894928 C 19.166064 397.463857 19.808296 403.243946 21.734992 410.950731 C 24.303921 419.299749 25.588385 423.795374 26.872849 425.079838 C 28.157314 428.290999 31.368474 430.217695 35.864099 430.217695 C 40.359724 430.217695 57.699991 430.217695 87.242669 430.859927 L 139.905702 430.859927 L 159.172666 511.138942 C 161.099362 518.203495 163.026059 527.836977 166.237219 540.039387 C 168.806148 552.241798 170.732844 560.590815 173.301772 565.728672 C 175.228469 571.508761 177.155165 577.931082 179.081862 586.2801 C 181.008558 593.986885 183.577486 599.766974 186.788647 602.978135 C 190.64204 606.189296 193.8532 610.042688 197.064361 615.180545 C 200.275521 619.67617 204.771146 622.887331 211.193467 624.171795 C 216.973557 625.456259 222.753646 626.098491 229.175967 626.098491 C 240.736145 625.456259 249.085162 621.602866 254.223019 615.180545 C 258.718644 608.115992 261.287573 601.693671 261.287573 595.913582 C 261.287573 591.417957 258.076412 575.362154 252.296323 549.030637 C 245.874002 522.056888 239.451681 495.725371 231.744895 470.036086 L 222.111414 432.786623 C 222.111414 431.502159 238.809449 430.859927 272.205519 430.859927 L 322.941856 430.859927 C 327.437481 426.364302 330.006409 422.51091 330.006409 419.941981 C 330.006409 405.170642 325.510785 393.610464 317.161767 385.261447 L 209.909003 385.261447 L 173.944005 240.116988 C 148.25472 133.506456 134.767845 75.705565 134.767845 67.99878 C 134.767845 39.740567 143.759095 26.253692 161.741594 26.253692 C 185.504183 26.253692 207.982307 37.171638 229.818199 60.291995 C 252.296323 82.770119 269.63659 110.3861 283.123465 143.78217 C 284.407929 148.277795 285.692393 150.204491 288.261322 150.846723 C 290.188018 151.488955 294.683643 152.131188 303.03266 152.77342 L 306.886053 152.77342 C 317.161767 152.77342 322.299624 150.204491 322.299624 145.066634 C 322.299624 143.139938 321.01516 139.286545 319.088463 132.864224 C 315.877303 122.58851 309.454982 109.743868 301.105964 94.972529 C 292.114714 80.20119 281.196768 64.787619 267.067662 48.089584 C 252.938555 31.391549 236.24052 17.262443 215.689092 5.702264 C 195.779897 -5.215682 175.870701 -10.995771 155.319273 -10.995771 C 134.767845 -10.995771 116.143114 -5.857914 98.160615 3.775568 C 80.178115 14.051282 66.691241 31.391549 58.984455 55.79637 C 57.699991 61.576459 57.057759 70.567708 57.057759 82.770119 L 57.057759 100.752618 L 91.738293 240.75922 C 115.500882 335.167341 127.06106 382.050286 127.703292 382.692518 C 127.703292 384.619215 111.005257 385.261447 76.966955 385.261447 Z M 26.230617 385.261447 " transform="matrix(0.0060823, 0, 0, -0.0060823, 53.957645, 85.265152)"/>
<path fill-rule="nonzero" fill="rgb(0%, 0%, 0%)" fill-opacity="1" stroke-width="13.948665" stroke-linecap="butt" stroke-linejoin="miter" stroke="rgb(0%, 0%, 0%)" stroke-opacity="0.0258" stroke-miterlimit="4" d="M 77.853705 35.200652 C 77.853705 35.200652 77.853705 43.373698 77.853705 60.173847 C 77.853705 76.519939 83.302402 91.049797 94.199796 102.855308 C 104.643132 115.114876 119.172991 121.017631 136.881257 121.017631 C 155.497638 121.017631 172.297788 112.844586 186.827646 96.044436 C 201.811563 79.244287 209.530551 50.184569 209.984609 7.957167 C 209.984609 -15.199796 206.806202 -37.9027 200.903447 -60.151547 C 195.000692 -81.946335 188.189821 -101.016775 180.016775 -116.908808 C 171.843729 -132.800841 163.216626 -146.876642 154.135464 -157.774036 C 144.600244 -169.125488 136.881257 -178.20665 130.070385 -185.017521 C 123.259514 -191.828393 119.172991 -194.552741 116.902701 -194.098683 C 114.178352 -194.098683 110.091829 -190.920277 104.189074 -185.017521 C 97.832261 -179.114766 95.107912 -174.574185 95.107912 -171.849837 C 95.107912 -169.125488 98.740377 -164.130849 106.005306 -155.957804 C 113.270236 -147.784758 121.443281 -137.79548 130.978501 -125.98997 C 140.513721 -114.184459 149.140825 -97.38431 156.859813 -76.04358 C 165.032858 -54.70285 170.481555 -30.183713 173.205904 -2.940227 L 173.205904 8.865283 L 171.843729 7.957167 C 170.481555 7.503109 169.119381 6.594993 166.84909 6.140935 C 165.032858 5.232818 163.216626 4.324702 160.946335 2.962528 C 159.130103 1.600354 155.951696 1.146296 151.865174 1.146296 C 147.778651 1.146296 144.146186 0.692237 140.059663 -0.215879 C 121.89734 -0.215879 107.367481 5.686876 96.016028 17.038329 Z M 77.853705 35.200652 " transform="matrix(0.00860297, 0, 0, -0.00860297, 56.584133, 83.974705)"/>
<path fill-rule="nonzero" fill="rgb(0%, 0%, 0%)" fill-opacity="1" stroke-width="13.948665" stroke-linecap="butt" stroke-linejoin="miter" stroke="rgb(0%, 0%, 0%)" stroke-opacity="0.0258" stroke-miterlimit="4" d="M 229.786169 636.827622 C 212.077904 636.827622 201.18051 637.28168 198.002103 638.189796 C 194.823696 638.643854 193.007464 642.276319 193.007464 649.08719 C 193.007464 666.795456 196.639929 678.146908 203.904858 681.779373 C 205.267032 682.687489 263.386468 683.141547 377.809107 683.141547 C 492.685803 682.233431 554.891762 681.325315 563.972924 679.96314 C 601.205687 674.514443 632.535695 665.433282 657.962948 651.811539 C 683.390201 638.643854 701.552525 623.205879 711.995861 605.951672 C 722.893255 588.697464 729.704127 574.167605 732.882533 562.816153 C 736.514998 551.464701 738.33123 540.113249 738.785288 529.215855 C 738.785288 498.793962 729.250068 471.096419 710.179629 445.215108 C 690.655131 418.879739 668.406284 398.901183 642.979031 384.825382 C 617.551778 371.203639 595.302932 359.852187 575.778434 351.225083 C 556.707994 342.143921 543.994368 338.057399 538.091612 338.057399 L 544.902484 333.06276 C 589.854235 307.635506 612.103081 270.856801 612.103081 223.180702 C 612.103081 215.461714 610.286849 195.483158 607.108442 161.88286 C 603.475977 128.736619 602.113803 101.493134 602.113803 80.152403 L 602.113803 71.071241 C 602.113803 58.811673 602.113803 49.730511 603.021919 42.91964 C 603.475977 36.108769 607.108442 30.206013 613.919314 25.211374 C 620.730185 19.762677 629.357289 16.584271 639.800625 16.130213 C 658.871064 16.130213 673.854981 23.395142 686.11455 37.925001 C 697.92006 52.45486 706.547164 68.346893 711.995861 85.147042 C 715.174268 94.228204 717.898616 100.130959 720.168907 101.947192 C 721.985139 104.217482 726.979778 105.125598 735.152824 105.125598 C 748.320508 105.125598 755.13138 101.039075 755.13138 92.86603 C 755.13138 81.060519 746.958334 61.99008 731.066301 36.108769 C 705.639048 -2.032111 675.671214 -21.102551 641.162799 -21.102551 L 632.081637 -21.102551 C 591.216409 -21.102551 557.61611 -12.475447 530.826683 3.870644 C 504.491314 20.670793 489.507397 46.552105 486.783048 81.968636 C 486.783048 100.130959 491.777687 127.828503 502.221023 165.969382 C 512.210301 204.110262 517.20494 228.175341 517.20494 239.072735 C 517.20494 273.127092 502.675081 297.646228 474.069422 313.084204 C 464.080144 317.624784 455.45304 320.349133 449.096227 320.803191 C 442.285355 321.711307 418.674335 322.165365 377.809107 323.073482 L 308.792277 323.073482 L 277.008211 193.212868 C 255.213422 105.125598 243.86197 60.173847 243.86197 58.811673 C 243.86197 56.541383 244.316028 54.72515 245.224144 53.817034 C 245.678202 53.362976 247.948493 52.000802 252.035016 50.184569 C 256.121538 47.914279 261.570236 47.460221 268.835165 47.914279 C 276.554152 48.822395 287.451547 47.914279 301.981406 46.098046 L 332.857356 46.098046 C 336.943878 40.649349 339.214169 37.470943 339.214169 37.016885 C 339.214169 36.108769 337.851995 30.206013 336.035762 18.854561 C 333.311414 10.227457 330.133007 3.870644 326.046484 -0.215879 L 311.062567 -0.215879 C 286.997489 1.146296 243.407912 2.054412 179.839779 2.054412 C 157.136875 2.054412 136.250203 2.054412 117.179763 2.054412 C 97.655265 2.054412 82.21729 2.054412 70.865838 2.054412 C 59.514385 2.054412 52.703514 1.600354 49.979165 1.146296 C 38.627713 1.146296 33.179016 3.870644 33.179016 9.773399 C 33.179016 11.135574 34.087132 16.130213 35.903365 23.8492 C 39.535829 36.562827 42.714236 43.827756 45.892643 45.18993 C 48.616991 45.643988 53.61163 46.098046 60.87656 46.098046 L 66.779315 46.098046 C 84.941638 46.098046 104.920194 47.006163 127.169041 48.822395 C 136.250203 51.092685 142.607016 55.179208 145.785423 61.081963 C 148.055713 63.806312 172.120792 156.434162 217.980659 338.965515 C 263.840526 521.496867 286.997489 618.21124 286.997489 628.200518 C 286.997489 632.741099 267.927049 635.465448 229.786169 636.827622 Z M 629.811347 554.189049 C 629.811347 575.52978 623.000475 593.238045 608.924675 608.221962 C 594.848874 622.751821 566.243214 631.832983 523.107695 635.919506 C 521.745521 635.919506 514.026534 635.919506 499.950733 635.919506 C 485.874932 635.919506 473.161306 636.373564 461.809853 636.827622 L 440.015065 636.827622 C 408.685057 636.827622 390.522733 633.649215 385.982152 626.838344 C 385.528094 625.022112 374.176642 580.524419 351.927795 493.799323 C 330.133007 407.528286 318.781555 363.030593 318.781555 361.214361 C 318.781555 360.306245 341.938517 359.852187 387.798385 359.852187 C 440.015065 360.760303 474.52348 363.030593 491.777687 367.117116 C 534.459148 373.47393 568.059446 393.452486 592.124525 426.144668 C 602.567861 441.128585 611.649023 461.107141 618.913953 486.080336 C 626.178882 510.599473 629.811347 533.302377 629.811347 554.189049 Z M 629.811347 554.189049 " transform="matrix(0.00860297, 0, 0, -0.00860297, 60.409874, 83.974705)"/>
<path fill-rule="nonzero" fill="rgb(0%, 0%, 0%)" fill-opacity="1" stroke-width="19.729371" stroke-linecap="butt" stroke-linejoin="miter" stroke="rgb(0%, 0%, 0%)" stroke-opacity="0.0182" stroke-miterlimit="4" d="M 26.203383 385.261447 C 21.065526 389.757071 19.13883 392.968232 19.13883 394.894928 C 19.13883 397.463857 19.781062 403.243946 21.707758 410.950731 C 24.276687 419.299749 25.561151 423.795374 26.845615 425.079838 C 28.130079 428.290999 31.34124 430.217695 35.836865 430.217695 C 40.974722 430.217695 57.672757 430.217695 87.215434 430.859927 L 139.878468 430.859927 L 159.145432 511.138942 C 161.072128 518.203495 163.641056 527.836977 166.209985 540.039387 C 168.778913 552.241798 170.70561 560.590815 173.274538 565.728672 C 175.201235 571.508761 177.127931 577.931082 179.054627 586.2801 C 180.981324 593.986885 183.550252 599.766974 186.761413 602.978135 C 190.614805 606.189296 193.825966 610.042688 197.037127 615.180545 C 200.248287 619.67617 204.743912 622.887331 211.166233 624.171795 C 216.946322 625.456259 222.726411 626.098491 229.148733 626.098491 C 240.708911 625.456259 249.057928 621.602866 254.195785 615.180545 C 258.69141 608.115992 261.260338 601.693671 261.260338 595.913582 C 261.260338 591.417957 258.049178 575.362154 252.269089 549.030637 C 245.846768 522.056888 239.424446 495.725371 231.717661 470.036086 L 222.084179 432.786623 C 222.084179 431.502159 238.782214 430.859927 272.178284 430.859927 L 322.914622 430.859927 C 327.410247 426.364302 329.979175 422.51091 329.979175 419.941981 C 329.979175 405.170642 325.48355 393.610464 317.134533 385.261447 L 209.881769 385.261447 L 173.91677 240.116988 C 148.227486 133.506456 134.740611 75.705565 134.740611 67.99878 C 134.740611 39.740567 143.731861 26.253692 161.71436 26.253692 C 185.476948 26.253692 207.955073 37.171638 229.790965 60.291995 C 252.269089 82.770119 269.609356 110.3861 283.09623 143.78217 C 284.380695 148.277795 286.307391 150.204491 288.234087 150.846723 C 290.160784 151.488955 295.298641 152.131188 303.005426 152.77342 L 306.858819 152.77342 C 317.134533 152.77342 322.27239 150.204491 322.27239 145.066634 C 322.27239 143.139938 320.987925 139.286545 319.061229 132.864224 C 315.850069 122.58851 309.427747 109.743868 301.07873 94.972529 C 292.08748 80.20119 281.169534 64.787619 267.040428 48.089584 C 252.911321 31.391549 236.213286 17.262443 216.30409 5.702264 C 195.752662 -5.215682 175.843467 -10.995771 155.292039 -10.995771 C 134.740611 -10.995771 116.11588 -5.857914 98.13338 3.775568 C 80.150881 14.051282 67.306239 31.391549 58.957221 55.79637 C 57.672757 61.576459 57.030525 70.567708 57.030525 82.770119 L 57.030525 100.752618 L 91.711059 240.75922 C 115.473647 335.167341 127.033826 382.050286 128.31829 382.692518 C 128.31829 384.619215 110.978023 385.261447 76.93972 385.261447 Z M 26.203383 385.261447 " transform="matrix(0.0060823, 0, 0, -0.0060823, 67.223436, 85.265152)"/>
<path fill-rule="nonzero" fill="rgb(0%, 0%, 0%)" fill-opacity="1" stroke-width="19.729371" stroke-linecap="butt" stroke-linejoin="miter" stroke="rgb(0%, 0%, 0%)" stroke-opacity="0.0182" stroke-miterlimit="4" d="M 55.680393 236.905827 C 55.680393 236.905827 55.680393 241.401452 55.680393 249.75047 C 55.680393 258.741719 60.81825 265.16404 69.8095 270.301897 L 369.089667 270.301897 L 369.089667 419.941981 L 369.731899 570.224297 C 376.796453 578.573314 383.218774 583.068939 388.998863 583.068939 C 397.34788 583.068939 404.412434 577.931082 408.908058 568.297601 L 408.908058 270.301897 L 706.903762 270.301897 C 717.179475 264.521808 722.317332 258.099487 722.317332 249.75047 C 722.317332 242.043684 717.179475 235.621363 706.903762 229.841274 L 408.908058 229.841274 L 408.908058 -68.154429 C 403.770201 -77.145679 397.34788 -82.283536 390.925559 -82.283536 L 387.072166 -82.283536 C 378.723149 -82.283536 372.94306 -77.145679 369.089667 -68.154429 L 369.089667 229.841274 L 69.8095 229.841274 C 60.81825 234.979131 55.680393 241.401452 55.680393 249.75047 Z M 55.680393 236.905827 " transform="matrix(0.0060823, 0, 0, -0.0060823, 69.419148, 85.265152)"/>
<path fill-rule="nonzero" fill="rgb(0%, 0%, 0%)" fill-opacity="1" stroke-width="19.729371" stroke-linecap="butt" stroke-linejoin="miter" stroke="rgb(0%, 0%, 0%)" stroke-opacity="0.0182" stroke-miterlimit="4" d="M 212.770278 577.931082 L 199.925636 572.793225 C 190.934386 569.582065 177.447512 566.370904 160.107245 563.159744 C 142.766978 559.948583 123.500014 557.379654 102.306354 556.09519 L 83.03939 556.09519 L 83.03939 601.693671 L 102.306354 601.693671 C 133.133496 603.620367 162.033941 608.115992 189.00769 617.107242 C 215.981439 625.456259 234.606171 633.805277 244.881884 640.86983 C 255.79983 648.576615 264.79108 655.641169 273.140098 662.705722 C 274.424562 665.27465 278.277955 665.916883 284.700276 665.916883 C 291.122597 665.916883 296.902686 663.990186 302.040543 660.136793 L 302.040543 360.856626 L 302.682775 60.934227 C 307.820632 56.438602 311.674025 53.227441 314.885185 51.942977 C 318.096346 50.658513 326.445364 49.374049 339.290006 48.089584 C 351.492416 46.80512 372.043844 46.162888 400.944289 46.162888 L 427.275806 46.162888 L 427.275806 -0.0778246 L 415.715628 -0.0778246 C 402.228754 1.848872 348.923488 3.133336 257.084295 3.133336 C 166.529566 3.133336 113.866532 1.848872 99.737426 -0.0778246 L 88.177247 -0.0778246 L 88.177247 46.162888 L 113.866532 46.162888 C 128.637871 46.162888 141.482513 46.162888 151.758227 46.162888 C 162.676173 46.162888 171.025191 46.162888 176.80528 46.80512 C 183.227601 47.447352 188.365458 48.731816 192.861083 50.016281 C 197.356708 51.300745 200.567868 51.942977 201.2101 51.942977 C 201.852332 51.942977 203.779029 53.869673 206.990189 57.080834 C 210.20135 60.291995 212.128046 61.576459 212.770278 60.934227 Z M 212.770278 577.931082 " transform="matrix(0.0060823, 0, 0, -0.0060823, 74.151179, 85.265152)"/>
<path fill-rule="nonzero" fill="rgb(0%, 0%, 0%)" fill-opacity="1" stroke-width="13.948665" stroke-linecap="butt" stroke-linejoin="miter" stroke="rgb(0%, 0%, 0%)" stroke-opacity="0.0258" stroke-miterlimit="4" d="M 77.811135 35.200652 C 77.811135 35.200652 77.811135 43.373698 77.811135 60.173847 C 77.811135 76.519939 83.259832 91.049797 94.157227 102.855308 C 104.600563 115.114876 119.130422 121.017631 136.838687 121.017631 C 155.455069 121.017631 172.255218 112.844586 186.785077 96.044436 C 201.768994 79.244287 209.487982 50.184569 209.94204 7.957167 C 209.94204 -15.199796 207.217691 -37.9027 200.860878 -60.151547 C 194.958123 -81.946335 188.147251 -101.016775 179.974206 -116.908808 C 171.80116 -132.800841 163.174056 -146.876642 154.092895 -157.774036 C 144.557675 -169.125488 136.838687 -178.20665 130.027816 -185.017521 C 123.216944 -191.828393 119.130422 -194.552741 116.860131 -194.098683 C 114.135783 -194.098683 110.04926 -190.920277 104.146505 -185.017521 C 97.789691 -179.114766 95.065343 -174.574185 95.065343 -171.849837 C 95.065343 -169.125488 98.697808 -164.130849 105.962737 -155.957804 C 113.227666 -147.784758 121.85477 -137.79548 130.935932 -125.98997 C 140.471152 -114.184459 149.098256 -97.38431 156.817243 -76.04358 C 164.990289 -54.70285 170.438986 -30.183713 173.163334 -2.940227 L 173.163334 8.865283 L 171.80116 7.957167 C 170.893044 7.503109 169.076812 6.594993 166.806521 6.140935 C 164.990289 5.232818 163.174056 4.324702 160.903766 2.962528 C 159.087534 1.600354 155.909127 1.146296 151.822604 1.146296 C 148.190139 1.146296 144.103617 0.692237 140.017094 -0.215879 C 121.85477 -0.215879 107.324911 5.686876 95.973459 17.038329 Z M 77.811135 35.200652 " transform="matrix(0.00860297, 0, 0, -0.00860297, 77.623562, 83.974705)"/>
<path fill-rule="nonzero" fill="rgb(0%, 0%, 0%)" fill-opacity="1" stroke-width="13.948665" stroke-linecap="butt" stroke-linejoin="miter" stroke="rgb(0%, 0%, 0%)" stroke-opacity="0.0258" stroke-miterlimit="4" d="M 307.841033 23.8492 C 347.344087 23.8492 383.214676 41.557466 415.906859 76.06588 C 448.599041 110.574295 465.399191 150.985465 465.853249 196.845332 C 465.853249 239.072735 448.599041 268.132453 414.090626 284.024486 C 343.257564 302.186809 297.851755 314.446378 277.873199 320.803191 C 257.894643 327.614062 243.818843 334.424934 236.099855 340.781747 C 196.142743 368.933349 176.164187 409.344519 176.164187 462.015257 C 176.164187 502.880485 186.607523 539.659191 207.948254 572.805431 C 229.288984 606.40573 251.083772 631.378925 272.87856 648.179074 C 292.403058 664.525165 315.560021 678.146908 342.803506 688.136186 C 370.50105 698.125464 391.84178 703.120103 406.825697 704.028219 L 424.988021 704.028219 C 489.010211 704.028219 535.324137 682.687489 563.929796 640.006029 C 564.837912 640.006029 568.924435 644.546609 577.097481 653.173713 C 584.816468 661.800817 593.443572 671.336037 602.978792 681.779373 C 612.514012 692.676767 618.870825 699.941696 622.957348 704.028219 C 623.865464 704.028219 624.77358 704.028219 627.043871 704.028219 C 628.860103 704.028219 630.676336 704.482277 632.03851 704.936335 C 640.665614 704.936335 645.206194 702.666045 645.206194 698.125464 C 645.206194 693.130825 635.670975 653.173713 617.054593 576.891954 C 598.438211 501.064253 587.540817 461.561199 584.816468 458.836851 C 582.546178 456.112502 577.097481 455.204386 568.924435 456.112502 C 555.756751 456.112502 548.945879 458.836851 548.945879 465.193664 C 548.945879 468.826129 549.399937 472.458593 549.853995 475.182942 C 549.853995 476.999174 550.308054 483.355987 551.21617 493.799323 C 551.670228 504.696718 552.124286 513.323821 553.032402 520.134693 C 553.032402 542.837597 549.853995 562.362095 543.95124 579.162244 C 538.048485 595.508336 532.14573 608.221962 525.788917 615.94095 C 519.886162 624.113995 511.713116 632.287041 500.815722 640.914145 C 477.204701 654.989946 449.507158 661.800817 419.085265 661.800817 C 380.944386 661.800817 345.527855 646.8169 312.835672 615.94095 C 280.14349 585.519058 263.797399 550.102527 262.889282 510.145415 C 262.889282 490.166859 267.883921 472.458593 277.873199 457.928734 C 287.862477 443.398875 301.48422 432.955539 319.192486 427.052784 C 321.462776 425.69061 345.073797 419.333797 389.117432 407.982344 C 433.161066 396.630892 455.409913 390.728137 455.863971 389.820021 C 478.566875 382.555091 500.815722 366.663058 522.156452 342.143921 C 543.497182 317.170726 553.940518 284.024486 553.940518 241.797083 C 553.940518 224.542876 551.21617 205.926494 546.221531 185.947938 C 542.589066 171.418079 536.686311 155.071988 528.059207 136.909665 C 519.432103 119.201399 507.172535 99.222843 492.188618 77.882113 C 476.750643 56.541383 454.501797 36.562827 425.896137 17.946445 C 397.290477 -0.669937 365.960469 -13.383563 331.906112 -20.194435 C 324.187125 -21.556609 312.835672 -22.010667 297.851755 -22.010667 C 232.013332 -22.010667 180.704768 -3.848343 143.926063 32.930362 L 133.936785 43.827756 L 105.785183 12.951806 C 90.801266 -5.210518 81.266046 -15.199796 78.08764 -17.924144 C 74.455175 -20.648493 70.368652 -22.010667 64.919955 -22.010667 C 56.292851 -22.010667 52.206329 -19.286318 52.206329 -13.837621 C 52.206329 -12.021389 71.276768 66.530661 109.871706 220.910411 C 111.23388 224.996934 118.044752 226.813166 129.850262 226.813166 L 143.017947 226.813166 C 147.104469 223.180702 148.920702 219.548237 148.920702 215.915772 C 148.920702 214.553598 148.466644 211.829249 148.012586 206.83461 C 147.558528 202.29403 146.196353 195.483158 143.926063 185.947938 C 142.10983 176.866776 141.201714 165.515324 142.10983 152.801698 C 143.472005 126.920387 149.37476 105.125598 159.818096 86.963275 C 170.71549 68.800951 184.791291 55.633266 202.953615 47.006163 C 221.115938 38.379059 238.370146 32.476304 255.170295 28.843839 C 271.516386 25.665432 289.224652 23.8492 307.841033 23.8492 Z M 307.841033 23.8492 " transform="matrix(0.00860297, 0, 0, -0.00860297, 81.449308, 83.974705)"/>
<path fill-rule="nonzero" fill="rgb(0%, 0%, 0%)" fill-opacity="1" stroke-width="19.729371" stroke-linecap="butt" stroke-linejoin="miter" stroke="rgb(0%, 0%, 0%)" stroke-opacity="0.0182" stroke-miterlimit="4" d="M 25.849771 385.261447 C 21.354146 389.757071 18.785218 392.968232 18.785218 394.894928 C 18.785218 397.463857 20.069682 403.243946 21.996378 410.950731 C 23.923075 419.299749 25.849771 423.795374 27.134235 425.079838 C 28.418699 428.290999 31.62986 430.217695 36.125485 430.217695 C 40.62111 430.217695 57.961377 430.217695 86.861822 430.859927 L 140.167088 430.859927 L 158.791819 511.138942 C 160.718516 518.203495 163.287444 527.836977 165.856373 540.039387 C 168.425301 552.241798 170.99423 560.590815 172.920926 565.728672 C 174.847622 571.508761 176.774319 577.931082 178.701015 586.2801 C 181.269944 593.986885 183.838872 599.766974 187.050033 602.978135 C 190.261193 606.189296 193.472354 610.042688 196.683514 615.180545 C 200.536907 619.67617 205.032532 622.887331 210.812621 624.171795 C 217.234942 625.456259 223.015031 626.098491 228.79512 626.098491 C 240.997531 625.456259 249.346548 621.602866 253.842173 615.180545 C 258.98003 608.115992 260.906726 601.693671 260.906726 595.913582 C 260.906726 591.417957 257.695566 575.362154 251.915477 549.030637 C 246.135388 522.056888 239.070834 495.725371 232.006281 470.036086 L 221.730567 432.786623 C 221.730567 431.502159 238.428602 430.859927 271.824672 430.859927 L 323.203242 430.859927 C 327.698867 426.364302 330.267795 422.51091 330.267795 419.941981 C 330.267795 405.170642 325.77217 393.610464 316.780921 385.261447 L 210.170389 385.261447 L 174.20539 240.116988 C 147.873873 133.506456 135.029231 75.705565 135.029231 67.99878 C 135.029231 39.740567 144.020481 26.253692 162.00298 26.253692 C 185.123336 26.253692 208.243693 37.171638 230.079585 60.291995 C 251.915477 82.770119 269.897976 110.3861 282.742618 143.78217 C 284.027083 148.277795 285.953779 150.204491 287.880475 150.846723 C 289.807172 151.488955 294.945029 152.131188 303.294046 152.77342 L 307.147439 152.77342 C 316.780921 152.77342 321.918778 150.204491 321.918778 145.066634 C 321.918778 143.139938 321.276546 139.286545 318.707617 132.864224 C 315.496456 122.58851 309.716367 109.743868 300.725118 94.972529 C 292.3761 80.20119 280.815922 64.787619 266.686815 48.089584 C 253.199941 31.391549 235.859674 17.262443 215.950478 5.702264 C 196.041282 -5.215682 175.489855 -10.995771 154.938427 -10.995771 C 135.029231 -10.995771 115.762268 -5.857914 97.779768 3.775568 C 79.797269 14.051282 66.952626 31.391549 59.245841 55.79637 C 57.961377 61.576459 57.319145 70.567708 57.319145 82.770119 L 57.319145 100.752618 L 91.999679 240.75922 C 115.120035 335.167341 127.322446 382.050286 127.964678 382.692518 C 127.964678 384.619215 111.266643 385.261447 77.22834 385.261447 Z M 25.849771 385.261447 " transform="matrix(0.0060823, 0, 0, -0.0060823, 87.006836, 85.265152)"/>
<path fill-rule="nonzero" fill="rgb(0%, 0%, 0%)" fill-opacity="1" stroke-width="19.729371" stroke-linecap="butt" stroke-linejoin="miter" stroke="rgb(0%, 0%, 0%)" stroke-opacity="0.0182" stroke-miterlimit="4" d="M 55.969802 236.905827 C 55.969802 236.905827 55.969802 241.401452 55.969802 249.75047 C 55.969802 258.741719 60.465427 265.16404 70.098909 270.301897 L 368.736844 270.301897 L 368.736844 419.941981 L 370.021308 570.224297 C 376.44363 578.573314 382.865951 583.068939 389.288272 583.068939 C 397.63729 583.068939 404.059611 577.931082 409.197468 568.297601 L 409.197468 270.301897 L 707.193171 270.301897 C 716.826653 264.521808 721.964509 258.099487 721.964509 249.75047 C 721.964509 242.043684 716.826653 235.621363 707.193171 229.841274 L 409.197468 229.841274 L 409.197468 -68.154429 C 403.417379 -77.145679 397.63729 -82.283536 391.214968 -82.283536 L 386.719343 -82.283536 C 379.012558 -82.283536 373.232469 -77.145679 368.736844 -68.154429 L 368.736844 229.841274 L 70.098909 229.841274 C 60.465427 234.979131 55.969802 241.401452 55.969802 249.75047 Z M 55.969802 236.905827 " transform="matrix(0.0060823, 0, 0, -0.0060823, 89.202543, 85.265152)"/>
<path fill-rule="nonzero" fill="rgb(0%, 0%, 0%)" fill-opacity="1" stroke-width="19.729371" stroke-linecap="butt" stroke-linejoin="miter" stroke="rgb(0%, 0%, 0%)" stroke-opacity="0.0182" stroke-miterlimit="4" d="M 213.058899 577.931082 L 200.214256 572.793225 C 190.580774 569.582065 177.0939 566.370904 159.753633 563.159744 C 142.413365 559.948583 123.146402 557.379654 101.952742 556.09519 L 82.685778 556.09519 L 82.685778 601.693671 L 101.952742 601.693671 C 133.422116 603.620367 162.322561 608.115992 189.29631 617.107242 C 215.627827 625.456259 234.252558 633.805277 245.170504 640.86983 C 255.446218 648.576615 265.0797 655.641169 272.786486 662.705722 C 274.07095 665.27465 278.566575 665.916883 284.988896 665.916883 C 290.768985 665.916883 296.549074 663.990186 301.686931 660.136793 L 301.686931 360.856626 L 302.971395 60.934227 C 307.46702 56.438602 311.962645 53.227441 315.173805 51.942977 C 318.384966 50.658513 326.091751 49.374049 338.936394 48.089584 C 351.781036 46.80512 372.332464 46.162888 401.232909 46.162888 L 426.922194 46.162888 L 426.922194 -0.0778246 L 416.004248 -0.0778246 C 401.875141 1.848872 349.212108 3.133336 256.730683 3.133336 C 166.175954 3.133336 114.155152 1.848872 100.026046 -0.0778246 L 87.823635 -0.0778246 L 87.823635 46.162888 L 114.155152 46.162888 C 128.926491 46.162888 141.128901 46.162888 152.046847 46.162888 C 162.964793 46.162888 171.313811 46.162888 177.0939 46.80512 C 182.873989 47.447352 188.654078 48.731816 193.149703 50.016281 C 197.645328 51.300745 200.214256 51.942977 200.856488 51.942977 C 201.49872 51.942977 203.425417 53.869673 207.278809 57.080834 C 210.48997 60.291995 212.416666 61.576459 213.058899 60.934227 Z M 213.058899 577.931082 " transform="matrix(0.0060823, 0, 0, -0.0060823, 93.93458, 85.265152)"/>
<path fill-rule="nonzero" fill="rgb(0%, 0%, 0%)" fill-opacity="1" stroke-width="13.948665" stroke-linecap="butt" stroke-linejoin="miter" stroke="rgb(0%, 0%, 0%)" stroke-opacity="0.0258" stroke-miterlimit="4" d="M 78.014911 35.200652 C 78.014911 35.200652 78.014911 43.373698 78.014911 60.173847 C 78.014911 76.519939 83.463608 91.049797 93.906944 102.855308 C 104.804338 115.114876 118.880139 121.017631 137.042463 121.017631 C 155.658844 121.017631 172.458994 112.844586 186.988852 96.044436 C 201.518711 79.244287 209.237699 50.184569 210.145815 7.957167 C 210.145815 -15.199796 206.967408 -37.9027 201.064653 -60.151547 C 195.161898 -81.946335 187.896969 -101.016775 180.177981 -116.908808 C 172.004935 -132.800841 163.377832 -146.876642 153.842612 -157.774036 C 144.76145 -169.125488 136.588404 -178.20665 129.777533 -185.017521 C 123.42072 -191.828393 118.880139 -194.552741 117.063907 -194.098683 C 114.339558 -194.098683 109.798977 -190.920277 103.896222 -185.017521 C 97.993467 -179.114766 94.81506 -174.574185 94.81506 -171.849837 C 94.81506 -169.125488 98.447525 -164.130849 106.166512 -155.957804 C 113.431442 -147.784758 121.604487 -137.79548 131.139707 -125.98997 C 140.220869 -114.184459 148.847973 -97.38431 157.021018 -76.04358 C 165.194064 -54.70285 170.188703 -30.183713 172.913052 -2.940227 L 172.913052 8.865283 L 172.004935 7.957167 C 170.642761 7.503109 168.826529 6.594993 167.010296 6.140935 C 165.194064 5.232818 162.923774 4.324702 161.107541 2.962528 C 158.837251 1.600354 156.112902 1.146296 152.026379 1.146296 C 147.939857 1.146296 143.853334 0.692237 140.220869 -0.215879 C 122.058546 -0.215879 107.528687 5.686876 96.177234 17.038329 Z M 78.014911 35.200652 " transform="matrix(0.00860297, 0, 0, -0.00860297, 97.406965, 83.974705)"/>
<path fill-rule="nonzero" fill="rgb(0%, 0%, 0%)" fill-opacity="1" stroke-width="13.948665" stroke-linecap="butt" stroke-linejoin="miter" stroke="rgb(0%, 0%, 0%)" stroke-opacity="0.0258" stroke-miterlimit="4" d="M 366.164244 683.141547 C 366.618302 683.141547 390.683381 684.503721 437.905423 688.136186 C 485.127464 691.314593 509.646601 693.130825 511.008775 694.038941 C 519.181821 694.038941 522.814285 691.314593 522.814285 685.865896 C 522.814285 681.325315 498.749207 580.524419 450.164991 383.917266 C 401.126717 187.310113 376.153522 86.963275 374.791348 82.876752 C 373.883232 78.790229 373.429174 73.79559 373.883232 67.892835 C 373.883232 40.195291 383.418452 26.119491 402.034833 26.119491 C 407.937589 26.573549 414.74846 29.751955 422.013389 35.200652 C 436.08919 48.368337 449.710933 80.152403 462.878618 131.006909 C 466.96514 144.174594 470.143547 151.439523 472.867896 151.893582 C 474.23007 152.801698 477.862535 152.801698 482.857174 152.801698 L 491.030219 152.801698 C 501.019497 152.801698 506.014136 150.531407 506.014136 145.08271 C 506.014136 141.450245 505.10602 136.455606 502.835729 129.190677 C 494.208626 95.590378 484.219348 68.800951 472.867896 47.914279 C 461.516443 27.481665 452.435281 13.859922 445.170352 7.957167 C 437.451364 2.054412 428.370203 -3.394285 417.01875 -7.934866 C 411.570053 -9.297041 403.851066 -10.205157 392.953672 -10.205157 C 370.250767 -10.205157 351.180327 -5.210518 336.19641 4.77876 C 320.758435 15.222096 310.769157 25.211374 305.774518 36.108769 L 299.871763 51.092685 C 299.417705 51.546744 298.055531 51.546744 295.78524 50.184569 C 294.877124 48.822395 293.51495 47.460221 292.152776 46.098046 C 252.649722 8.865283 212.69261 -10.205157 171.827382 -10.205157 C 135.502734 -10.205157 102.810552 3.416586 75.113008 30.206013 C 46.961407 56.541383 32.885606 99.222843 32.885606 156.888221 C 32.885606 189.126345 39.696477 221.818527 52.864162 254.964768 C 66.485905 288.111009 82.377938 317.170726 100.99432 340.781747 C 132.324328 378.922627 163.654336 405.257996 194.984344 419.787855 C 226.314353 434.771772 254.465954 442.036701 279.893207 442.036701 C 317.125971 442.036701 345.277572 427.9609 363.893954 399.809299 C 367.526419 396.176834 368.888593 394.81466 368.888593 396.176834 C 369.796709 398.447125 378.877871 435.22583 396.132078 505.150776 C 413.386286 575.075722 422.467447 611.854427 423.829622 615.94095 C 423.829622 624.568053 421.559331 630.016751 417.01875 631.832983 C 412.47817 634.103273 399.310485 635.465448 377.969755 636.827622 L 357.083083 636.827622 C 352.99656 640.914145 351.180327 643.638493 351.180327 645.000668 C 351.180327 646.362842 351.634385 652.719655 352.99656 664.071107 C 356.174966 676.784734 360.715547 683.141547 366.164244 683.141547 Z M 352.088444 325.79783 C 336.650468 378.468569 311.677273 404.803938 277.168859 404.803938 C 253.557838 404.803938 231.308992 394.81466 209.968261 373.927988 C 188.627531 353.495374 171.827382 326.251888 160.021871 293.105648 C 140.497373 240.434909 126.875631 185.49388 119.156643 129.190677 C 119.156643 126.920387 119.156643 123.287922 119.156643 117.839225 C 119.156643 112.844586 118.702585 108.758063 117.794469 106.033714 C 117.794469 76.06588 124.151282 55.179208 135.956793 43.827756 C 148.216361 32.476304 162.292162 26.573549 179.092311 26.119491 C 214.9629 26.119491 252.195664 50.184569 289.882485 97.860669 L 298.055531 109.212121 Z M 352.088444 325.79783 " transform="matrix(0.00860297, 0, 0, -0.00860297, 101.232711, 83.974705)"/>
<path fill-rule="nonzero" fill="rgb(0%, 0%, 0%)" fill-opacity="1" stroke-width="19.729371" stroke-linecap="butt" stroke-linejoin="miter" stroke="rgb(0%, 0%, 0%)" stroke-opacity="0.0182" stroke-miterlimit="4" d="M 26.023223 385.261447 C 21.527599 389.757071 18.95867 392.968232 18.95867 394.894928 C 18.95867 397.463857 20.243134 403.243946 22.169831 410.950731 C 24.096527 419.299749 25.380991 423.795374 27.307688 425.079838 C 28.592152 428.290999 31.16108 430.217695 36.298937 430.217695 C 40.794562 430.217695 57.492597 430.217695 87.035275 430.859927 L 139.698308 430.859927 L 158.965272 511.138942 C 160.891968 518.203495 163.460897 527.836977 166.029825 540.039387 C 168.598754 552.241798 171.167682 560.590815 173.094379 565.728672 C 175.021075 571.508761 176.947771 577.931082 178.874468 586.2801 C 180.801164 593.986885 183.370093 599.766974 187.223485 602.978135 C 190.434646 606.189296 193.645806 610.042688 196.856967 615.180545 C 200.068128 619.67617 205.205985 622.887331 210.986074 624.171795 C 216.766163 625.456259 223.188484 626.098491 228.968573 626.098491 C 241.170983 625.456259 249.520001 621.602866 254.015626 615.180545 C 258.51125 608.115992 261.080179 601.693671 261.080179 595.913582 C 261.080179 591.417957 257.869018 575.362154 252.088929 549.030637 C 246.30884 522.056888 239.244287 495.725371 232.179734 470.036086 L 221.90402 432.786623 C 221.90402 431.502159 238.602055 430.859927 271.998125 430.859927 L 322.734462 430.859927 C 327.872319 426.364302 329.799016 422.51091 329.799016 419.941981 C 329.799016 405.170642 325.945623 393.610464 316.954373 385.261447 L 209.701609 385.261447 L 173.736611 240.116988 C 148.047326 133.506456 135.202684 75.705565 135.202684 67.99878 C 135.202684 39.740567 144.193933 26.253692 162.176433 26.253692 C 185.296789 26.253692 207.774913 37.171638 230.253037 60.291995 C 252.088929 82.770119 269.429196 110.3861 282.916071 143.78217 C 284.200535 148.277795 286.127232 150.204491 288.053928 150.846723 C 289.980624 151.488955 295.118481 152.131188 302.825267 152.77342 L 307.320891 152.77342 C 316.954373 152.77342 322.09223 150.204491 322.09223 145.066634 C 322.09223 143.139938 320.807766 139.286545 318.88107 132.864224 C 315.669909 122.58851 309.88982 109.743868 300.89857 94.972529 C 292.549553 80.20119 280.989375 64.787619 266.860268 48.089584 C 252.731161 31.391549 236.033126 17.262443 216.123931 5.702264 C 196.214735 -5.215682 175.663307 -10.995771 155.111879 -10.995771 C 135.202684 -10.995771 115.93572 -5.857914 97.953221 3.775568 C 79.970721 14.051282 67.126079 31.391549 58.777062 55.79637 C 57.492597 61.576459 56.850365 70.567708 56.850365 82.770119 L 56.850365 100.752618 L 92.173132 240.75922 C 115.293488 335.167341 127.495898 382.050286 128.13813 382.692518 C 128.13813 384.619215 110.797863 385.261447 76.759561 385.261447 Z M 26.023223 385.261447 " transform="matrix(0.0060823, 0, 0, -0.0060823, 105.990156, 85.265152)"/>
<path fill-rule="nonzero" fill="rgb(0%, 0%, 0%)" fill-opacity="1" stroke-width="13.948665" stroke-linecap="butt" stroke-linejoin="miter" stroke="rgb(0%, 0%, 0%)" stroke-opacity="0.0258" stroke-miterlimit="4" d="M 59.997975 748.97997 L 64.084498 749.888086 C 67.262904 749.888086 70.441311 749.888086 74.073776 749.888086 L 85.879286 749.888086 L 114.030888 725.823008 C 176.690904 669.519804 222.550771 598.686742 251.156431 513.777879 C 279.762091 429.323075 293.837891 341.235805 293.837891 249.970129 C 293.837891 204.56432 290.659485 160.974743 283.848613 119.201399 C 277.4918 76.973997 269.772813 41.557466 261.145709 12.04369 C 252.518605 -17.470086 239.804979 -46.529804 223.912946 -76.04358 C 208.020912 -105.557356 195.307286 -127.806202 186.226124 -142.790119 C 176.690904 -158.228094 163.069161 -175.482302 144.906838 -194.098683 C 127.198572 -212.715065 116.301178 -223.612459 113.122771 -226.790866 C 109.490307 -230.42333 102.225377 -236.780144 89.965809 -245.861306 C 88.149577 -248.131596 86.787402 -249.49377 85.879286 -249.947828 L 74.073776 -249.947828 C 68.625079 -249.947828 64.992614 -249.947828 63.176382 -249.947828 C 60.906091 -249.947828 59.543917 -249.039712 58.181743 -247.22348 C 56.819568 -244.953189 55.457394 -241.774783 55.003336 -238.142318 C 55.457394 -237.234202 59.543917 -233.147679 65.90073 -224.974633 C 169.425975 -117.816924 221.188597 40.649349 221.188597 249.970129 C 221.188597 459.290909 169.425975 617.757182 65.90073 724.914891 C 59.543917 733.087937 55.457394 737.17446 55.003336 738.082576 C 55.003336 743.531273 56.819568 747.163738 59.997975 748.97997 Z M 59.997975 748.97997 " transform="matrix(0.00860297, 0, 0, -0.00860297, 108.616651, 83.974705)"/>
<path fill-rule="nonzero" fill="rgb(0%, 0%, 0%)" fill-opacity="1" stroke-width="8.174567" stroke-linecap="butt" stroke-linejoin="miter" stroke="rgb(0%, 0%, 0%)" stroke-opacity="0.044" stroke-miterlimit="4" d="M 78.043669 59.990295 C 78.043669 75.956245 83.631751 90.059501 95.074016 102.033964 C 106.250181 114.008427 120.619536 120.128708 137.915982 120.128708 C 153.881933 120.128708 167.985189 114.540625 179.959652 103.896658 C 191.934114 93.252691 198.320494 78.883336 199.118792 61.054691 C 199.118792 44.290444 193.26461 29.921088 182.088445 17.946625 C 170.646181 5.972163 156.276825 0.117981 138.980379 0.117981 C 121.683933 0.117981 107.314578 5.706064 95.872313 16.882229 C 84.696148 28.324493 78.575867 42.693848 78.043669 59.990295 Z M 78.043669 59.990295 " transform="matrix(0, 0.0146797, 0.0146797, 0, 72.537331, 99.069188)"/>
<path fill-rule="nonzero" fill="rgb(0%, 0%, 0%)" fill-opacity="1" stroke-width="8.174567" stroke-linecap="butt" stroke-linejoin="miter" stroke="rgb(0%, 0%, 0%)" stroke-opacity="0.044" stroke-miterlimit="4" d="M 77.995222 59.990295 C 77.995222 75.956245 83.583305 90.059501 95.025569 102.033964 C 106.201734 114.008427 120.57109 120.128708 137.867536 120.128708 C 154.099585 120.128708 167.936742 114.540625 179.911205 103.896658 C 191.885668 93.252691 198.272048 78.883336 199.070346 61.054691 C 199.070346 44.290444 193.216164 29.921088 182.039999 17.946625 C 170.597734 5.972163 156.228379 0.117981 138.931933 0.117981 C 121.635486 0.117981 107.266131 5.706064 96.089966 16.882229 C 84.647702 28.324493 78.79352 42.693848 77.995222 59.990295 Z M 77.995222 59.990295 " transform="matrix(0, 0.0146797, 0.0146797, 0, 72.537331, 105.597243)"/>
<path fill-rule="nonzero" fill="rgb(0%, 0%, 0%)" fill-opacity="1" stroke-width="8.174567" stroke-linecap="butt" stroke-linejoin="miter" stroke="rgb(0%, 0%, 0%)" stroke-opacity="0.044" stroke-miterlimit="4" d="M 78.047159 59.990295 C 78.047159 75.956245 83.635242 90.059501 95.077506 102.033964 C 106.253672 114.008427 120.623027 120.128708 137.919473 120.128708 C 153.885424 120.128708 167.98868 114.540625 179.963142 103.896658 C 191.937605 93.252691 198.323985 78.883336 199.122283 61.054691 C 199.122283 44.290444 193.268101 29.921088 182.091936 17.946625 C 170.649671 5.972163 156.280316 0.117981 138.98387 0.117981 C 121.687424 0.117981 107.318068 5.706064 95.875804 16.882229 C 84.699639 28.324493 78.579358 42.693848 78.047159 59.990295 Z M 78.047159 59.990295 " transform="matrix(0, 0.0146797, 0.0146797, 0, 72.537331, 112.123824)"/>
<path fill-rule="nonzero" fill="rgb(0%, 0%, 0%)" fill-opacity="1" stroke-width="10.849549" stroke-linecap="butt" stroke-linejoin="miter" stroke="rgb(0%, 0%, 0%)" stroke-opacity="0.0332" stroke-miterlimit="4" d="M 286.976081 627.954634 C 286.976081 632.545914 267.904608 635.724493 230.114837 637.137195 C 214.575118 637.137195 204.686206 637.49037 200.094926 637.843546 C 195.503645 638.549897 193.031417 641.728476 193.031417 647.026107 C 193.031417 652.323738 194.444119 659.034072 196.916347 667.157106 C 199.74175 674.926966 201.860803 679.871422 203.979856 681.990474 C 205.392557 682.696825 271.789538 683.050001 403.170798 683.050001 C 514.421058 682.34365 576.579934 681.990474 590.0006 681.990474 C 603.421266 681.990474 616.841933 679.871422 629.909424 675.986492 C 677.941282 664.684878 718.556456 638.196721 752.108122 596.875196 C 785.306613 555.553671 802.259033 500.458304 802.965384 430.882744 C 802.965384 327.049168 767.294666 233.810854 695.953229 151.167804 C 624.611792 68.171578 540.55604 19.080193 444.139148 2.834123 L 430.01213 1.068246 L 236.11882 0.00872003 L 71.892245 0.00872003 C 55.999351 0.00872003 45.757263 0.715071 41.165982 2.127773 C 36.221526 3.187299 33.749298 6.365878 33.042948 10.957158 C 33.042948 12.36986 34.102474 16.961141 35.868351 25.084176 C 38.693754 35.679438 41.165982 41.683421 43.991386 43.096122 C 46.816789 44.508824 54.233473 45.215175 66.947789 45.921526 C 84.959736 45.921526 105.090735 46.981052 126.987612 49.100105 C 136.170173 50.865982 142.527331 55.104087 146.059085 61.108069 C 147.824962 63.580297 171.840891 156.465435 218.106873 339.057132 C 264.019679 521.648829 286.976081 618.065722 286.976081 627.954634 Z M 703.016737 469.02569 C 703.016737 494.454321 699.484983 517.057549 692.068299 536.835373 C 684.651615 556.966372 676.175405 572.506091 665.933317 584.16088 C 656.044405 595.462494 643.683265 604.998231 628.849897 613.121266 C 614.369705 620.891125 601.302214 626.188757 590.0006 629.01416 C 578.698986 631.839563 567.044197 633.958616 555.036232 636.077669 C 553.623531 636.077669 549.03225 636.077669 540.909215 636.077669 C 533.139356 636.077669 523.250444 636.077669 511.94883 636.077669 C 500.647216 636.077669 489.698778 636.430844 479.103515 637.137195 L 436.016113 637.137195 C 406.702552 637.137195 390.103307 633.605441 385.865202 626.895107 C 384.805675 624.422879 360.436571 528.359163 313.111063 339.057132 C 265.785556 149.755102 242.122802 54.044561 242.122802 51.925508 C 242.122802 49.45328 245.654556 48.040578 253.07124 48.040578 C 260.487924 48.040578 285.916555 47.687403 330.063484 46.981052 C 333.242063 46.981052 339.59922 46.981052 349.134957 46.981052 C 358.317518 46.981052 366.440553 46.627877 373.150886 45.921526 C 456.853463 45.921526 526.429023 73.469209 581.171214 127.858226 C 604.833968 151.874155 624.611792 180.128189 640.151511 211.913978 C 655.338054 244.052942 669.818247 286.433993 682.885738 339.057132 C 696.306404 391.680271 703.016737 435.120849 703.016737 469.02569 Z M 703.016737 469.02569 " transform="matrix(0.0110604, 0, 0, -0.0110604, 66.958752, 42.078221)"/>
</svg>
