<?xml version="1.0" encoding="utf-8" standalone="no"?>
<!DOCTYPE svg PUBLIC "-//W3C//DTD SVG 1.1//EN"
  "http://www.w3.org/Graphics/SVG/1.1/DTD/svg11.dtd">
<svg xmlns:xlink="http://www.w3.org/1999/xlink" width="460.8pt" height="345.6pt" viewBox="0 0 460.8 345.6" xmlns="http://www.w3.org/2000/svg" version="1.1">
 <metadata>
  <rdf:RDF xmlns:dc="http://purl.org/dc/elements/1.1/" xmlns:cc="http://creativecommons.org/ns#" xmlns:rdf="http://www.w3.org/1999/02/22-rdf-syntax-ns#">
   <cc:Work>
    <dc:type rdf:resource="http://purl.org/dc/dcmitype/StillImage"/>
    <dc:date>2025-02-24T15:58:20.770185</dc:date>
    <dc:format>image/svg+xml</dc:format>
    <dc:creator>
     <cc:Agent>
      <dc:title>Matplotlib v3.9.2, https://matplotlib.org/</dc:title>
     </cc:Agent>
    </dc:creator>
   </cc:Work>
  </rdf:RDF>
 </metadata>
 <defs>
  <style type="text/css">*{stroke-linejoin: round; stroke-linecap: butt}</style>
 </defs>
 <g id="figure_1">
  <g id="patch_1">
   <path d="M 0 345.6 
L 460.8 345.6 
L 460.8 0 
L 0 0 
z
" style="fill: #ffffff"/>
  </g>
  <g id="axes_1">
   <g id="patch_2">
    <path d="M 57.6 307.584 
L 414.72 307.584 
L 414.72 41.472 
L 57.6 41.472 
z
" style="fill: #ffffff"/>
   </g>
   <g id="patch_3">
    <path d="M 73.832727 307.584 
L 84.654545 307.584 
L 84.654545 305.300757 
L 73.832727 305.300757 
z
" clip-path="url(#p7a31c8d74c)" style="fill: #1f77b4; opacity: 0.5"/>
   </g>
   <g id="patch_4">
    <path d="M 84.654545 307.584 
L 95.476364 307.584 
L 95.476364 307.584 
L 84.654545 307.584 
z
" clip-path="url(#p7a31c8d74c)" style="fill: #1f77b4; opacity: 0.5"/>
   </g>
   <g id="patch_5">
    <path d="M 95.476364 307.584 
L 106.298182 307.584 
L 106.298182 305.300757 
L 95.476364 305.300757 
z
" clip-path="url(#p7a31c8d74c)" style="fill: #1f77b4; opacity: 0.5"/>
   </g>
   <g id="patch_6">
    <path d="M 106.298182 307.584 
L 117.12 307.584 
L 117.12 304.159135 
L 106.298182 304.159135 
z
" clip-path="url(#p7a31c8d74c)" style="fill: #1f77b4; opacity: 0.5"/>
   </g>
   <g id="patch_7">
    <path d="M 117.12 307.584 
L 127.941818 307.584 
L 127.941818 300.73427 
L 117.12 300.73427 
z
" clip-path="url(#p7a31c8d74c)" style="fill: #1f77b4; opacity: 0.5"/>
   </g>
   <g id="patch_8">
    <path d="M 127.941818 307.584 
L 138.763636 307.584 
L 138.763636 298.451027 
L 127.941818 298.451027 
z
" clip-path="url(#p7a31c8d74c)" style="fill: #1f77b4; opacity: 0.5"/>
   </g>
   <g id="patch_9">
    <path d="M 138.763636 307.584 
L 149.585455 307.584 
L 149.585455 288.176432 
L 138.763636 288.176432 
z
" clip-path="url(#p7a31c8d74c)" style="fill: #1f77b4; opacity: 0.5"/>
   </g>
   <g id="patch_10">
    <path d="M 149.585455 307.584 
L 160.407273 307.584 
L 160.407273 276.760216 
L 149.585455 276.760216 
z
" clip-path="url(#p7a31c8d74c)" style="fill: #1f77b4; opacity: 0.5"/>
   </g>
   <g id="patch_11">
    <path d="M 160.407273 307.584 
L 171.229091 307.584 
L 171.229091 248.219676 
L 160.407273 248.219676 
z
" clip-path="url(#p7a31c8d74c)" style="fill: #1f77b4; opacity: 0.5"/>
   </g>
   <g id="patch_12">
    <path d="M 171.229091 307.584 
L 182.050909 307.584 
L 182.050909 236.803459 
L 171.229091 236.803459 
z
" clip-path="url(#p7a31c8d74c)" style="fill: #1f77b4; opacity: 0.5"/>
   </g>
   <g id="patch_13">
    <path d="M 182.050909 307.584 
L 192.872727 307.584 
L 192.872727 200.271568 
L 182.050909 200.271568 
z
" clip-path="url(#p7a31c8d74c)" style="fill: #1f77b4; opacity: 0.5"/>
   </g>
   <g id="patch_14">
    <path d="M 192.872727 307.584 
L 203.694545 307.584 
L 203.694545 177.439135 
L 192.872727 177.439135 
z
" clip-path="url(#p7a31c8d74c)" style="fill: #1f77b4; opacity: 0.5"/>
   </g>
   <g id="patch_15">
    <path d="M 203.694545 307.584 
L 214.516364 307.584 
L 214.516364 131.77427 
L 203.694545 131.77427 
z
" clip-path="url(#p7a31c8d74c)" style="fill: #1f77b4; opacity: 0.5"/>
   </g>
   <g id="patch_16">
    <path d="M 214.516364 307.584 
L 225.338182 307.584 
L 225.338182 114.649946 
L 214.516364 114.649946 
z
" clip-path="url(#p7a31c8d74c)" style="fill: #1f77b4; opacity: 0.5"/>
   </g>
   <g id="patch_17">
    <path d="M 225.338182 307.584 
L 236.16 307.584 
L 236.16 63.276973 
L 225.338182 63.276973 
z
" clip-path="url(#p7a31c8d74c)" style="fill: #1f77b4; opacity: 0.5"/>
   </g>
   <g id="patch_18">
    <path d="M 236.16 307.584 
L 246.981818 307.584 
L 246.981818 112.366703 
L 236.16 112.366703 
z
" clip-path="url(#p7a31c8d74c)" style="fill: #1f77b4; opacity: 0.5"/>
   </g>
   <g id="patch_19">
    <path d="M 246.981818 307.584 
L 257.803636 307.584 
L 257.803636 54.144 
L 246.981818 54.144 
z
" clip-path="url(#p7a31c8d74c)" style="fill: #1f77b4; opacity: 0.5"/>
   </g>
   <g id="patch_20">
    <path d="M 257.803636 307.584 
L 268.625455 307.584 
L 268.625455 126.066162 
L 257.803636 126.066162 
z
" clip-path="url(#p7a31c8d74c)" style="fill: #1f77b4; opacity: 0.5"/>
   </g>
   <g id="patch_21">
    <path d="M 268.625455 307.584 
L 279.447273 307.584 
L 279.447273 145.47373 
L 268.625455 145.47373 
z
" clip-path="url(#p7a31c8d74c)" style="fill: #1f77b4; opacity: 0.5"/>
   </g>
   <g id="patch_22">
    <path d="M 279.447273 307.584 
L 290.269091 307.584 
L 290.269091 153.465081 
L 279.447273 153.465081 
z
" clip-path="url(#p7a31c8d74c)" style="fill: #1f77b4; opacity: 0.5"/>
   </g>
   <g id="patch_23">
    <path d="M 290.269091 307.584 
L 301.090909 307.584 
L 301.090909 204.838054 
L 290.269091 204.838054 
z
" clip-path="url(#p7a31c8d74c)" style="fill: #1f77b4; opacity: 0.5"/>
   </g>
   <g id="patch_24">
    <path d="M 301.090909 307.584 
L 311.912727 307.584 
L 311.912727 235.661838 
L 301.090909 235.661838 
z
" clip-path="url(#p7a31c8d74c)" style="fill: #1f77b4; opacity: 0.5"/>
   </g>
   <g id="patch_25">
    <path d="M 311.912727 307.584 
L 322.734545 307.584 
L 322.734545 253.927784 
L 311.912727 253.927784 
z
" clip-path="url(#p7a31c8d74c)" style="fill: #1f77b4; opacity: 0.5"/>
   </g>
   <g id="patch_26">
    <path d="M 322.734545 307.584 
L 333.556364 307.584 
L 333.556364 280.185081 
L 322.734545 280.185081 
z
" clip-path="url(#p7a31c8d74c)" style="fill: #1f77b4; opacity: 0.5"/>
   </g>
   <g id="patch_27">
    <path d="M 333.556364 307.584 
L 344.378182 307.584 
L 344.378182 292.742919 
L 333.556364 292.742919 
z
" clip-path="url(#p7a31c8d74c)" style="fill: #1f77b4; opacity: 0.5"/>
   </g>
   <g id="patch_28">
    <path d="M 344.378182 307.584 
L 355.2 307.584 
L 355.2 301.875892 
L 344.378182 301.875892 
z
" clip-path="url(#p7a31c8d74c)" style="fill: #1f77b4; opacity: 0.5"/>
   </g>
   <g id="patch_29">
    <path d="M 355.2 307.584 
L 366.021818 307.584 
L 366.021818 305.300757 
L 355.2 305.300757 
z
" clip-path="url(#p7a31c8d74c)" style="fill: #1f77b4; opacity: 0.5"/>
   </g>
   <g id="patch_30">
    <path d="M 366.021818 307.584 
L 376.843636 307.584 
L 376.843636 305.300757 
L 366.021818 305.300757 
z
" clip-path="url(#p7a31c8d74c)" style="fill: #1f77b4; opacity: 0.5"/>
   </g>
   <g id="patch_31">
    <path d="M 376.843636 307.584 
L 387.665455 307.584 
L 387.665455 307.584 
L 376.843636 307.584 
z
" clip-path="url(#p7a31c8d74c)" style="fill: #1f77b4; opacity: 0.5"/>
   </g>
   <g id="patch_32">
    <path d="M 387.665455 307.584 
L 398.487273 307.584 
L 398.487273 306.442378 
L 387.665455 306.442378 
z
" clip-path="url(#p7a31c8d74c)" style="fill: #1f77b4; opacity: 0.5"/>
   </g>
   <g id="matplotlib.axis_1">
    <g id="xtick_1">
     <g id="line2d_1">
      <defs>
       <path id="m8f28959fec" d="M 0 0 
L 0 3.5 
" style="stroke: #000000; stroke-width: 0.8"/>
      </defs>
      <g>
       <use xlink:href="#m8f28959fec" x="241.219387" y="307.584" style="stroke: #000000; stroke-width: 0.8"/>
      </g>
     </g>
     <g id="text_1">
      <!-- $0$ -->
      <g transform="translate(238.019387 322.182437) scale(0.1 -0.1)">
       <defs>
        <path id="DejaVuSans-30" d="M 2034 4250 
Q 1547 4250 1301 3770 
Q 1056 3291 1056 2328 
Q 1056 1369 1301 889 
Q 1547 409 2034 409 
Q 2525 409 2770 889 
Q 3016 1369 3016 2328 
Q 3016 3291 2770 3770 
Q 2525 4250 2034 4250 
z
M 2034 4750 
Q 2819 4750 3233 4129 
Q 3647 3509 3647 2328 
Q 3647 1150 3233 529 
Q 2819 -91 2034 -91 
Q 1250 -91 836 529 
Q 422 1150 422 2328 
Q 422 3509 836 4129 
Q 1250 4750 2034 4750 
z
" transform="scale(0.015625)"/>
       </defs>
       <use xlink:href="#DejaVuSans-30" transform="translate(0 0.78125)"/>
      </g>
     </g>
    </g>
   </g>
   <g id="matplotlib.axis_2"/>
   <g id="line2d_2">
    <path d="M 73.832727 303.173492 
L 77.112066 302.537179 
L 80.391405 301.821732 
L 83.670744 301.01954 
L 86.950083 300.122642 
L 90.229421 299.122766 
L 93.50876 298.011393 
L 96.788099 296.779821 
L 100.067438 295.41925 
L 103.346777 293.920873 
L 106.626116 292.275986 
L 109.905455 290.476098 
L 113.184793 288.513065 
L 116.464132 286.379227 
L 119.743471 284.067553 
L 123.02281 281.571794 
L 126.302149 278.886645 
L 129.581488 276.007904 
L 132.860826 272.932636 
L 136.140165 269.659337 
L 139.419504 266.188085 
L 142.698843 262.520693 
L 145.978182 258.660845 
L 149.257521 254.614225 
L 152.53686 250.388616 
L 155.816198 245.993998 
L 159.095537 241.442601 
L 162.374876 236.74895 
L 165.654215 231.929867 
L 168.933554 227.004454 
L 172.212893 221.994029 
L 175.492231 216.922034 
L 178.77157 211.813908 
L 182.050909 206.696921 
L 185.330248 201.599967 
L 188.609587 196.553328 
L 191.888926 191.588402 
L 195.168264 186.737398 
L 198.447603 182.033008 
L 201.726942 177.508051 
L 205.006281 173.195099 
L 208.28562 169.126098 
L 211.564959 165.331972 
L 214.844298 161.842238 
L 218.123636 158.684619 
L 221.402975 155.884681 
L 224.682314 153.465483 
L 227.961653 151.447264 
L 231.240992 149.84716 
L 234.520331 148.678958 
L 237.799669 147.952905 
L 241.079008 147.675561 
L 244.358347 147.8497 
L 247.637686 148.474273 
L 250.917025 149.544424 
L 254.196364 151.051554 
L 257.475702 152.983449 
L 260.755041 155.324446 
L 264.03438 158.055655 
L 267.313719 161.155216 
L 270.593058 164.598597 
L 273.872397 168.358922 
L 277.151736 172.40732 
L 280.431074 176.713294 
L 283.710413 181.245105 
L 286.989752 185.970152 
L 290.269091 190.85536 
L 293.54843 195.867555 
L 296.827769 200.973821 
L 300.107107 206.141851 
L 303.386446 211.340267 
L 306.665785 216.538909 
L 309.945124 221.709106 
L 313.224463 226.823904 
L 316.503802 231.858268 
L 319.78314 236.789239 
L 323.062479 241.596065 
L 326.341818 246.260291 
L 329.621157 250.765814 
L 332.900496 255.098907 
L 336.179835 259.248206 
L 339.459174 263.204672 
L 342.738512 266.961522 
L 346.017851 270.514138 
L 349.29719 273.859951 
L 352.576529 276.998311 
L 355.855868 279.930336 
L 359.135207 282.658751 
L 362.414545 285.187724 
L 365.693884 287.522691 
L 368.973223 289.670177 
L 372.252562 291.637623 
L 375.531901 293.433215 
L 378.81124 295.065719 
L 382.090579 296.54432 
L 385.369917 297.878479 
L 388.649256 299.077794 
L 391.928595 300.151878 
L 395.207934 301.110245 
L 398.487273 301.962221 
" clip-path="url(#p7a31c8d74c)" style="fill: none; stroke: #ff0000; stroke-width: 1.5; stroke-linecap: square"/>
   </g>
   <g id="line2d_3">
    <path d="M 241.219387 307.584 
L 241.219387 41.472 
" clip-path="url(#p7a31c8d74c)" style="fill: none; stroke-dasharray: 1,1.65; stroke-dashoffset: 0; stroke: #000000"/>
   </g>
  </g>
 </g>
 <defs>
  <clipPath id="p7a31c8d74c">
   <rect x="57.6" y="41.472" width="357.12" height="266.112"/>
  </clipPath>
 </defs>
</svg>
