<?xml version="1.0" encoding="UTF-8"?>
<svg xmlns="http://www.w3.org/2000/svg" xmlns:xlink="http://www.w3.org/1999/xlink" width="90.959999pt" height="133.919998pt" viewBox="0 0 90.959999 133.919998">
<rect x="-9.096" y="-13.392" width="109.151999" height="160.703998" fill="rgb(100%, 100%, 100%)" fill-opacity="1"/>
<path fill-rule="nonzero" fill="rgb(100%, 100%, 100%)" fill-opacity="1" stroke-width="1" stroke-linecap="butt" stroke-linejoin="miter" stroke="rgb(0%, 0%, 0%)" stroke-opacity="1" stroke-miterlimit="4" d="M 200.003261 159.995302 C 200.003261 161.311451 199.937453 162.618198 199.805838 163.924946 C 199.683625 165.222293 199.486202 166.519639 199.232374 167.807585 C 198.978545 169.086129 198.658909 170.355272 198.273465 171.615015 C 197.897423 172.865356 197.455573 174.096895 196.957317 175.309632 C 196.449659 176.512968 195.894997 177.697502 195.274527 178.853832 C 194.663458 180.010163 193.986581 181.128889 193.262699 182.219412 C 192.529417 183.309935 191.749128 184.362854 190.921835 185.378169 C 190.08514 186.384083 189.210842 187.361793 188.280137 188.283097 C 187.358833 189.213802 186.390523 190.088101 185.375209 190.924796 C 184.359894 191.752089 183.316376 192.532377 182.225853 193.256259 C 181.13533 193.989542 180.007202 194.657017 178.860273 195.277487 C 177.703942 195.897957 176.519408 196.45262 175.306671 196.950876 C 174.093934 197.458533 172.862395 197.900383 171.612054 198.276426 C 170.361713 198.661869 169.092569 198.972104 167.804624 199.235334 C 166.516679 199.489163 165.228733 199.677184 163.921985 199.808799 C 162.615238 199.940414 161.30849 199.99682 160.001743 199.99682 C 158.685594 199.99682 157.378846 199.940414 156.0815 199.808799 C 154.774752 199.677184 153.477406 199.489163 152.198861 199.235334 C 150.910916 198.972104 149.641773 198.661869 148.391431 198.276426 C 147.131689 197.900383 145.90015 197.458533 144.696814 196.950876 C 143.484077 196.45262 142.299543 195.897957 141.143213 195.277487 C 139.986882 194.657017 138.868156 193.989542 137.777633 193.256259 C 136.687109 192.532377 135.63419 191.752089 134.628277 190.924796 C 133.612962 190.088101 132.644653 189.213802 131.713948 188.283097 C 130.792644 187.361793 129.908944 186.384083 129.08165 185.378169 C 128.244956 184.362854 127.464668 183.309935 126.740786 182.219412 C 126.016904 181.128889 125.340028 180.010163 124.719558 178.853832 C 124.108489 177.697502 123.544425 176.512968 123.046169 175.309632 C 122.547912 174.096895 122.106062 172.865356 121.720619 171.615015 C 121.344576 170.355272 121.02494 169.086129 120.771112 167.807585 C 120.517283 166.519639 120.319861 165.222293 120.188246 163.924946 C 120.066032 162.618198 120.000225 161.311451 120.000225 159.995302 C 120.000225 158.688555 120.066032 157.381807 120.188246 156.075059 C 120.319861 154.777713 120.517283 153.480366 120.771112 152.192421 C 121.02494 150.913876 121.344576 149.644733 121.720619 148.384991 C 122.106062 147.13465 122.547912 145.90311 123.046169 144.690374 C 123.544425 143.477637 124.108489 142.302504 124.719558 141.146173 C 125.340028 139.989843 126.016904 138.871116 126.740786 137.780593 C 127.464668 136.69007 128.244956 135.637151 129.08165 134.621836 C 129.908944 133.615923 130.792644 132.638212 131.713948 131.716908 C 132.644653 130.786203 133.612962 129.911904 134.628277 129.07521 C 135.63419 128.247916 136.687109 127.467628 137.777633 126.743746 C 138.868156 126.010464 139.986882 125.342988 141.143213 124.722518 C 142.299543 124.102048 143.484077 123.547385 144.696814 123.049129 C 145.90015 122.541472 147.131689 122.099622 148.391431 121.723579 C 149.641773 121.338136 150.910916 121.027901 152.198861 120.764671 C 153.477406 120.510843 154.774752 120.322821 156.0815 120.191206 C 157.378846 120.059592 158.685594 120.003185 160.001743 120.003185 C 161.30849 120.003185 162.615238 120.059592 163.921985 120.191206 C 165.228733 120.322821 166.516679 120.510843 167.804624 120.764671 C 169.092569 121.027901 170.361713 121.338136 171.612054 121.723579 C 172.862395 122.099622 174.093934 122.541472 175.306671 123.049129 C 176.519408 123.547385 177.703942 124.102048 178.860273 124.722518 C 180.007202 125.342988 181.13533 126.010464 182.225853 126.743746 C 183.316376 127.467628 184.359894 128.247916 185.375209 129.07521 C 186.390523 129.911904 187.358833 130.786203 188.280137 131.716908 C 189.210842 132.638212 190.08514 133.615923 190.921835 134.621836 C 191.749128 135.637151 192.529417 136.69007 193.262699 137.780593 C 193.986581 138.871116 194.663458 139.989843 195.274527 141.146173 C 195.894997 142.302504 196.449659 143.477637 196.957317 144.690374 C 197.455573 145.90311 197.897423 147.13465 198.273465 148.384991 C 198.658909 149.644733 198.978545 150.913876 199.232374 152.192421 C 199.486202 153.480366 199.683625 154.777713 199.805838 156.075059 C 199.937453 157.381807 200.003261 158.688555 200.003261 159.995302 Z M 200.003261 159.995302 " transform="matrix(0.415512, 0, 0, 0.415512, -20.904451, 0.660725)"/>
<path fill-rule="nonzero" fill="rgb(0%, 0%, 0%)" fill-opacity="1" stroke-width="13.683255" stroke-linecap="butt" stroke-linejoin="miter" stroke="rgb(0%, 0%, 0%)" stroke-opacity="0.0263" stroke-miterlimit="4" d="M 307.908457 23.944277 C 347.550699 23.944277 383.184176 41.315597 416.145141 76.058236 C 448.660688 110.800876 465.141171 150.888536 466.032008 197.212055 C 466.032008 239.08139 448.660688 268.033589 413.918049 284.068654 C 343.541933 301.885392 298.109251 314.357108 278.065421 321.038385 C 258.021591 327.719662 244.213618 334.400939 236.196086 341.082215 C 196.108426 369.143578 176.064595 409.231239 176.064595 461.790616 C 176.064595 502.769114 186.754638 539.738845 208.134724 573.145229 C 229.51481 606.551613 250.894895 631.495046 273.165818 647.975529 C 292.318811 664.456012 315.480571 677.818565 343.096515 688.06319 C 370.26704 697.862396 391.647126 703.207417 406.791354 704.098254 L 425.05351 704.098254 C 489.193767 704.098254 535.517286 682.718168 564.024067 639.957997 C 564.469486 639.957997 568.92367 644.412181 576.941202 652.875132 C 584.958734 661.783501 593.867104 671.137289 603.220891 681.827331 C 612.12926 692.517374 618.810537 700.089488 622.819303 704.098254 C 623.71014 704.098254 625.046395 704.098254 626.828069 704.098254 C 629.055161 704.098254 630.836835 704.543672 632.17309 704.989091 C 640.636041 704.989091 645.090226 702.761999 645.090226 697.862396 C 645.090226 693.408211 635.736438 652.875132 617.028863 577.153995 C 598.321288 500.98744 587.631245 461.790616 584.958734 459.118105 C 582.286224 456.445595 576.941202 455.554758 568.92367 456.000176 C 555.561117 456.000176 548.87984 459.118105 548.87984 464.908545 C 548.87984 468.917311 549.325258 472.480659 550.216095 475.15317 C 550.216095 476.934843 550.216095 483.170702 551.106932 493.860745 C 551.552351 504.550787 552.443187 513.459156 552.888606 520.140433 C 552.888606 542.856774 550.216095 562.455186 543.980237 578.935669 C 538.189797 595.86157 531.953939 607.887868 526.163499 615.9054 C 519.92764 623.922933 511.46469 632.385883 501.220065 640.848834 C 477.167469 655.102224 449.551525 661.783501 418.817652 661.783501 C 380.957083 661.783501 345.769026 646.639274 312.80806 615.9054 C 280.292513 585.171527 263.81203 549.98347 262.921193 509.895809 C 262.921193 489.851978 267.820796 472.480659 278.065421 457.78185 C 287.864627 443.528459 301.672599 432.838417 319.043918 427.047977 C 321.716429 425.711721 344.878189 419.475863 388.974615 407.894983 C 433.071042 396.759522 455.341965 390.523664 455.787383 390.078245 C 478.503724 382.506131 500.774647 366.471067 522.154733 341.973052 C 543.534818 317.475037 553.779443 284.068654 553.779443 242.199319 C 553.779443 224.827999 551.552351 206.120424 546.207329 186.076594 C 542.643982 171.377785 536.853542 154.897302 527.945173 137.080564 C 519.482222 118.818408 507.455924 99.219996 491.866278 77.83991 C 476.722051 56.459824 454.451128 36.861413 425.944347 18.153838 C 397.437566 -0.553737 365.812856 -13.470873 331.961054 -20.152149 C 323.943521 -21.488405 312.80806 -21.933823 298.109251 -21.933823 C 232.18732 -21.933823 180.51878 -3.671667 143.994467 32.852646 L 134.195261 43.988108 L 106.133898 12.808816 C 90.544252 -5.007922 81.190465 -15.252546 78.072536 -17.925057 C 74.509188 -20.597568 70.500422 -21.933823 65.155401 -21.933823 C 56.247032 -21.933823 51.792847 -19.261312 51.792847 -13.916291 C 51.792847 -12.134617 71.391259 66.25903 110.142664 220.819233 C 111.47892 224.827999 118.160197 227.055092 130.186495 227.055092 L 143.10363 227.055092 C 147.112396 223.046326 148.89407 219.482978 148.89407 215.91963 C 148.89407 214.583375 148.448651 211.465446 148.003233 207.011261 C 147.112396 202.111658 146.221559 195.430382 143.994467 186.076594 C 142.212793 176.722807 141.321956 165.587345 142.212793 153.115629 C 143.549048 126.83594 149.339488 105.010436 160.029531 87.193698 C 170.719574 68.931541 184.972964 55.568988 202.789702 47.106037 C 221.051859 38.197668 238.423179 32.407228 254.903661 28.84388 C 271.829563 25.725951 289.200882 23.944277 307.908457 23.944277 Z M 307.908457 23.944277 " transform="matrix(0.00876984, 0, 0, -0.00876984, 40.799691, 69.377956)"/>
<path fill-rule="nonzero" fill="rgb(0%, 0%, 0%)" fill-opacity="1" stroke-width="19.353966" stroke-linecap="butt" stroke-linejoin="miter" stroke="rgb(0%, 0%, 0%)" stroke-opacity="0.0186" stroke-miterlimit="4" d="M 95.734859 584.977436 C 133.535575 639.158461 184.56654 666.248974 248.827756 666.248974 C 280.958364 666.248974 313.088972 657.428807 345.21958 639.788473 C 376.720176 622.778151 403.180677 591.907567 422.711046 547.806733 C 447.911523 492.365683 459.88175 416.764253 459.88175 319.742417 C 459.88175 216.420462 445.391476 137.668972 417.040939 82.857935 C 403.810689 55.13741 385.540343 32.456981 362.229902 16.076671 C 338.919461 -0.933651 318.129067 -11.013841 301.118746 -14.793913 C 283.478412 -19.203996 266.46809 -21.094032 250.08778 -21.724044 C 232.447446 -21.724044 215.437124 -19.834008 197.796791 -16.053937 C 180.786469 -12.273865 160.626087 -1.563663 136.685634 16.076671 C 113.375193 33.086993 95.104847 55.767422 81.874597 82.857935 C 53.524061 137.668972 39.033786 216.420462 39.033786 319.742417 C 39.033786 436.294622 57.934144 524.496291 95.734859 584.977436 Z M 321.279127 596.947662 C 301.118746 618.368068 277.178293 629.07827 250.08778 629.07827 C 221.737244 629.07827 197.796791 618.368068 178.266421 596.947662 C 161.256099 579.93734 150.545896 555.366876 144.875789 525.126303 C 139.835694 494.255719 136.685634 430.624515 136.685634 332.972667 C 136.685634 227.760677 139.835694 158.459365 144.875789 125.068733 C 150.545896 91.678102 162.516123 65.217601 180.786469 45.687231 C 199.686826 26.156862 222.367255 16.076671 250.08778 16.076671 C 276.548281 16.076671 299.22871 26.156862 318.129067 45.687231 C 337.029425 65.847613 349.629664 94.198149 354.039747 130.108829 C 358.44983 166.019508 361.59989 233.430784 362.229902 332.972667 C 362.229902 429.364491 359.079842 493.625707 354.039747 523.86628 C 348.36964 554.736864 337.659437 579.307329 321.279127 596.947662 Z M 321.279127 596.947662 " transform="matrix(0.00620028, 0, 0, -0.00620028, 46.465011, 70.69343)"/>
<path fill-rule="nonzero" fill="rgb(0%, 0%, 0%)" fill-opacity="1" stroke-width="13.678498" stroke-linecap="butt" stroke-linejoin="miter" stroke="rgb(0%, 0%, 0%)" stroke-opacity="0.0263" stroke-miterlimit="4" d="M 212.818379 577.973623 L 199.905734 573.075723 C 190.555198 569.513614 177.19729 566.396769 159.832009 562.83466 C 142.466728 559.717814 123.320393 557.491496 101.947739 556.155705 L 82.801404 556.155705 L 82.801404 602.017858 L 101.947739 602.017858 C 133.116192 603.353649 162.503591 608.251548 189.219408 617.156821 C 215.489961 625.616829 234.191033 633.631574 244.877359 641.201056 C 255.563686 648.325273 264.914222 655.449491 272.928967 663.018973 C 274.264758 664.800027 278.27213 666.135818 284.951085 666.135818 C 291.184775 666.135818 296.527938 663.9095 301.871102 659.902127 L 301.871102 361.130243 L 303.206893 61.022567 C 307.659529 56.124668 311.666901 53.453086 314.783747 52.117295 C 318.345856 50.781504 326.360601 49.445713 338.827982 48.109922 C 351.740627 46.774132 372.222753 45.883604 401.164888 45.883604 L 426.990177 45.883604 L 426.990177 0.0214522 L 415.858587 0.0214522 C 402.055415 1.802507 349.069045 3.138298 256.899477 3.138298 C 166.510963 3.138298 113.969857 1.802507 100.166685 0.0214522 L 88.144567 0.0214522 L 88.144567 45.883604 L 113.969857 45.883604 C 128.663556 45.883604 141.130937 45.883604 151.817264 45.883604 C 162.503591 45.883604 170.963599 46.328868 177.19729 47.219395 C 182.985717 47.664659 188.32888 48.555186 192.781517 49.890977 C 197.679416 51.226768 200.350998 52.117295 200.796262 52.117295 C 201.686789 52.117295 203.467843 53.453086 207.029952 57.015195 C 210.146797 60.13204 212.373116 61.467831 212.818379 61.022567 Z M 212.818379 577.973623 " transform="matrix(0.00877289, 0, 0, -0.00877289, 23.76578, 44.449407)"/>
<path fill-rule="nonzero" fill="rgb(0%, 0%, 0%)" fill-opacity="1" stroke-width="13.678498" stroke-linecap="butt" stroke-linejoin="miter" stroke="rgb(0%, 0%, 0%)" stroke-opacity="0.0263" stroke-miterlimit="4" d="M 77.934487 60.13204 C 77.934487 76.16153 83.722914 89.964702 94.854505 101.98682 C 106.431359 114.008937 120.679794 119.797364 138.045075 119.797364 C 154.074565 119.797364 167.877737 114.454201 179.899855 104.213138 C 191.921973 93.526811 198.155663 78.833112 199.04619 61.022567 C 199.04619 44.547814 193.257763 29.854114 182.126173 17.831997 C 170.549319 5.809879 156.300883 0.0214522 138.935603 0.0214522 C 121.570322 0.0214522 107.321886 5.809879 96.190296 16.94147 C 84.613442 28.518323 78.825015 42.766759 77.934487 60.13204 Z M 77.934487 60.13204 " transform="matrix(0.00877289, 0, 0, -0.00877289, 28.152227, 44.449407)"/>
<path fill-rule="nonzero" fill="rgb(0%, 0%, 0%)" fill-opacity="1" stroke-width="13.678498" stroke-linecap="butt" stroke-linejoin="miter" stroke="rgb(0%, 0%, 0%)" stroke-opacity="0.0263" stroke-miterlimit="4" d="M 54.863322 507.176708 C 54.863322 562.389396 74.009657 609.142075 111.857064 646.989483 C 150.149735 684.83689 193.785569 703.983225 243.20983 703.983225 L 257.013002 703.983225 C 313.561481 703.983225 362.985742 683.055835 404.840522 641.201056 L 426.213175 671.924245 C 429.330021 676.822145 432.446866 681.720044 436.008975 687.063208 C 439.12582 692.406371 442.687929 696.859007 445.804774 699.975853 L 448.92162 703.983225 C 449.812147 703.983225 451.147938 703.983225 452.928992 703.983225 C 455.15531 703.983225 456.936365 704.428489 459.162683 704.873752 L 463.170055 704.873752 C 464.95111 704.873752 468.067955 703.092698 472.075328 699.085325 L 472.075328 462.205083 L 465.841637 455.971392 L 448.031092 455.971392 C 440.461611 455.971392 436.454238 456.86192 435.118448 459.088238 C 433.782657 460.869292 432.001602 467.548246 430.220548 479.1251 C 418.643694 562.83466 384.803659 618.492611 329.145708 646.098955 C 304.210945 656.785282 279.276183 662.128445 253.896157 662.128445 C 218.720331 662.128445 189.778197 650.106328 167.96028 626.062093 C 146.142362 602.017858 135.010772 573.96625 135.010772 541.90727 C 135.010772 519.198826 140.799199 498.716699 151.930789 480.015628 C 163.507643 461.314556 179.537133 446.175593 200.01926 435.044003 C 206.698214 432.372421 235.195085 424.802939 285.955137 411.890295 C 336.715189 399.422914 364.766797 391.853432 370.10996 389.18185 C 407.957367 374.488151 439.12582 349.553389 463.170055 313.9323 C 487.21429 278.756474 499.236408 237.792222 500.126935 191.039542 C 500.126935 137.162645 482.761654 88.183648 448.031092 44.993077 C 413.300531 1.802507 364.321533 -20.460674 301.0941 -20.905938 C 263.691956 -20.905938 230.297185 -15.117511 200.909787 -3.98592 C 171.522388 7.14567 151.485526 17.831997 139.908672 27.182533 L 122.098127 40.985705 C 119.426546 37.868859 114.528646 31.189905 106.959164 20.948842 C 99.834947 11.153043 93.155992 1.802507 86.922302 -7.102766 C 81.133875 -15.562774 78.01703 -20.460674 78.01703 -20.905938 C 76.681239 -21.796465 73.11913 -21.796465 68.22123 -21.796465 L 64.213858 -21.796465 C 61.987539 -21.796465 58.870694 -20.01541 54.863322 -16.008038 L 54.863322 101.096292 C 54.863322 180.353216 55.308585 220.872205 56.199113 222.207995 C 57.534903 225.324841 64.213858 227.105895 75.790712 227.105895 L 89.14862 227.105895 C 93.155992 223.098523 94.937047 218.645886 94.937047 214.19325 C 94.937047 192.820597 98.499156 171.447943 105.17811 150.965817 C 111.857064 130.483691 122.988655 110.001565 139.018145 89.964702 C 155.047635 69.92784 176.865552 53.898349 204.917159 41.876232 C 232.968767 29.854114 266.363538 24.065687 305.101472 24.065687 C 336.269925 24.065687 363.431006 36.533069 386.13945 61.913094 C 408.847894 87.29312 419.979485 118.461573 419.979485 154.97319 C 419.979485 183.470061 412.855267 209.740614 398.161568 232.894322 C 383.467868 256.493294 363.876269 272.522784 339.832034 280.982792 C 302.875154 290.333328 277.940392 296.567019 265.918274 300.129128 C 262.801429 300.574391 253.450893 302.800709 239.202458 305.917555 C 224.508758 309.479664 213.377168 312.151245 205.807687 313.9323 C 198.683469 316.158618 187.997142 319.720727 174.19397 325.06389 C 159.945534 330.407053 148.813944 336.19548 140.799199 342.874435 C 132.784454 349.553389 123.433918 357.568134 111.857064 366.91867 C 100.725474 376.269206 91.820202 387.84606 85.141247 402.094495 C 65.104385 434.598739 54.863322 469.774564 54.863322 507.176708 Z M 54.863322 507.176708 " transform="matrix(0.00877289, 0, 0, -0.00877289, 32.784315, 44.449407)"/>
<path fill-rule="nonzero" fill="rgb(0%, 0%, 0%)" fill-opacity="1" stroke-width="13.678498" stroke-linecap="butt" stroke-linejoin="miter" stroke="rgb(0%, 0%, 0%)" stroke-opacity="0.0263" stroke-miterlimit="4" d="M 27.836944 218.200623 C 27.836944 254.712239 34.515898 288.10701 47.873807 317.939672 C 61.231715 348.217598 78.151732 372.261833 98.188595 390.962905 C 117.780194 409.663977 139.598111 423.467149 163.197083 432.817685 C 186.35079 442.16822 208.168708 447.511384 229.096097 447.956647 C 264.271923 447.956647 294.549849 442.16822 319.929875 430.146103 C 345.3099 418.123985 364.456236 401.203968 377.814144 379.831315 C 391.172053 358.458661 400.522589 337.531271 405.865752 316.158618 C 411.208915 294.785964 414.325761 271.186993 415.216288 244.91644 C 415.216288 240.463804 412.544706 235.565904 408.09207 231.113268 L 125.794939 231.113268 L 125.794939 215.974305 C 125.794939 117.125783 159.18971 57.460458 225.979252 36.087805 C 239.33716 32.080432 254.03086 29.854114 270.06035 29.854114 C 298.111957 29.854114 322.156193 40.540441 342.193055 61.913094 C 353.324646 73.489948 362.229918 87.29312 368.908872 104.213138 L 379.149935 127.812109 C 380.93099 130.038427 386.274153 130.928955 395.179425 130.928955 L 397.851007 130.928955 C 409.427861 130.928955 415.216288 127.812109 415.216288 121.133155 C 415.216288 118.461573 413.880497 114.008937 412.099443 108.22051 C 399.186798 71.26363 378.259408 42.321495 348.872009 20.948842 C 319.484611 -0.423811 286.535104 -11.110138 250.023487 -11.110138 C 186.796054 -11.110138 133.809684 12.04357 91.954904 57.905722 C 50.100125 104.213138 28.727471 157.199508 27.836944 218.200623 Z M 332.842519 275.194365 C 325.718301 360.239716 294.104585 405.656604 238.00137 410.999767 L 236.220315 410.999767 C 230.877152 410.999767 225.533988 410.554504 220.190825 410.10924 C 214.847662 409.218713 206.387653 406.547131 194.810799 402.094495 C 183.679209 397.196595 173.883409 390.517641 165.868664 381.167105 C 157.853919 371.816569 150.284438 358.013397 143.16022 340.202853 C 135.590739 321.947045 130.247575 300.129128 127.13073 273.858575 L 127.13073 267.17962 L 332.842519 267.17962 Z M 332.842519 275.194365 " transform="matrix(0.00877289, 0, 0, -0.00877289, 37.662039, 44.449407)"/>
<path fill-rule="nonzero" fill="rgb(0%, 0%, 0%)" fill-opacity="1" stroke-width="13.678498" stroke-linecap="butt" stroke-linejoin="miter" stroke="rgb(0%, 0%, 0%)" stroke-opacity="0.0263" stroke-miterlimit="4" d="M 42.013026 45.883604 L 55.816198 45.883604 C 82.086752 45.883604 97.670978 50.781504 103.014141 60.13204 L 103.014141 68.146785 C 103.014141 73.935212 103.014141 81.504693 103.014141 90.855229 C 103.014141 100.205765 103.014141 111.337356 103.014141 123.804737 C 103.014141 136.717382 103.459405 150.965817 103.904669 166.995307 C 104.795196 183.024797 104.795196 199.499551 103.904669 216.864832 C 103.459405 234.230113 103.459405 252.485921 103.904669 272.07752 C 104.795196 291.223855 104.795196 310.370191 103.904669 329.071263 C 103.904669 353.560761 103.904669 379.831315 103.904669 406.992395 C 103.904669 434.153475 103.904669 459.533501 103.904669 481.796682 C 103.904669 504.505126 103.904669 524.541989 103.904669 541.90727 C 103.904669 559.272551 103.459405 573.96625 103.014141 585.988368 C 102.123614 598.010485 102.123614 603.798912 103.014141 602.908385 C 100.787823 615.82103 96.335187 623.835775 89.210969 627.843147 C 81.641488 631.85052 66.502525 634.967365 43.794081 637.193683 L 25.983536 637.193683 L 25.983536 659.902127 C 25.983536 675.486354 26.874064 683.055835 28.209854 683.055835 L 38.005654 683.946363 C 44.684608 684.83689 54.480408 685.282153 66.947789 686.172681 C 79.860434 686.617944 91.882551 687.508471 103.904669 687.953735 C 115.481523 688.844262 127.50364 689.289526 140.861549 690.180053 C 154.219457 690.625317 164.46052 691.515844 171.139474 692.851635 C 177.818429 694.187426 181.380537 694.632689 181.825801 694.187426 L 184.942646 694.187426 L 184.942646 378.940787 C 184.942646 167.885835 185.38791 61.467831 185.833174 60.13204 C 188.504755 54.788877 192.512128 50.781504 197.855291 49.00045 C 212.103727 47.219395 228.133217 45.883604 246.834289 45.883604 L 262.863779 45.883604 L 262.863779 0.0214522 L 254.849034 0.0214522 L 232.140589 0.911979 C 216.556363 1.802507 200.526873 1.802507 183.161592 1.802507 C 165.796311 1.802507 152.883666 2.24777 144.868921 3.138298 C 136.854176 3.583561 124.386795 3.583561 107.021514 3.138298 C 89.656233 2.24777 73.181479 1.802507 57.151989 0.911979 L 33.998281 0.0214522 L 25.983536 0.0214522 L 25.983536 45.883604 Z M 42.013026 45.883604 " transform="matrix(0.00877289, 0, 0, -0.00877289, 41.557205, 44.449407)"/>
<path fill-rule="nonzero" fill="rgb(0%, 0%, 0%)" fill-opacity="1" stroke-width="13.678498" stroke-linecap="butt" stroke-linejoin="miter" stroke="rgb(0%, 0%, 0%)" stroke-opacity="0.0263" stroke-miterlimit="4" d="M 28.054205 218.200623 C 28.054205 254.712239 34.733159 288.10701 48.091067 317.939672 C 61.448976 348.217598 77.923729 372.261833 97.960592 390.962905 C 117.997455 409.663977 139.815372 423.467149 162.96908 432.817685 C 186.122787 442.16822 208.385968 447.511384 228.868094 447.956647 C 264.489183 447.956647 294.767109 442.16822 320.147135 430.146103 C 345.527161 418.123985 364.673496 401.203968 378.031405 379.831315 C 391.389313 358.458661 400.739849 337.531271 406.083013 316.158618 C 411.426176 294.785964 414.543021 271.186993 414.988285 244.91644 C 414.988285 240.463804 412.761967 235.565904 407.864067 231.113268 L 126.0122 231.113268 L 126.0122 215.974305 C 126.0122 117.125783 159.406971 57.460458 226.196513 36.087805 C 239.554421 32.080432 253.802857 29.854114 269.832347 29.854114 C 297.883954 29.854114 321.92819 40.540441 341.965052 61.913094 C 353.541906 73.489948 362.447178 87.29312 369.126133 104.213138 L 378.921932 127.812109 C 381.14825 130.038427 386.491414 130.928955 394.951422 130.928955 L 398.068267 130.928955 C 409.199858 130.928955 414.988285 127.812109 414.988285 121.133155 C 414.988285 118.461573 414.097758 114.008937 411.871439 108.22051 C 399.404058 71.26363 378.476668 42.321495 349.08927 20.948842 C 319.701871 -0.423811 286.752364 -11.110138 249.795484 -11.110138 C 186.568051 -11.110138 134.026945 12.04357 92.172165 57.905722 C 49.872122 104.213138 28.499468 157.199508 28.054205 218.200623 Z M 333.05978 275.194365 C 325.490298 360.239716 293.876582 405.656604 238.21863 410.999767 L 235.992312 410.999767 C 230.649149 410.999767 225.305985 410.554504 219.962822 410.10924 C 214.619659 409.218713 206.15965 406.547131 195.02806 402.094495 C 183.451206 397.196595 174.10067 390.517641 166.085925 381.167105 C 158.07118 371.816569 150.501698 358.013397 142.932217 340.202853 C 135.807999 321.947045 130.464836 300.129128 126.902727 273.858575 L 126.902727 267.17962 L 333.05978 267.17962 Z M 333.05978 275.194365 " transform="matrix(0.00877289, 0, 0, -0.00877289, 43.996071, 44.449407)"/>
<path fill-rule="nonzero" fill="rgb(0%, 0%, 0%)" fill-opacity="1" stroke-width="13.678498" stroke-linecap="butt" stroke-linejoin="miter" stroke="rgb(0%, 0%, 0%)" stroke-opacity="0.0263" stroke-miterlimit="4" d="M 369.944826 305.027027 C 369.944826 305.027027 362.820608 305.027027 349.017436 305.027027 C 335.214264 305.027027 323.192147 309.924927 312.951084 320.16599 C 303.155284 329.96179 297.812121 342.874435 296.921594 358.013397 C 296.921594 373.15236 301.819493 386.065005 312.060557 395.860805 C 315.177402 399.422914 316.958456 401.203968 316.958456 402.094495 C 316.958456 402.539759 313.841611 403.430286 307.162657 403.87555 C 289.797376 406.547131 273.322622 407.882922 258.183659 407.882922 C 225.234152 407.882922 198.518335 397.196595 178.036209 375.823942 C 146.867756 344.655489 130.838266 292.114383 130.838266 219.09115 C 130.838266 164.323726 141.524593 121.133155 162.006719 89.964702 C 189.167799 49.445713 226.124679 28.963587 271.986831 28.963587 C 299.147912 28.963587 321.411092 37.868859 337.885846 54.788877 C 354.805863 72.154158 366.827981 93.081547 373.952199 117.125783 C 375.28799 122.468946 377.069044 125.585791 378.850099 126.921582 C 381.076417 128.257373 386.41958 129.1479 394.879589 129.1479 L 409.128024 129.1479 C 413.135397 125.140528 414.916451 122.023682 414.916451 119.797364 C 414.916451 117.125783 413.58066 111.782619 410.909079 104.213138 C 408.237497 96.198393 402.894334 85.066802 394.879589 70.818367 C 386.864844 57.015195 377.514308 44.547814 365.937454 32.97096 C 354.805863 21.839369 338.776373 11.153043 317.848984 1.802507 C 297.366857 -7.548029 274.213149 -11.555402 248.833123 -11.110138 C 191.839381 -11.110138 141.524593 10.262515 98.779286 53.007822 C 56.479242 95.753129 34.661325 149.184763 34.216062 214.19325 C 34.216062 283.20911 55.588715 339.757589 98.779286 382.94816 C 142.41512 426.13873 192.729908 447.956647 250.168914 447.956647 C 307.162657 447.956647 347.236382 439.051375 369.944826 420.795567 C 392.653271 402.985022 403.784861 381.612369 403.784861 357.12287 C 403.784861 341.538644 398.441698 329.516526 386.864844 320.16599 Z M 369.944826 305.027027 " transform="matrix(0.00877289, 0, 0, -0.00877289, 47.891232, 44.449407)"/>
<path fill-rule="nonzero" fill="rgb(0%, 0%, 0%)" fill-opacity="1" stroke-width="13.678498" stroke-linecap="butt" stroke-linejoin="miter" stroke="rgb(0%, 0%, 0%)" stroke-opacity="0.0263" stroke-miterlimit="4" d="M 27.019463 422.131358 C 62.195289 424.802939 89.801633 443.504011 108.947968 477.78931 C 128.539567 512.519871 138.78063 553.484124 141.006948 599.79154 L 141.006948 614.930502 L 181.080674 614.930502 L 181.080674 431.03663 L 315.995548 431.03663 L 315.995548 385.174478 L 181.080674 385.174478 L 181.080674 240.909067 C 181.525937 157.644771 181.971201 110.446828 181.971201 100.205765 C 181.971201 89.519439 184.197519 78.833112 189.095419 68.146785 C 198.445954 41.876232 214.475445 28.963587 238.074416 28.963587 C 267.461815 28.963587 285.272359 52.562559 291.951313 100.205765 C 292.841841 105.548929 292.841841 120.687891 292.841841 146.067917 L 292.841841 180.798479 L 332.915566 180.798479 L 332.915566 134.0458 C 332.915566 82.840484 319.112394 43.657286 291.060786 16.94147 C 272.804978 -0.869075 249.65127 -10.219611 221.154399 -10.219611 C 198.445954 -10.219611 178.854355 -6.212238 161.934338 1.802507 C 145.459584 9.817252 132.54694 20.503578 124.086931 32.97096 C 115.181659 45.883604 108.947968 57.460458 104.940596 68.146785 C 100.933223 78.833112 98.706905 89.519439 97.816378 100.205765 C 97.371114 104.658401 96.925851 154.082662 96.925851 248.033285 L 96.925851 385.174478 L 18.114191 385.174478 L 18.114191 422.131358 Z M 27.019463 422.131358 " transform="matrix(0.00877289, 0, 0, -0.00877289, 51.786399, 44.449407)"/>
<path fill-rule="nonzero" fill="rgb(0%, 0%, 0%)" fill-opacity="1" stroke-width="13.678498" stroke-linecap="butt" stroke-linejoin="miter" stroke="rgb(0%, 0%, 0%)" stroke-opacity="0.0263" stroke-miterlimit="4" d="M 69.034309 609.142075 C 69.034309 627.843147 74.822736 642.536847 86.844854 652.77791 C 98.866971 663.464236 113.56067 668.8074 130.925951 668.8074 C 146.510178 667.471609 159.868086 662.128445 170.999676 651.887382 C 182.131267 642.091583 187.919694 627.843147 187.919694 609.142075 C 187.919694 589.105213 182.131267 573.96625 170.999676 564.170451 C 159.868086 553.929387 145.61965 549.031488 129.144897 549.031488 C 112.224879 549.031488 98.421707 553.929387 86.844854 564.170451 C 75.713263 573.96625 69.479573 589.105213 69.034309 609.142075 Z M 247.139754 0.0214522 C 236.898691 1.802507 202.168129 3.138298 142.948069 3.138298 C 135.823851 3.138298 123.35647 3.138298 105.991189 3.138298 C 88.625908 3.138298 72.151154 2.24777 56.121664 0.911979 L 33.858483 0.0214522 L 25.843738 0.0214522 L 25.843738 45.883604 L 41.873229 45.883604 C 60.5743 45.883604 77.049054 47.219395 90.852226 49.00045 C 97.085917 51.672031 100.648026 55.23414 101.983816 60.13204 C 103.319607 64.584676 104.210134 78.833112 104.210134 101.98682 L 104.210134 293.00491 C 104.210134 327.735472 103.319607 349.553389 101.983816 358.903925 C 100.648026 368.254461 96.195389 374.488151 88.180644 378.05026 C 78.830108 382.502896 62.800618 385.174478 40.982701 385.174478 L 29.851111 385.174478 L 29.851111 407.882922 C 29.851111 423.467149 30.741638 431.03663 32.077429 431.03663 L 41.873229 431.927157 C 48.552183 432.817685 57.902719 433.262948 69.924836 434.153475 C 81.946954 434.598739 93.969071 435.489266 105.991189 435.93453 C 117.122779 436.825057 129.144897 437.270321 142.057542 438.160848 C 154.524923 438.606112 164.320722 439.496639 170.999676 440.83243 C 177.678631 442.16822 181.24074 442.613484 182.131267 442.16822 L 184.802848 442.16822 L 184.802848 61.913094 C 188.364957 55.23414 192.37233 51.226768 196.824966 49.890977 C 201.722866 48.555186 213.29972 47.219395 232.000792 45.883604 L 255.154499 45.883604 L 255.154499 0.0214522 Z M 247.139754 0.0214522 " transform="matrix(0.00877289, 0, 0, -0.00877289, 55.199057, 44.449407)"/>
<path fill-rule="nonzero" fill="rgb(0%, 0%, 0%)" fill-opacity="1" stroke-width="13.678498" stroke-linecap="butt" stroke-linejoin="miter" stroke="rgb(0%, 0%, 0%)" stroke-opacity="0.0263" stroke-miterlimit="4" d="M 40.827599 45.883604 L 55.076034 45.883604 C 80.901324 45.883604 96.48555 50.781504 101.828714 60.13204 L 101.828714 68.146785 C 101.828714 73.935212 101.828714 81.504693 101.828714 90.855229 C 101.828714 100.205765 101.828714 110.446828 101.828714 122.023682 C 101.828714 133.155273 102.273977 146.513181 103.164505 161.20688 C 103.609768 175.455316 103.609768 189.703752 103.164505 203.06166 C 103.164505 223.543786 103.164505 245.806967 103.164505 268.960675 C 103.164505 292.114383 102.719241 312.151245 101.828714 328.180735 L 101.828714 350.88918 C 100.047659 363.801824 95.14976 371.816569 88.025542 375.823942 C 80.45606 379.831315 65.762361 382.94816 43.053917 385.174478 L 24.798109 385.174478 L 24.798109 407.882922 C 24.798109 423.467149 25.688636 431.03663 27.024427 431.03663 L 36.820226 431.927157 C 43.49918 432.817685 52.849716 433.262948 64.871834 434.153475 C 76.893951 434.598739 89.361333 435.489266 101.828714 435.93453 C 113.405568 436.825057 125.427685 437.270321 137.895066 438.160848 C 150.807711 438.606112 160.158247 439.496639 166.837201 440.83243 C 173.516156 442.16822 177.523528 442.613484 177.968792 442.16822 L 181.085637 442.16822 L 181.085637 402.094495 C 181.085637 376.714469 181.530901 363.801824 181.976164 363.801824 C 182.866691 363.801824 184.202482 365.582879 186.874064 369.144988 C 189.545646 372.261833 193.553018 377.159733 198.896182 383.838687 C 204.239345 390.517641 210.473035 396.751332 218.042517 402.094495 C 225.166735 407.437659 234.962534 413.671349 246.984652 420.795567 C 259.006769 428.365048 271.474151 433.708212 284.832059 436.825057 C 298.189967 440.387166 315.555248 442.16822 336.037374 442.16822 C 412.177452 439.496639 454.477496 401.649232 462.937504 329.071263 C 463.828032 324.173363 463.828032 277.865947 463.828032 190.149015 L 463.828032 104.213138 C 463.828032 78.833112 464.718559 63.694149 466.05435 58.796249 C 467.39014 54.343613 470.952249 50.781504 477.18594 49.00045 C 490.989112 47.219395 507.463866 45.883604 526.164937 45.883604 L 542.194428 45.883604 L 542.194428 0.0214522 L 534.179682 0.0214522 L 510.135447 0.911979 C 494.551221 1.802507 478.076467 1.802507 459.820659 1.802507 C 442.010114 1.802507 429.542733 2.24777 421.973252 3.138298 C 353.402655 3.138298 316.000512 1.802507 310.212085 0.0214522 L 302.19734 0.0214522 L 302.19734 45.883604 L 317.781566 45.883604 C 358.745819 45.883604 378.782681 51.226768 378.782681 61.913094 C 379.673209 63.248885 380.118472 109.111038 380.118472 199.944815 C 379.227945 289.888065 378.782681 337.531271 377.892154 342.874435 C 373.884782 361.575506 367.205827 375.823942 357.855292 385.174478 C 348.504756 394.525014 340.490011 399.868177 333.811056 402.094495 C 327.132102 403.87555 318.672094 404.766077 307.985767 403.87555 C 278.153105 403.87555 251.882552 392.743959 229.174107 370.035515 C 210.918299 351.779707 199.786709 333.523899 194.888809 314.822827 C 190.436173 296.121755 187.764591 268.515411 186.874064 232.003795 L 186.874064 108.22051 C 186.874064 88.183648 187.319328 74.825739 188.209855 68.146785 C 188.655118 61.467831 189.545646 57.015195 190.881436 54.788877 C 192.217227 53.007822 195.334073 50.781504 199.786709 49.00045 C 214.035144 47.219395 230.509898 45.883604 249.21097 45.883604 L 264.795196 45.883604 L 264.795196 0.0214522 L 256.780451 0.0214522 L 234.072007 0.911979 C 218.042517 1.802507 201.1225 1.802507 182.866691 1.802507 C 165.056147 1.802507 152.143502 2.24777 145.019284 3.138298 C 76.448688 3.138298 39.046544 1.802507 32.812854 0.0214522 L 24.798109 0.0214522 L 24.798109 45.883604 Z M 40.827599 45.883604 " transform="matrix(0.00877289, 0, 0, -0.00877289, 57.637918, 44.449407)"/>
<path fill-rule="nonzero" fill="rgb(0%, 0%, 0%)" fill-opacity="1" stroke-width="13.678498" stroke-linecap="butt" stroke-linejoin="miter" stroke="rgb(0%, 0%, 0%)" stroke-opacity="0.0263" stroke-miterlimit="4" d="M 329.047394 409.218713 C 358.434793 438.160848 391.829564 452.854547 428.786444 452.854547 C 448.823306 452.854547 463.517006 446.620857 471.977014 434.153475 C 480.882287 421.240831 484.889659 408.773449 484.889659 395.860805 C 484.889659 386.510269 482.218077 378.495524 475.984387 370.926042 C 470.19596 363.801824 460.845424 359.794452 448.823306 359.794452 C 427.005389 359.794452 414.538008 370.035515 411.866427 390.072378 C 410.530636 399.422914 411.866427 406.547131 414.983272 410.999767 C 414.983272 411.445031 415.428535 412.780822 415.873799 414.116613 L 415.873799 415.00714 C 397.172727 412.780822 379.807446 405.656604 362.887429 393.189223 C 357.544266 389.627114 354.872684 387.400796 354.872684 386.065005 C 354.872684 385.174478 356.208475 383.838687 358.880057 381.167105 C 361.551638 378.495524 364.668483 374.488151 367.785329 369.144988 C 371.347438 363.801824 374.909547 357.568134 378.916919 350.88918 C 382.924292 344.210225 386.041137 335.750217 387.822191 325.06389 C 390.048509 314.377563 391.3843 303.245973 391.829564 292.114383 C 391.829564 250.704867 375.800074 215.529041 342.850566 187.03217 C 310.346323 158.535299 269.827334 143.841599 222.184127 142.951072 C 188.789356 142.951072 155.839849 152.301608 122.890341 171.00268 C 115.766124 158.980562 112.204015 146.513181 112.204015 133.155273 C 112.204015 109.556301 120.664023 92.19102 138.029304 81.05943 C 143.817731 77.052057 149.606158 74.825739 154.949322 74.825739 C 160.292485 74.825739 184.33672 74.380476 227.082027 73.044685 C 283.185242 72.154158 318.806331 70.373103 334.835821 66.810994 C 375.800074 61.022567 407.859054 47.219395 431.012762 25.846742 C 456.838051 0.0214522 470.19596 -32.482792 470.19596 -72.111253 C 470.19596 -116.637615 443.925407 -150.922913 391.829564 -174.967148 C 352.201102 -195.449274 304.557896 -206.135601 249.790471 -206.135601 C 194.577783 -206.135601 146.934576 -195.449274 106.860851 -174.967148 C 55.210272 -151.81344 28.939719 -118.418669 28.939719 -74.782835 C 28.939719 -51.183863 36.063937 -31.147001 49.867109 -15.117511 C 64.115544 0.911979 77.918716 12.04357 92.167152 17.831997 L 102.853479 24.065687 C 78.809244 44.547814 66.787126 72.599421 66.787126 108.22051 C 66.787126 139.388963 76.582926 167.885835 96.174525 192.820597 C 66.787126 222.207995 52.093427 255.157503 52.093427 292.114383 C 52.093427 333.969162 68.56818 369.144988 101.962952 398.087123 C 135.357723 426.583994 175.876711 441.277693 223.074654 442.16822 C 256.914689 442.16822 288.528406 433.262948 317.915804 415.897667 Z M 299.214732 342.874435 C 295.652623 361.575506 287.192615 376.269206 272.944179 386.955532 C 259.141007 397.641859 241.775726 403.430286 220.848336 403.87555 C 201.702001 403.87555 184.781984 398.532386 170.978812 387.84606 C 157.17564 377.159733 148.270367 362.466034 145.153522 342.874435 C 142.927204 331.742844 142.036677 314.822827 142.036677 292.114383 C 142.036677 262.726984 144.262995 240.909067 149.160895 227.105895 C 153.613531 212.857459 163.854594 201.280606 178.993557 191.93007 C 190.125147 185.251115 204.818846 182.13427 222.184127 182.13427 C 236.877826 182.13427 249.345208 184.360588 260.031534 188.813224 C 270.717861 193.711124 278.287342 199.499551 283.185242 207.069032 C 287.637878 214.19325 291.199987 220.872205 293.871569 227.105895 C 296.543151 232.894322 298.324205 237.792222 299.214732 241.799594 C 300.995787 252.485921 301.886314 269.405938 301.886314 292.114383 C 301.886314 314.822827 300.995787 331.742844 299.214732 342.874435 Z M 402.961154 -74.782835 C 402.961154 -58.308081 398.508518 -44.504909 389.157982 -33.818582 C 379.807446 -23.132256 366.004274 -15.562774 348.19373 -11.110138 C 329.937922 -6.212238 313.463168 -3.540657 299.214732 -2.204866 C 284.521033 -0.869075 266.265225 0.0214522 244.892571 0.0214522 L 218.176755 0.0214522 C 173.20513 0.0214522 146.489313 -2.204866 138.029304 -6.212238 C 124.671396 -12.000665 114.430333 -21.351201 106.860851 -33.818582 C 99.736633 -46.731227 95.729261 -60.089136 94.838734 -73.892308 C 94.838734 -80.571262 97.065052 -88.140743 101.072424 -97.046016 C 105.079797 -105.506024 112.204015 -115.747087 121.999814 -126.878678 C 131.795614 -138.455532 147.825104 -147.806067 170.088284 -154.930285 C 191.906201 -162.499767 218.622018 -166.507139 249.790471 -166.952403 C 296.097887 -166.952403 333.054767 -157.601867 361.106375 -138.900795 C 389.157982 -120.199723 402.961154 -98.82707 402.961154 -74.782835 Z M 402.961154 -74.782835 " transform="matrix(0.00877289, 0, 0, -0.00877289, 62.515646, 44.449407)"/>
<path fill-rule="nonzero" fill="rgb(0%, 0%, 0%)" fill-opacity="1" d="M 24.300781 104.035156 L 24.886719 103.449219 L 25.476562 104.035156 L 24.886719 104.625 M 26.652344 101.6875 L 27.238281 101.097656 L 27.824219 101.6875 L 27.238281 102.273438 M 29 99.335938 L 29.589844 98.75 L 30.175781 99.335938 L 29.589844 99.921875 M 31.351562 96.984375 L 31.9375 96.398438 L 32.527344 96.984375 L 31.9375 97.574219 M 33.703125 94.636719 L 34.289062 94.046875 L 34.878906 94.636719 L 34.289062 95.222656 M 36.050781 92.285156 L 36.640625 91.695312 L 37.226562 92.285156 L 36.640625 92.871094 M 38.402344 89.933594 L 38.992188 89.347656 L 39.578125 89.933594 L 38.992188 90.523438 M 40.753906 87.582031 L 41.339844 86.996094 L 41.929688 87.582031 L 41.339844 88.171875 M 43.105469 85.234375 L 43.691406 84.644531 L 44.28125 85.234375 L 43.691406 85.820312 "/>
<path fill-rule="nonzero" fill="rgb(100%, 100%, 100%)" fill-opacity="1" d="M 29.996094 88.542969 L 40.382812 88.542969 L 40.382812 97.265625 L 29.996094 97.265625 Z M 29.996094 88.542969 "/>
<path fill-rule="nonzero" fill="rgb(98.429871%, 98.429871%, 98.429871%)" fill-opacity="1" d="M 29.996094 88.542969 L 40.382812 88.542969 L 40.382812 96.851562 L 29.996094 96.851562 Z M 29.996094 88.542969 "/>
<path fill-rule="nonzero" fill="rgb(0%, 0%, 0%)" fill-opacity="1" stroke-width="13.681978" stroke-linecap="butt" stroke-linejoin="miter" stroke="rgb(0%, 0%, 0%)" stroke-opacity="0.0263" stroke-miterlimit="4" d="M 208.034089 73.7936 C 208.034089 58.205409 223.176903 48.852494 253.90791 46.180232 C 265.933086 46.180232 272.168363 42.17184 272.168363 35.04581 C 272.168363 34.155056 271.277609 30.146664 269.941478 22.12988 C 268.15997 12.776965 265.933086 6.541688 264.151578 3.869427 C 261.924694 1.197165 257.470925 -0.138965 250.790271 -0.138965 C 249.454141 -0.138965 245.445748 -0.138965 239.210472 -0.138965 C 232.529818 -0.138965 220.950019 0.306412 204.91645 1.197165 C 188.882882 1.642542 167.504791 2.087919 140.782176 2.087919 C 93.572225 2.087919 63.286595 1.197165 49.925288 -0.138965 L 41.908504 -0.138965 C 37.454735 4.760181 34.782474 8.323196 34.782474 10.995457 C 36.118604 28.810533 40.572373 40.83571 48.143781 46.180232 L 61.950465 46.180232 C 108.715039 47.96174 142.563684 64.886062 163.941775 96.062445 C 167.950167 100.070838 228.521426 201.616771 345.210174 401.145623 C 461.453546 600.229098 521.134051 701.329655 522.915558 704.001917 C 527.814704 712.018701 535.831488 716.027093 546.965911 716.027093 L 571.907018 716.027093 C 575.91541 709.791816 578.142294 706.674178 578.142294 705.783424 L 606.201039 382.88517 C 624.461492 167.768127 634.705161 59.096163 636.041291 56.869278 C 639.15893 49.743248 660.982398 46.180232 701.066319 46.180232 C 717.545264 46.180232 726.007426 42.617217 726.007426 35.936564 C 726.007426 34.600433 725.116672 30.146664 722.889787 22.12988 C 721.10828 11.886211 719.326772 6.096311 717.990641 3.869427 C 716.654511 2.087919 712.200742 0.751788 704.183957 -0.138965 C 701.957073 -0.138965 697.503304 -0.138965 689.931897 -0.138965 C 682.805866 -0.138965 669.444559 0.306412 651.184106 1.197165 C 632.478276 1.642542 607.982547 2.087919 578.142294 2.087919 C 515.344151 2.087919 474.369476 1.197165 455.218269 -0.138965 L 443.193093 -0.138965 C 439.184701 3.869427 436.957816 6.987065 436.957816 9.21395 C 436.957816 10.995457 437.84857 16.785357 439.184701 27.029026 C 441.856962 35.491187 443.63847 40.83571 444.9746 43.062594 L 448.982993 46.180232 L 469.024953 46.180232 C 505.100482 47.96174 526.478574 53.75164 533.159227 63.104555 L 521.134051 213.196571 L 282.857408 213.196571 L 249.008764 154.852197 C 221.840773 108.978376 208.034089 81.810385 208.034089 73.7936 Z M 515.789528 259.961145 C 515.789528 267.532553 511.781136 319.196273 504.209728 415.843061 C 496.192944 512.489849 491.293798 561.481308 489.957668 561.926685 L 462.789677 519.170502 C 452.546008 500.910049 431.167917 465.279897 399.991533 411.834669 L 310.025399 259.961145 L 412.907464 259.070392 C 481.495506 259.070392 515.789528 259.515768 515.789528 259.961145 Z M 515.789528 259.961145 " transform="matrix(0.00877066, 0, 0, -0.00877066, 29.995716, 95.237062)"/>
<path fill-rule="nonzero" fill="rgb(0%, 0%, 0%)" fill-opacity="1" stroke-width="19.352162" stroke-linecap="butt" stroke-linejoin="miter" stroke="rgb(0%, 0%, 0%)" stroke-opacity="0.0186" stroke-miterlimit="4" d="M 212.946461 577.971357 L 199.717444 572.931731 C 190.898099 569.781965 177.039129 566.632199 160.030392 562.85248 C 142.391703 559.702714 123.493107 557.182901 102.074698 555.922995 L 83.176101 555.922995 L 83.176101 601.909578 L 102.074698 601.909578 C 133.572358 603.169485 162.550205 608.209111 189.00824 617.028455 C 215.466274 625.8478 234.36487 633.407239 245.074075 640.966677 C 255.783279 648.526116 265.232577 655.455601 272.792016 663.015039 C 274.051922 664.904899 278.461595 666.164805 284.761127 666.164805 C 291.060659 666.164805 296.730238 664.274946 301.769863 659.865273 L 301.769863 361.267455 L 303.02977 60.779776 C 307.439442 56.370104 311.849114 53.220338 314.998881 51.960431 C 318.148647 50.700525 326.338038 49.440619 338.937102 48.180712 C 351.536166 46.920806 372.324622 46.290853 401.302469 46.290853 L 427.130551 46.290853 L 427.130551 0.304269 L 415.791393 0.304269 C 401.932423 2.194128 349.016354 2.824082 257.043186 2.824082 C 166.329924 2.824082 114.043808 2.194128 100.184838 0.304269 L 88.215727 0.304269 L 88.215727 46.290853 L 114.043808 46.290853 C 128.532732 46.290853 141.131796 46.290853 151.841001 46.290853 C 162.550205 46.290853 170.739597 46.290853 177.039129 46.920806 C 182.708708 47.550759 188.378287 48.810665 192.787959 50.070572 C 197.827585 51.330478 200.347397 51.960431 200.977351 51.960431 C 201.607304 51.960431 203.497163 53.850291 207.276883 57.000057 C 210.426649 60.149823 212.316508 61.40973 212.946461 60.779776 Z M 212.946461 577.971357 " transform="matrix(0.00620086, 0, 0, -0.00620086, 36.863143, 96.552668)"/>
<path fill-rule="nonzero" fill="rgb(0%, 0%, 0%)" fill-opacity="1" d="M 65.851562 104.625 L 65.265625 104.035156 L 65.851562 103.449219 L 66.4375 104.035156 M 63.5 102.273438 L 62.914062 101.6875 L 63.5 101.097656 L 64.089844 101.6875 M 61.152344 99.921875 L 60.5625 99.335938 L 61.152344 98.75 L 61.738281 99.335938 M 58.800781 97.574219 L 58.210938 96.984375 L 58.800781 96.398438 L 59.386719 96.984375 M 56.449219 95.222656 L 55.863281 94.636719 L 56.449219 94.046875 L 57.035156 94.636719 M 54.097656 92.871094 L 53.511719 92.285156 L 54.097656 91.695312 L 54.6875 92.285156 M 51.75 90.523438 L 51.160156 89.933594 L 51.75 89.347656 L 52.335938 89.933594 M 49.398438 88.171875 L 48.808594 87.582031 L 49.398438 86.996094 L 49.984375 87.582031 M 47.046875 85.820312 L 46.460938 85.234375 L 47.046875 84.644531 L 47.636719 85.234375 "/>
<path fill-rule="nonzero" fill="rgb(100%, 100%, 100%)" fill-opacity="1" d="M 50.769531 89.789062 L 61.160156 89.789062 L 61.160156 98.515625 L 50.769531 98.515625 Z M 50.769531 89.789062 "/>
<path fill-rule="nonzero" fill="rgb(98.429871%, 98.429871%, 98.429871%)" fill-opacity="1" d="M 50.769531 89.789062 L 61.160156 89.789062 L 61.160156 98.097656 L 50.769531 98.097656 Z M 50.769531 89.789062 "/>
<path fill-rule="nonzero" fill="rgb(0%, 0%, 0%)" fill-opacity="1" stroke-width="13.681978" stroke-linecap="butt" stroke-linejoin="miter" stroke="rgb(0%, 0%, 0%)" stroke-opacity="0.0263" stroke-miterlimit="4" d="M 207.790226 73.844018 C 207.790226 57.81045 223.378418 48.457535 254.109424 45.785273 C 266.1346 45.785273 271.9245 42.222258 271.9245 35.096228 C 271.9245 34.205474 271.479123 30.197082 270.142993 22.180298 C 267.916108 12.827383 266.1346 6.592106 263.907716 3.919845 C 262.126208 1.247583 257.672439 -0.0885475 250.991786 -0.0885475 C 249.655655 -0.0885475 245.647263 -0.0885475 238.966609 -0.0885475 C 232.285956 -0.0885475 221.151533 0.356829 205.117965 0.802206 C 189.084396 1.69296 167.706305 2.138337 140.983691 2.138337 C 93.773739 2.138337 63.48811 1.247583 50.126803 -0.0885475 L 42.110019 -0.0885475 C 37.210873 4.810598 34.983988 8.373614 34.983988 11.045875 C 36.320119 28.860951 40.773888 40.886127 47.899918 45.785273 L 62.151979 45.785273 C 108.471177 48.012158 142.765199 64.491103 164.14329 96.112863 C 168.151682 100.121255 228.277564 201.667189 344.966312 401.196041 C 461.65506 600.279516 520.890188 701.380073 523.117073 704.052334 C 527.570842 712.069119 535.587626 716.077511 547.167426 716.077511 L 572.108532 716.077511 C 576.116924 709.842234 577.898432 706.724596 577.898432 705.833842 L 605.957177 382.935588 C 624.663006 167.818545 634.461298 59.14658 635.797429 56.919696 C 639.360444 49.793666 661.183912 45.785273 700.822457 45.785273 C 717.746779 45.785273 726.20894 42.667635 726.20894 35.986982 C 726.20894 34.650851 724.872809 30.197082 723.091302 22.180298 C 720.864417 11.936629 719.528287 6.146729 718.192156 3.919845 C 716.856025 2.138337 711.956879 0.802206 703.940095 -0.0885475 C 702.158587 -0.0885475 697.259441 -0.0885475 690.133411 -0.0885475 C 682.562004 -0.0885475 669.646074 0.356829 650.940244 0.802206 C 632.234414 1.69296 608.184061 2.138337 577.898432 2.138337 C 515.545665 2.138337 474.125614 1.247583 454.974407 -0.0885475 L 442.94923 -0.0885475 C 438.940838 3.919845 437.159331 7.037483 437.159331 8.818991 C 437.159331 11.045875 437.604708 16.835775 438.940838 27.079444 C 441.6131 35.541605 443.839984 40.886127 445.176115 43.113012 L 449.184507 45.785273 L 468.781091 45.785273 C 504.85662 48.012158 526.234711 53.802058 532.915365 63.154973 L 520.890188 212.801612 L 283.058923 212.801612 L 249.210278 154.902614 C 221.59691 109.028793 207.790226 81.860802 207.790226 73.844018 Z M 515.991042 260.011563 C 515.991042 267.137594 511.98265 319.246691 503.965866 415.893479 C 495.949082 512.540267 491.495313 561.531726 490.159182 561.977103 L 462.991191 519.22092 C 452.302145 500.960467 431.369431 465.330315 400.193048 411.885087 L 309.781537 260.011563 L 413.108978 259.120809 C 481.697021 259.120809 515.991042 259.120809 515.991042 260.011563 Z M 515.991042 260.011563 " transform="matrix(0.00877066, 0, 0, -0.00877066, 50.771292, 96.483598)"/>
<path fill-rule="nonzero" fill="rgb(0%, 0%, 0%)" fill-opacity="1" stroke-width="19.352162" stroke-linecap="butt" stroke-linejoin="miter" stroke="rgb(0%, 0%, 0%)" stroke-opacity="0.0186" stroke-miterlimit="4" d="M 109.288475 428.74376 C 91.019832 428.74376 76.530908 435.043292 65.821704 447.012403 C 55.1125 458.981514 50.072874 473.470437 50.072874 491.109127 C 50.072874 538.355617 67.711564 579.302576 102.988943 613.950002 C 138.266322 648.597428 182.363047 666.236118 235.279116 666.236118 C 295.754623 666.236118 346.15088 647.337522 387.097838 610.170283 C 427.414843 572.37309 448.203299 524.496647 448.833252 465.281046 C 448.833252 436.303198 442.53372 409.21521 429.304703 382.757176 C 415.445732 356.929095 399.696902 334.250779 380.798306 314.72223 C 362.529663 295.823634 335.441675 271.255459 300.794249 241.017705 C 276.856027 220.229249 243.468507 189.361542 201.261643 149.044537 L 142.046042 92.978702 L 218.270379 91.718796 C 322.842611 91.718796 378.278493 93.608655 385.207978 96.758421 C 389.617651 98.648281 397.807042 128.256082 409.1462 186.211776 L 409.1462 188.731589 L 448.833252 188.731589 L 448.833252 186.211776 C 448.203299 183.691963 443.793626 153.45421 436.234188 94.868562 C 428.044796 36.282914 423.005171 5.415207 421.115311 2.895394 L 421.115311 -0.254372 L 50.072874 -0.254372 L 50.072874 31.243288 C 50.072874 35.652961 51.962733 40.692586 55.742453 45.732212 C 60.152125 51.401791 70.231376 62.740948 85.980207 81.009591 C 105.508756 102.428 121.887539 120.696643 135.74651 137.075426 C 142.046042 143.374958 153.385199 155.974023 169.763983 174.242665 C 186.772719 191.881355 198.111877 204.480419 203.781456 210.779951 C 210.080988 217.709436 219.530286 228.418641 232.759303 244.167471 C 246.618274 259.286348 255.437618 270.625506 261.107197 278.184944 C 266.146823 285.114429 273.706261 295.193681 283.785513 307.792745 C 293.864764 320.391809 300.794249 331.101013 305.203921 339.920358 C 308.983641 348.739703 314.023266 358.189001 319.692845 368.898205 C 325.992377 379.60741 330.40205 390.316614 332.921862 401.025819 C 335.441675 411.735023 337.961488 421.814275 339.851348 431.263573 C 341.741207 440.082917 343.001114 451.422075 343.001114 464.021139 C 343.001114 506.228004 331.661956 542.135337 308.983641 573.003044 C 286.305325 603.870751 254.177712 618.989627 211.970847 618.989627 C 189.922485 618.989627 170.393936 613.320049 154.015153 601.980891 C 137.636369 590.641733 125.667258 579.932529 118.737773 569.223324 C 112.438241 558.51412 109.288475 552.214588 109.288475 549.694775 C 109.288475 549.064822 110.548381 549.064822 113.698147 549.064822 C 126.297212 549.064822 138.266322 544.025196 150.865387 535.205851 C 163.464451 525.756553 169.763983 510.637676 169.763983 489.219267 C 169.763983 472.210531 164.724357 458.35156 154.015153 447.012403 C 143.305948 435.673245 128.187071 429.373713 109.288475 428.74376 Z M 109.288475 428.74376 " transform="matrix(0.00620086, 0, 0, -0.00620086, 57.638724, 97.799204)"/>
</svg>
