<?xml version="1.0" encoding="UTF-8"?>
<svg xmlns="http://www.w3.org/2000/svg" xmlns:xlink="http://www.w3.org/1999/xlink" width="135.119995pt" height="183.12pt" viewBox="0 0 135.119995 183.12">
<defs>
<clipPath id="clip-0">
<path clip-rule="nonzero" d="M 0 0 L 135 0 L 135 182.882812 L 0 182.882812 Z M 0 0 "/>
</clipPath>
<clipPath id="clip-1">
<path clip-rule="nonzero" d="M 18.75 112 L 65 112 L 65 157.5 L 18.75 157.5 Z M 18.75 112 "/>
</clipPath>
</defs>
<g clip-path="url(#clip-0)">
<path fill-rule="nonzero" fill="rgb(100%, 100%, 100%)" fill-opacity="1" d="M 0 0 L 135 0 L 135 183 L 0 183 Z M 0 0 "/>
</g>
<path fill-rule="nonzero" fill="rgb(0%, 0%, 0%)" fill-opacity="1" stroke-width="11.045625" stroke-linecap="butt" stroke-linejoin="miter" stroke="rgb(0%, 0%, 0%)" stroke-opacity="0.0326" stroke-miterlimit="4" d="M 108.97773 428.971532 C 90.999824 428.971532 76.6175 435.08402 65.830756 446.949438 C 55.403571 459.174414 50.010199 473.556739 50.010199 491.175086 C 50.010199 538.277199 67.628547 579.266824 102.865242 614.143961 C 138.461495 648.66154 182.327585 665.920329 234.82307 665.920329 C 295.588391 665.920329 346.286085 647.223308 386.916152 609.829264 C 427.546219 572.794778 448.400589 524.254433 449.119706 464.927344 C 449.119706 436.162695 442.288102 408.836278 428.984451 382.948094 C 415.680801 357.05991 399.500686 334.407749 381.163222 314.99161 C 362.4662 295.575472 335.499342 271.125521 300.981763 240.922639 C 276.891369 220.427827 243.812023 189.505829 201.024607 148.875762 L 142.057077 93.144254 L 217.923839 92.06558 C 322.55525 92.06558 378.286757 93.503812 385.118361 97.099394 C 389.792617 98.178068 397.702895 128.021391 408.849197 185.910248 L 408.849197 189.146271 L 449.119706 189.146271 L 449.119706 185.910248 C 448.400589 184.112457 444.085892 153.550017 436.175614 94.942045 C 427.905777 36.334072 422.871963 5.771633 421.074173 2.895168 L 421.074173 0.0187028 L 50.010199 0.0187028 L 50.010199 30.940701 C 50.010199 35.614956 52.167548 40.64877 56.122687 46.042141 C 60.077827 51.435513 70.145454 62.941373 85.966011 80.919278 C 105.382149 102.492765 121.921822 120.830229 135.944589 137.010344 C 142.057077 143.841948 153.203378 156.066924 170.102609 174.04483 C 186.642283 192.022736 198.148142 204.247711 203.901072 211.079316 C 210.01356 217.551362 219.721629 228.697663 233.025279 244.158662 C 246.32893 259.260103 255.677441 270.765962 261.070812 277.957125 C 266.464184 285.507845 274.014904 295.215914 284.082531 308.160006 C 294.150159 320.74454 300.981763 331.171726 304.936902 340.160678 C 308.892041 348.790073 313.925855 358.498142 320.038343 368.925327 C 326.150831 379.712071 330.465528 390.498814 332.982435 400.926 C 335.499342 411.712743 338.016249 421.78037 340.173597 431.128881 C 341.971388 440.477392 343.050062 451.264136 343.050062 463.84867 C 343.050062 505.916969 331.544202 542.232338 308.892041 573.154336 C 286.23988 603.716776 253.87965 619.177775 212.170909 619.177775 C 189.878306 619.177775 170.821726 613.424845 153.922494 601.918985 C 137.382821 590.772684 125.517403 579.626382 119.045357 568.839639 C 112.213753 558.412453 108.97773 551.940407 108.97773 550.142617 C 108.97773 549.423501 110.775521 549.063942 114.011544 549.063942 C 125.876961 549.063942 138.461495 544.389687 151.046029 535.041176 C 163.630563 525.692665 170.102609 510.231666 170.102609 489.017737 C 170.102609 472.478064 164.709238 458.455298 153.922494 446.949438 C 143.495309 435.803137 128.393868 429.690649 108.97773 428.971532 Z M 108.97773 428.971532 " transform="matrix(0.010864, 0, 0, -0.010864, 50.128563, 45.883016)"/>
<path fill-rule="nonzero" fill="rgb(0%, 0%, 0%)" fill-opacity="1" stroke-width="11.045625" stroke-linecap="butt" stroke-linejoin="miter" stroke="rgb(0%, 0%, 0%)" stroke-opacity="0.0326" stroke-miterlimit="4" d="M 77.841201 60.064908 C 77.841201 75.885465 83.594131 89.908231 95.099991 102.133207 C 106.246292 113.998625 120.628617 120.111113 137.887406 120.111113 C 154.067521 120.111113 168.090288 114.717741 179.955705 103.930998 C 191.821123 93.503812 198.293169 79.121488 199.012285 61.143582 C 199.012285 44.244351 193.259356 29.862026 182.113054 17.996609 C 170.607194 6.131191 156.22487 0.0187028 138.96608 0.0187028 C 121.707291 0.0187028 107.324966 5.771633 96.178665 16.917934 C 84.672805 28.423794 78.560317 42.806118 77.841201 60.064908 Z M 77.841201 60.064908 " transform="matrix(0.010864, 0, 0, -0.010864, 55.560581, 45.883016)"/>
<path fill-rule="nonzero" fill="rgb(0%, 0%, 0%)" fill-opacity="1" stroke-width="11.045625" stroke-linecap="butt" stroke-linejoin="miter" stroke="rgb(0%, 0%, 0%)" stroke-opacity="0.0326" stroke-miterlimit="4" d="M 128.010784 619.177775 C 123.336529 623.492472 119.740948 626.728495 116.864483 628.166727 C 114.347576 629.245402 108.954204 630.324076 101.043926 631.043192 C 93.133647 631.762309 78.751323 632.840983 57.896952 633.919657 L 25.177164 633.919657 L 25.177164 679.943096 L 596.874565 679.943096 L 596.874565 675.987957 C 598.312797 672.032817 602.987053 633.200541 610.897331 559.850686 C 619.167168 486.500831 623.841423 448.028113 624.920098 444.072973 L 624.920098 440.117834 L 585.009147 440.117834 L 585.009147 444.072973 C 584.290031 445.870764 583.211356 453.061926 582.132682 464.927344 C 579.256217 488.298621 575.301078 508.793434 569.907706 526.052223 C 564.514334 543.311013 559.120963 558.412453 553.008475 570.996987 C 546.895987 583.581521 538.62615 593.649149 527.839407 600.840311 C 517.412222 608.391031 507.344594 614.503519 497.996083 619.177775 C 488.647572 623.492472 474.984364 627.088053 457.006458 628.885844 C 439.028553 631.043192 423.567554 632.481425 410.98302 632.840983 C 398.398486 633.560099 378.982348 633.919657 353.094164 633.919657 C 294.845749 633.919657 261.047286 633.560099 250.979659 632.840983 C 240.912032 632.481425 235.159102 628.526286 233.001754 622.05424 C 233.001754 622.05424 233.001754 621.694681 233.001754 620.975565 C 232.282637 619.537333 231.923079 578.18815 231.923079 496.928016 L 231.923079 376.11649 L 285.856796 376.11649 C 334.7567 377.195164 364.959581 380.431187 376.824999 385.105443 C 400.915393 395.532628 413.859485 423.578161 416.016833 468.882483 C 416.016833 470.320716 416.016833 471.758948 416.016833 472.837622 L 416.016833 492.972877 L 455.927784 492.972877 L 455.927784 212.877106 L 416.016833 212.877106 L 416.016833 233.012361 C 415.297717 256.383638 412.78081 274.721102 408.106555 288.024752 C 403.432299 301.328402 395.162463 311.036471 382.937487 317.148959 C 371.072069 322.901889 359.56621 326.49747 349.139024 327.935703 C 338.352281 329.373935 321.093491 330.093051 297.003098 330.093051 C 292.328842 330.093051 288.733261 330.093051 285.856796 330.093051 L 231.923079 330.093051 L 231.923079 113.998625 C 231.923079 75.885465 233.72087 55.390652 236.956893 52.154629 C 240.912032 48.559048 258.170822 47.120816 289.092819 47.120816 L 390.847765 47.120816 C 415.657275 47.120816 436.152088 47.839932 451.972645 49.997281 C 468.15276 52.154629 485.771108 56.109769 504.827688 61.862698 C 524.243826 67.975186 540.064383 78.042814 551.9298 92.06558 C 564.154776 106.088346 574.581962 124.066252 583.930473 145.999297 C 590.762077 163.258086 595.79589 181.235992 599.031913 199.933014 C 602.267936 218.630036 605.144401 234.450593 606.942192 247.035127 C 609.099541 259.619661 610.537773 267.170381 611.976005 270.046846 L 611.976005 272.923311 L 651.886956 272.923311 L 651.886956 270.046846 C 651.16784 267.889498 644.695794 223.66385 632.11126 137.010344 C 619.167168 50.356839 611.976005 5.771633 610.178215 2.895168 L 610.178215 0.0187028 L 25.177164 0.0187028 L 25.177164 46.042141 L 57.896952 46.042141 C 85.942485 46.761258 102.841716 47.839932 108.954204 48.918606 C 115.066692 50.356839 121.17918 54.311978 128.010784 61.143582 Z M 128.010784 619.177775 " transform="matrix(0.010864, 0, 0, -0.010864, 61.296787, 45.883016)"/>
<path fill-rule="nonzero" fill="rgb(0%, 0%, 0%)" fill-opacity="1" stroke-width="11.045625" stroke-linecap="butt" stroke-linejoin="miter" stroke="rgb(0%, 0%, 0%)" stroke-opacity="0.0326" stroke-miterlimit="4" d="M 201.004046 0.0187028 C 193.093768 2.176052 160.014421 2.895168 102.125565 2.895168 C 51.427871 2.895168 23.02278 2.176052 16.910292 0.0187028 L 11.157362 0.0187028 L 11.157362 46.042141 L 24.82057 46.042141 C 40.281569 46.761258 54.304336 48.559048 66.88887 52.154629 C 79.832962 55.390652 89.181473 58.267117 96.013077 61.143582 C 102.844681 63.660489 111.114518 69.413419 120.822587 78.042814 C 130.890214 86.672208 137.002702 92.784696 139.160051 96.020719 C 140.957841 99.256742 148.149003 107.886137 160.014421 121.908903 C 171.879839 135.93167 178.711443 145.280181 180.149676 149.954436 L 226.173114 210.000641 L 167.9247 288.024752 C 162.17177 296.654147 155.699724 305.643099 148.86812 314.99161 C 142.396074 324.340121 137.002702 331.171726 133.047563 335.845981 C 129.092423 340.520237 125.496842 345.55405 121.901261 350.947422 C 118.665238 356.340794 115.788773 360.295933 112.912308 363.172398 C 110.395401 365.689304 108.238053 367.846653 107.159378 370.004002 C 105.721146 372.161351 103.204239 373.959141 99.968216 376.11649 C 96.732193 377.91428 94.574844 378.992955 93.855728 378.992955 C 93.49617 378.992955 91.338821 379.712071 88.102798 381.150303 C 84.507217 382.228978 81.99031 382.948094 79.832962 382.948094 C 75.877823 382.948094 64.012405 383.66721 43.87715 385.105443 L 15.831618 385.105443 L 15.831618 431.128881 L 23.02278 431.128881 C 47.113173 429.690649 81.271194 428.971532 125.8564 428.971532 C 188.059954 428.971532 222.217975 429.690649 229.049579 431.128881 L 236.959857 431.128881 L 236.959857 385.105443 C 212.869464 382.228978 201.004046 376.835606 201.004046 368.925327 C 201.004046 367.487095 204.240069 362.453281 211.071673 353.10477 C 217.543719 343.75626 226.89223 331.171726 239.117206 314.99161 C 250.982624 299.171053 260.690693 285.507845 267.881855 274.001985 L 271.836995 270.046846 L 297.006062 303.845309 C 318.219991 331.171726 329.006735 349.509189 329.006735 358.138584 C 329.006735 362.093723 328.287618 365.689304 326.849386 368.925327 C 325.770712 372.161351 323.972921 374.678257 322.17513 376.11649 C 320.017782 377.195164 318.219991 378.633397 317.141317 380.071629 C 315.703084 381.509861 313.186178 382.588536 309.950155 384.026768 L 307.07369 385.105443 L 302.039876 385.105443 L 302.039876 431.128881 L 308.87148 431.128881 C 318.939107 428.971532 352.018454 427.892858 408.10952 427.892858 C 460.605004 427.892858 489.010095 428.971532 492.965234 431.128881 L 499.077722 431.128881 L 499.077722 385.105443 L 491.88656 385.105443 C 459.166772 385.105443 432.199913 379.352513 410.985985 367.846653 C 399.839683 362.81284 388.333823 353.823887 376.827964 340.879795 C 365.681662 328.295261 344.108175 300.249728 312.107503 257.102754 L 295.927388 235.888825 L 358.130942 151.033111 C 401.997032 90.986906 425.727867 59.70535 428.96389 56.828885 C 432.199913 54.311978 437.952843 52.154629 445.863122 49.997281 C 458.088097 47.480374 475.706445 46.042141 499.077722 46.042141 L 515.976954 46.042141 L 515.976954 0.0187028 L 501.954187 0.0187028 C 496.560816 0.737819 490.08877 1.097377 482.178491 1.097377 C 473.908654 1.097377 465.638818 1.456935 457.009423 2.176052 C 448.380028 2.53561 440.110192 2.53561 431.840355 2.176052 C 423.930077 1.456935 418.177147 1.816493 413.862449 2.895168 C 406.671287 2.895168 394.446311 2.895168 376.827964 2.895168 C 359.569174 2.895168 343.029501 2.176052 326.849386 1.097377 L 303.837667 0.0187028 L 294.848714 0.0187028 L 294.848714 46.042141 L 298.084737 46.042141 C 305.275899 46.042141 312.826619 47.839932 320.017782 51.075955 C 327.208944 54.311978 331.164083 58.267117 331.164083 62.941373 C 331.164083 64.379605 317.500875 83.436185 290.893575 120.111113 L 249.90395 175.123504 C 249.184833 174.404388 239.117206 160.381622 218.981952 133.055205 C 198.846697 105.728788 187.700396 90.627347 184.823931 88.110441 C 182.307024 84.51486 180.868792 79.840604 180.868792 74.087674 C 180.868792 66.536954 183.385699 60.424466 188.059954 55.031094 C 192.73421 49.637723 198.487139 46.761258 206.03786 46.042141 C 207.476092 46.042141 207.83565 38.491421 207.83565 23.030422 L 207.83565 0.0187028 Z M 201.004046 0.0187028 " transform="matrix(0.010864, 0, 0, -0.010864, 68.695192, 45.883016)"/>
<path fill-rule="nonzero" fill="rgb(0%, 0%, 0%)" fill-opacity="1" stroke-width="11.045625" stroke-linecap="butt" stroke-linejoin="miter" stroke="rgb(0%, 0%, 0%)" stroke-opacity="0.0326" stroke-miterlimit="4" d="M 36.157436 -148.11924 L 49.820644 -148.11924 C 76.068386 -148.11924 91.529385 -143.444985 96.922757 -134.096474 L 96.922757 -125.826637 C 96.922757 -121.51194 96.922757 -115.039894 96.922757 -107.129615 C 96.922757 -98.859778 96.922757 -89.151709 96.922757 -76.926733 C 96.922757 -65.061316 97.282315 -52.117224 98.001431 -38.094457 C 98.720547 -24.071691 98.720547 -9.329808 98.001431 6.131191 C 97.282315 21.232632 97.282315 37.772305 98.001431 55.031094 C 98.720547 72.289884 98.720547 89.189115 98.001431 106.088346 C 98.001431 128.740508 98.001431 152.471343 98.001431 176.921295 C 98.001431 201.730805 98.001431 223.66385 98.001431 243.079988 C 98.001431 262.496126 98.001431 280.114473 98.001431 295.93503 C 98.001431 312.115146 97.641873 325.059238 96.922757 335.126865 C 96.203641 344.834934 96.203641 350.228306 96.922757 350.947422 C 95.124966 363.531956 90.450711 372.161351 82.89999 376.11649 C 75.708828 380.071629 60.607387 382.948094 37.955226 385.105443 L 19.97732 385.105443 L 19.97732 408.117162 C 19.97732 423.218603 20.696437 431.128881 22.134669 431.128881 L 31.842738 431.847997 C 38.674342 432.567114 48.382411 433.28623 60.966945 434.005346 C 73.551479 434.724462 86.136013 435.443579 98.001431 436.162695 C 109.507291 436.522253 121.732267 437.241369 135.035917 437.960485 C 148.339567 438.679602 158.407194 439.758276 164.87924 440.83695 C 171.710844 442.275183 175.306426 442.634741 176.025542 441.915625 L 178.902007 441.915625 L 178.902007 416.02744 L 179.980681 390.139256 L 187.89096 396.97086 C 227.442352 426.454626 273.465791 440.83695 325.961275 440.83695 C 379.894992 440.83695 425.918431 419.623022 464.031591 376.835606 C 502.144751 334.407749 521.201331 280.83359 521.920447 216.113129 C 521.920447 148.516204 500.34696 93.863371 456.840429 52.154629 C 413.693455 10.08633 364.793551 -11.127599 310.140718 -11.127599 C 264.836396 -11.127599 224.565887 3.614284 190.048308 33.098049 L 182.13803 39.929653 L 182.13803 -101.017127 C 182.13803 -118.995033 182.497588 -130.141334 183.93582 -134.096474 C 185.374053 -138.051613 188.969634 -141.647194 195.082122 -144.883217 C 209.104888 -147.040566 225.285003 -148.11924 243.982025 -148.11924 L 260.16214 -148.11924 L 260.16214 -194.142679 L 251.892304 -194.142679 L 228.161468 -193.064004 C 212.700469 -192.344888 196.160796 -191.98533 177.823332 -191.98533 C 159.845427 -191.98533 147.260893 -191.625772 140.06973 -190.906656 C 71.394131 -190.906656 34.000087 -191.98533 27.887599 -194.142679 L 19.97732 -194.142679 L 19.97732 -148.11924 Z M 424.12064 217.91092 C 424.12064 267.170381 412.614781 310.317355 389.962619 346.992283 C 367.310458 383.66721 338.905367 402.004674 305.106905 402.004674 C 257.645234 402.004674 216.655609 380.431187 182.13803 336.924655 L 182.13803 98.178068 C 208.74533 49.997281 246.139374 25.906887 293.960603 25.906887 C 328.118624 25.906887 357.961947 43.884793 383.850132 79.840604 C 410.097874 116.155974 423.401524 162.179412 424.12064 217.91092 Z M 424.12064 217.91092 " transform="matrix(0.010864, 0, 0, -0.010864, 74.431403, 45.883016)"/>
<path fill-rule="nonzero" fill="rgb(0%, 0%, 0%)" fill-opacity="1" stroke-width="11.045625" stroke-linecap="butt" stroke-linejoin="miter" stroke="rgb(0%, 0%, 0%)" stroke-opacity="0.0326" stroke-miterlimit="4" d="M 137.07025 304.923983 C 137.07025 304.923983 129.519529 304.923983 115.137205 304.923983 C 100.395322 304.923983 88.170346 309.957797 78.102719 320.025424 C 68.035092 330.093051 63.001278 343.037143 63.001278 358.8577 C 63.001278 382.228978 74.507138 403.083348 97.159299 421.061254 C 119.81146 439.03916 160.081969 448.028113 217.970825 448.028113 C 266.511171 448.028113 306.062563 437.241369 335.905887 416.02744 C 366.108768 394.813512 385.884464 369.284886 395.952091 340.160678 C 399.188115 330.812167 400.985905 320.384982 400.985905 308.879123 C 400.985905 297.732821 401.345463 259.260103 402.064579 193.820526 L 402.064579 124.066252 C 402.064579 92.06558 403.502812 70.132535 407.098393 57.907559 C 410.334416 46.042141 417.16602 39.929653 427.952764 39.929653 C 438.020391 39.929653 444.492437 45.323025 448.088018 56.109769 C 451.324041 66.536954 453.121832 84.155301 453.121832 108.964811 L 453.121832 144.920623 L 493.032782 144.920623 L 493.032782 106.088346 C 492.313666 79.481046 491.234992 63.660489 490.156317 58.986233 C 484.043829 38.850979 472.178412 23.38998 454.919622 11.884121 C 437.660833 0.737819 419.323369 -5.374669 399.907231 -6.093785 C 380.491093 -6.812901 365.030094 -0.700413 353.164676 11.884121 C 340.9397 24.828213 333.029422 38.491421 329.074282 53.95242 L 329.074282 57.907559 L 326.916934 55.031094 C 325.838259 52.873746 324.040469 51.075955 321.88312 48.918606 C 320.08533 47.120816 317.208865 43.884793 313.972842 39.929653 C 310.736819 35.974514 306.781679 32.378933 302.107424 29.14291 C 297.433168 25.547329 292.399355 21.59219 287.005983 16.917934 C 281.612611 12.243679 275.500123 8.648098 269.028077 6.131191 C 262.196473 3.254726 255.005311 0.737819 247.095032 -2.138646 C 238.825196 -4.655553 230.195801 -6.812901 220.84729 -7.891576 C 211.498779 -9.329808 201.431152 -10.408482 189.925292 -11.127599 C 150.014342 -11.127599 114.05853 -0.700413 82.057858 20.153957 C 50.057186 40.64877 33.877071 69.772977 33.877071 107.167021 C 33.877071 120.830229 36.393978 134.493437 41.068233 147.077971 C 45.742489 159.662505 54.731442 173.325714 68.035092 188.067596 C 81.338742 202.809479 97.159299 215.034455 115.856321 225.102082 C 134.553343 235.169709 160.801085 244.158662 193.880432 253.147615 C 227.319336 261.77701 263.994264 266.810823 303.905214 267.889498 L 317.927981 267.889498 L 317.927981 289.822542 C 317.927981 312.834262 316.13019 329.373935 312.175051 340.160678 C 297.433168 387.262791 265.072938 410.993627 215.09436 410.993627 C 202.869384 410.993627 191.723083 410.634069 180.93634 409.914952 C 170.509154 409.195836 161.879759 408.117162 156.12683 405.959813 C 150.014342 404.162023 147.497435 403.083348 147.856993 403.083348 C 162.598876 393.015721 170.149596 378.273838 170.149596 358.8577 C 170.149596 342.318027 164.756224 329.373935 153.969481 320.025424 Z M 125.923948 106.088346 C 125.923948 85.233976 133.834227 66.896512 150.014342 51.075955 C 165.834899 34.89584 185.610595 26.626003 208.981872 25.906887 C 234.510498 25.906887 256.803101 33.817166 275.859682 48.918606 C 295.27582 64.379605 308.219912 84.155301 315.051516 108.964811 C 316.489748 113.639067 317.208865 135.572112 317.927981 175.123504 C 317.927981 213.596222 317.568423 233.012361 316.849306 233.012361 C 311.815493 233.012361 304.624331 232.652802 295.994936 231.933686 C 287.365541 231.21457 272.2641 228.338105 251.050172 222.944733 C 229.836243 217.551362 210.420105 211.079316 193.161315 203.169037 C 175.542968 194.8992 160.441527 182.674225 147.137877 166.134551 C 133.834227 149.23532 126.643064 129.459624 125.923948 106.088346 Z M 125.923948 106.088346 " transform="matrix(0.010864, 0, 0, -0.010864, 80.471802, 45.883016)"/>
<path fill-rule="nonzero" fill="rgb(0%, 0%, 0%)" fill-opacity="1" stroke-width="11.045625" stroke-linecap="butt" stroke-linejoin="miter" stroke="rgb(0%, 0%, 0%)" stroke-opacity="0.0326" stroke-miterlimit="4" d="M 40.853923 46.042141 L 54.876689 46.042141 C 81.124432 46.042141 96.585431 50.716397 101.978802 60.064908 L 101.978802 67.975186 C 101.978802 74.087674 101.978802 81.638395 101.978802 90.986906 C 101.978802 100.335417 101.978802 110.762602 101.978802 121.908903 C 101.978802 133.414763 102.33836 146.358855 103.057477 161.100738 C 103.776593 175.84262 103.776593 189.505829 103.057477 203.169037 C 103.057477 223.66385 103.057477 245.596894 103.057477 268.968172 C 103.057477 292.339449 102.697919 312.115146 101.978802 327.935703 L 101.978802 350.947422 C 99.821454 363.531956 95.506756 372.161351 87.956036 376.11649 C 80.764874 380.071629 65.663433 382.948094 43.011272 385.105443 L 25.033366 385.105443 L 25.033366 408.117162 C 25.033366 423.218603 25.752482 431.128881 26.831157 431.128881 L 36.898784 431.847997 C 43.730388 432.567114 53.078899 433.28623 64.944317 434.005346 C 77.169292 434.724462 89.394268 435.443579 101.978802 436.162695 C 113.484662 436.522253 125.35008 437.241369 137.934614 437.960485 C 150.519148 438.679602 160.227217 439.758276 167.058821 440.83695 C 173.530867 442.275183 177.486006 442.634741 177.845564 441.915625 L 181.081587 441.915625 L 181.081587 402.004674 C 181.081587 376.835606 181.441145 363.891514 182.160262 363.891514 C 182.51982 363.891514 184.31761 365.689304 186.834517 368.925327 C 189.710982 372.161351 193.666121 377.195164 199.059493 384.026768 C 204.452865 390.498814 210.565353 396.611302 218.116073 402.004674 C 225.307235 407.398046 235.015304 413.510534 246.880722 421.061254 C 259.105698 428.252416 271.690232 433.645788 284.993882 436.881811 C 298.297532 440.477392 315.196764 441.915625 336.051134 441.915625 C 411.917896 439.398718 454.345754 401.645116 462.975148 329.014377 C 463.694265 324.340121 464.053823 277.957125 464.053823 189.865387 L 464.053823 103.930998 C 464.053823 78.76193 464.772939 63.660489 465.851613 58.986233 C 467.289846 54.311978 470.885427 51.075955 476.997915 48.918606 C 491.020681 47.120816 507.200796 46.042141 525.897818 46.042141 L 542.077933 46.042141 L 542.077933 0.0187028 L 534.167655 0.0187028 L 510.077261 1.097377 C 494.616262 1.816493 478.076589 2.176052 460.098684 2.176052 C 442.120778 2.176052 429.176686 2.176052 421.985523 2.895168 C 353.309924 2.895168 315.91588 2.176052 310.16295 0.0187028 L 301.893113 0.0187028 L 301.893113 46.042141 L 318.073229 46.042141 C 358.703295 46.042141 378.83855 51.435513 378.83855 61.862698 C 379.557666 63.300931 379.917224 109.324369 379.917224 199.933014 C 379.198108 289.822542 378.83855 337.643772 378.119434 343.037143 C 374.164294 361.734165 367.33269 375.756932 357.984179 385.105443 C 348.635668 394.453954 340.72539 399.847325 333.893786 402.004674 C 327.42174 404.162023 318.792345 404.521581 308.005601 404.162023 C 278.162278 404.162023 251.554978 392.656163 228.902816 370.004002 C 210.924911 352.026096 199.778609 333.688632 195.104354 314.99161 C 190.430098 296.294589 187.553633 268.608614 186.834517 231.933686 L 186.834517 107.886137 C 186.834517 88.110441 187.194075 74.80679 187.913191 67.975186 C 188.632308 61.50314 189.710982 56.828885 191.149214 55.031094 C 192.227889 52.873746 195.463912 51.075955 200.138167 48.918606 C 214.160934 47.120816 230.341049 46.042141 249.038071 46.042141 L 264.858628 46.042141 L 264.858628 0.0187028 L 256.948349 0.0187028 L 233.93663 1.097377 C 218.116073 1.816493 200.857284 2.176052 182.879378 2.176052 C 164.901472 2.176052 152.316938 2.176052 145.125776 2.895168 C 76.450176 2.895168 39.056132 2.176052 32.943644 0.0187028 L 25.033366 0.0187028 L 25.033366 46.042141 Z M 40.853923 46.042141 " transform="matrix(0.010864, 0, 0, -0.010864, 85.903818, 45.883016)"/>
<path fill-rule="nonzero" fill="rgb(0%, 0%, 0%)" fill-opacity="1" stroke-width="11.045625" stroke-linecap="butt" stroke-linejoin="miter" stroke="rgb(0%, 0%, 0%)" stroke-opacity="0.0326" stroke-miterlimit="4" d="M 375.839069 495.130225 C 375.839069 505.557411 375.839069 518.861061 375.839069 535.041176 C 375.839069 550.861733 376.198627 562.008035 376.917743 568.120522 C 376.917743 597.963846 373.68172 616.660868 366.850116 623.85203 C 360.37807 631.40275 343.478839 635.717448 316.152422 637.15568 L 298.174516 637.15568 L 298.174516 660.1674 C 298.174516 675.26884 298.534075 683.179119 299.972307 683.179119 L 310.039934 683.898235 C 316.51198 684.617351 326.220049 685.336468 339.164141 686.055584 C 351.748675 686.7747 363.973651 687.493816 375.839069 687.853374 C 387.344929 688.572491 399.569905 689.291607 412.873555 690.010723 C 426.177205 690.729839 436.244832 691.808514 443.076436 692.887188 C 449.548482 694.32542 453.503622 694.684979 453.86318 693.965862 L 457.099203 693.965862 L 457.099203 390.139256 C 457.099203 185.910248 457.458761 83.076627 458.177877 80.919278 C 459.975668 67.615628 464.649923 58.986233 471.841085 55.031094 C 479.391806 51.075955 494.493247 47.839932 517.145408 46.042141 L 535.123313 46.042141 L 535.123313 0.0187028 C 533.685081 0.0187028 508.156455 -1.779088 458.896993 -5.015111 C 409.637532 -8.251134 383.389789 -10.408482 380.153766 -11.127599 L 372.962604 -11.127599 L 372.962604 43.884793 L 365.052326 37.053189 C 326.220049 5.052516 283.073076 -11.127599 234.892288 -11.127599 C 183.835036 -11.127599 137.45204 9.367214 96.102857 49.997281 C 54.753673 90.627347 33.899303 145.639739 33.899303 215.034455 C 33.899303 281.552706 55.113232 335.845981 96.821973 377.91428 C 138.890272 419.98258 188.149734 441.196508 243.881241 441.915625 C 293.859819 441.915625 338.085467 425.735509 375.839069 393.015721 Z M 372.962604 341.958469 C 343.119281 384.026768 305.365679 404.881139 260.061356 404.881139 C 227.341568 404.881139 198.217361 393.015721 173.048293 368.925327 C 155.070387 350.228306 143.564528 329.014377 138.890272 304.923983 C 134.216017 280.83359 131.69911 249.552034 130.979994 211.079316 C 130.979994 173.685272 133.4969 143.48239 138.171156 120.111113 C 142.845411 96.739835 154.351271 76.245023 173.048293 58.986233 C 192.823989 37.053189 219.071731 25.906887 251.072404 25.906887 C 298.174516 25.906887 339.164141 51.795071 372.962604 102.852323 Z M 372.962604 341.958469 " transform="matrix(0.010864, 0, 0, -0.010864, 91.944217, 45.883016)"/>
<path fill-rule="nonzero" fill="rgb(0%, 0%, 0%)" fill-opacity="1" stroke-width="11.045625" stroke-linecap="butt" stroke-linejoin="miter" stroke="rgb(0%, 0%, 0%)" stroke-opacity="0.0326" stroke-miterlimit="4" d="M 69.012761 609.110147 C 69.012761 627.807169 75.125249 642.189494 86.990667 652.976237 C 98.856085 663.762981 113.597967 669.156352 130.856757 669.156352 C 146.317756 667.71812 159.621406 661.96519 171.127266 651.897563 C 182.273567 641.829936 188.026497 627.807169 188.026497 609.110147 C 188.026497 588.974893 182.273567 573.873452 171.127266 564.165383 C 159.621406 554.097756 145.598639 549.063942 129.058966 549.063942 C 112.159735 549.063942 98.496527 554.097756 86.990667 564.165383 C 75.844365 573.873452 69.731877 588.974893 69.012761 609.110147 Z M 246.994028 0.0187028 C 236.9264 2.176052 202.408821 2.895168 143.081733 2.895168 C 135.531012 2.895168 123.306036 2.895168 106.047247 2.895168 C 88.788457 2.895168 71.889226 2.176052 56.068669 1.097377 L 34.135624 0.0187028 L 25.865788 0.0187028 L 25.865788 46.042141 L 42.045903 46.042141 C 60.742925 46.042141 76.92304 47.120816 90.945806 48.918606 C 97.058294 51.795071 100.653875 55.390652 102.092108 60.064908 C 103.170782 64.739163 103.889898 78.76193 103.889898 102.133207 L 103.889898 293.058566 C 103.889898 327.576144 103.170782 349.509189 102.092108 358.8577 C 100.653875 368.206211 95.97962 374.678257 88.069341 377.91428 C 78.72083 382.588536 62.900273 385.105443 40.967228 385.105443 L 29.820927 385.105443 L 29.820927 408.117162 C 29.820927 423.218603 30.540043 431.128881 31.978276 431.128881 L 42.045903 431.847997 C 48.517949 432.567114 57.86646 433.28623 70.091436 434.005346 C 81.956853 434.724462 93.822271 435.443579 106.047247 436.162695 C 117.193548 436.522253 129.418524 437.241369 142.003058 437.960485 C 154.587592 438.679602 164.295661 439.758276 171.127266 440.83695 C 177.599312 442.275183 181.194893 442.634741 181.914009 441.915625 L 185.150032 441.915625 L 185.150032 61.862698 C 188.386055 55.390652 192.341194 51.435513 197.01545 49.997281 C 201.689705 48.559048 213.195565 47.480374 231.892587 46.042141 L 254.904306 46.042141 L 254.904306 0.0187028 Z M 246.994028 0.0187028 " transform="matrix(0.010864, 0, 0, -0.010864, 97.984618, 45.883016)"/>
<path fill-rule="nonzero" fill="rgb(0%, 0%, 0%)" fill-opacity="1" stroke-width="11.045625" stroke-linecap="butt" stroke-linejoin="miter" stroke="rgb(0%, 0%, 0%)" stroke-opacity="0.0326" stroke-miterlimit="4" d="M 40.905831 46.042141 L 54.928597 46.042141 C 81.17634 46.042141 96.637338 50.716397 102.03071 60.064908 L 102.03071 67.975186 C 102.03071 74.087674 102.03071 81.638395 102.03071 90.986906 C 102.03071 100.335417 102.03071 110.762602 102.03071 121.908903 C 102.03071 133.414763 102.390268 146.358855 103.109385 161.100738 C 103.828501 175.84262 103.828501 189.505829 103.109385 203.169037 C 103.109385 223.66385 103.109385 245.596894 103.109385 268.968172 C 103.109385 292.339449 102.749826 312.115146 102.03071 327.935703 L 102.03071 350.947422 C 99.873362 363.531956 95.199106 372.161351 88.007944 376.11649 C 80.816781 380.071629 65.715341 382.948094 43.06318 385.105443 L 25.085274 385.105443 L 25.085274 408.117162 C 25.085274 423.218603 25.80439 431.128881 26.883064 431.128881 L 36.950692 431.847997 C 43.782296 432.567114 53.130807 433.28623 64.996224 434.005346 C 76.861642 434.724462 89.446176 435.443579 102.03071 436.162695 C 113.177012 436.522253 125.401988 437.241369 137.986522 437.960485 C 150.571056 438.679602 160.279125 439.758276 167.110729 440.83695 C 173.582775 442.275183 177.178356 442.634741 177.897472 441.915625 L 181.133495 441.915625 L 181.133495 402.004674 C 181.133495 376.835606 181.493053 363.891514 181.852611 363.891514 C 182.571728 363.891514 184.369518 365.689304 186.886425 368.925327 C 189.76289 372.161351 193.718029 377.195164 199.111401 384.026768 C 204.504773 390.498814 210.617261 396.611302 218.167981 402.004674 C 225.359143 407.398046 235.067212 413.510534 246.93263 421.061254 C 259.157606 428.252416 271.74214 433.645788 285.04579 436.881811 C 298.34944 440.477392 315.248672 441.915625 336.103042 441.915625 C 411.969804 439.398718 454.397662 401.645116 463.027056 329.014377 C 463.746173 324.340121 464.105731 277.957125 464.105731 189.865387 L 464.105731 103.930998 C 464.105731 78.76193 464.824847 63.660489 465.903521 58.986233 C 467.341754 54.311978 470.937335 51.075955 477.049823 48.918606 C 491.072589 47.120816 507.252704 46.042141 525.949726 46.042141 L 542.129841 46.042141 L 542.129841 0.0187028 L 533.860005 0.0187028 L 510.129169 1.097377 C 494.66817 1.816493 478.128497 2.176052 460.150591 2.176052 C 442.172686 2.176052 429.228594 2.176052 422.037431 2.895168 C 353.361832 2.895168 315.967788 2.176052 309.8553 0.0187028 L 301.945021 0.0187028 L 301.945021 46.042141 L 318.125137 46.042141 C 358.755203 46.042141 378.890458 51.435513 378.890458 61.862698 C 379.609574 63.300931 379.969132 109.324369 379.969132 199.933014 C 379.250016 289.822542 378.5309 337.643772 378.171342 343.037143 C 373.856644 361.734165 367.384598 375.756932 358.036087 385.105443 C 348.687576 394.453954 340.777298 399.847325 333.945694 402.004674 C 327.473647 404.162023 318.844253 404.521581 308.057509 404.162023 C 277.854628 404.162023 251.606886 392.656163 228.954724 370.004002 C 210.976819 352.026096 199.830517 333.688632 195.156262 314.99161 C 190.482006 296.294589 187.605541 268.608614 186.886425 231.933686 L 186.886425 107.886137 C 186.886425 88.110441 187.245983 74.80679 187.965099 67.975186 C 188.684216 61.50314 189.76289 56.828885 190.841564 55.031094 C 192.279797 52.873746 195.156262 51.075955 199.830517 48.918606 C 213.853284 47.120816 230.392957 46.042141 249.089979 46.042141 L 264.910536 46.042141 L 264.910536 0.0187028 L 257.000257 0.0187028 L 233.988538 1.097377 C 218.167981 1.816493 200.909191 2.176052 182.931286 2.176052 C 164.95338 2.176052 152.368846 2.176052 145.177684 2.895168 C 76.502084 2.895168 39.10804 2.176052 32.995552 0.0187028 L 25.085274 0.0187028 L 25.085274 46.042141 Z M 40.905831 46.042141 " transform="matrix(0.010864, 0, 0, -0.010864, 101.004817, 45.883016)"/>
<path fill-rule="nonzero" fill="rgb(0%, 0%, 0%)" fill-opacity="1" stroke-width="11.045625" stroke-linecap="butt" stroke-linejoin="miter" stroke="rgb(0%, 0%, 0%)" stroke-opacity="0.0326" stroke-miterlimit="4" d="M 329.148201 408.836278 C 358.272408 438.320043 391.711313 453.061926 429.105357 453.061926 C 448.881053 453.061926 463.263378 446.58988 471.892772 434.005346 C 480.522167 421.420812 484.836864 408.836278 484.836864 395.892186 C 484.836864 386.543675 481.9604 378.273838 475.847912 371.082676 C 470.094982 363.531956 461.106029 359.936375 448.881053 359.936375 C 426.948008 359.936375 414.723032 370.004002 411.846567 390.139256 C 410.767893 399.487767 411.487009 406.319371 415.08259 410.993627 C 415.08259 411.712743 415.442149 412.791417 416.161265 413.870092 L 416.161265 414.948766 C 397.464243 413.150975 379.845895 405.600255 362.946664 393.015721 C 357.553292 389.779698 355.036385 387.262791 355.036385 385.824559 C 355.036385 385.465001 356.474618 383.66721 358.991525 381.150303 C 361.508431 378.273838 364.744455 374.318699 367.980478 368.925327 C 371.216501 363.531956 375.17164 357.779026 379.126779 350.947422 C 383.081918 344.475376 385.958383 335.845981 388.115732 325.059238 C 389.913522 314.272494 391.351755 303.485751 392.070871 291.979891 C 392.070871 250.630708 375.531198 215.753571 343.170968 186.988922 C 310.451179 158.224273 269.821112 143.841948 221.999883 143.122832 C 188.560979 143.122832 155.84119 152.471343 123.121402 171.168365 C 115.570682 158.943389 111.975101 146.358855 111.975101 133.055205 C 111.975101 109.683928 120.604495 92.425138 137.863285 80.919278 C 143.975773 76.964139 149.728703 75.166349 155.122074 75.166349 C 160.155888 75.166349 184.246281 74.447232 227.033697 73.009 C 283.124763 72.289884 319.080574 70.492093 334.901131 66.896512 C 375.531198 61.143582 407.53187 47.480374 430.903147 25.906887 C 457.15089 0.0187028 470.094982 -32.701086 470.094982 -71.89292 C 470.094982 -116.837684 443.84724 -150.995705 392.070871 -175.086099 C 352.159921 -195.580911 304.69825 -206.008096 250.045416 -206.008096 C 194.673467 -206.008096 146.852238 -195.580911 106.941287 -175.086099 C 55.164919 -151.714821 28.917176 -118.275917 28.917176 -75.128943 C 28.917176 -51.038549 36.108339 -30.903295 50.131105 -15.082738 C 64.153871 1.097377 78.176638 11.884121 91.839846 17.996609 L 102.986148 24.109096 C 78.895754 44.603909 67.030336 72.649442 67.030336 107.886137 C 67.030336 139.167693 76.738405 167.572784 96.154544 193.10141 C 66.670778 222.225617 51.928896 255.304964 51.928896 291.979891 C 51.928896 334.04819 68.828127 369.284886 101.907473 398.049535 C 135.346378 426.814184 175.616887 441.196508 223.078558 441.915625 C 256.87702 441.915625 288.518134 433.28623 318.0019 416.02744 Z M 298.94532 343.037143 C 295.709297 361.734165 287.079902 376.476048 273.057136 386.903233 C 259.034369 397.689977 241.77558 403.442906 220.921209 404.162023 C 201.505071 404.162023 184.965398 398.768651 170.942631 387.981908 C 156.919865 377.195164 148.29047 362.453281 145.054447 343.037143 C 142.897098 331.531284 142.177982 314.632052 142.177982 291.979891 C 142.177982 262.496126 144.335331 240.922639 149.009586 226.899873 C 153.683842 212.877106 163.751469 201.371247 178.85291 192.022736 C 190.358769 185.191131 204.741094 181.955108 221.999883 181.955108 C 236.741766 181.955108 249.3263 184.472015 260.113043 189.146271 C 270.540229 193.820526 278.450507 199.573456 283.124763 207.124176 C 287.799018 214.315339 291.394599 221.146943 293.911506 226.899873 C 296.787971 233.012361 298.226203 238.046174 298.94532 242.001313 C 301.102668 252.788057 301.821785 269.32773 301.821785 291.979891 C 301.821785 314.632052 301.102668 331.531284 298.94532 343.037143 Z M 402.857615 -75.128943 C 402.857615 -58.229712 398.183359 -44.566503 388.834848 -34.139318 C 379.845895 -23.352575 365.823129 -15.801854 347.845223 -11.127599 C 329.867317 -6.453343 313.687202 -3.21732 298.94532 -2.138646 C 284.203437 -0.700413 266.225531 0.0187028 245.011603 0.0187028 L 218.044744 0.0187028 C 173.459538 0.0187028 146.492679 -2.138646 137.863285 -6.093785 C 124.559635 -11.846715 114.492007 -21.195226 106.941287 -34.139318 C 99.750125 -46.723852 95.794985 -60.027502 95.075869 -74.050269 C 95.075869 -80.522315 96.87366 -88.432593 100.828799 -97.061988 C 105.143496 -105.691383 111.975101 -115.75901 122.042728 -126.905311 C 132.110355 -138.411171 147.930912 -147.759682 169.863957 -154.950844 C 192.15656 -162.501565 218.76386 -166.456704 250.045416 -167.17582 C 296.068855 -167.17582 333.103341 -157.827309 361.148873 -139.130287 C 388.834848 -120.433265 402.857615 -98.859778 402.857615 -75.128943 Z M 402.857615 -75.128943 " transform="matrix(0.010864, 0, 0, -0.010864, 107.045218, 45.883016)"/>
<path fill-rule="nonzero" fill="rgb(100%, 100%, 100%)" fill-opacity="1" stroke-width="1" stroke-linecap="butt" stroke-linejoin="miter" stroke="rgb(0%, 0%, 0%)" stroke-opacity="1" stroke-miterlimit="4" d="M 480.003366 200.000913 C 480.003366 201.306509 479.93505 202.619695 479.806009 203.9177 C 479.676967 205.223295 479.4872 206.5213 479.229118 207.804123 C 478.978625 209.086947 478.659817 210.354589 478.280284 211.61464 C 477.90075 212.867101 477.452901 214.09679 476.951916 215.303706 C 476.450932 216.518214 475.896813 217.702358 475.274378 218.85614 C 474.659534 220.009922 473.983964 221.133342 473.255259 222.226398 C 472.534146 223.311864 471.752307 224.359377 470.917333 225.376527 C 470.08995 226.386086 469.209432 227.357692 468.28337 228.283754 C 467.357308 229.209816 466.385702 230.090334 465.376143 230.917717 C 464.366583 231.752691 463.31148 232.53453 462.226014 233.255644 C 461.132958 233.984348 460.009538 234.659918 458.855756 235.274762 C 457.701974 235.897197 456.517829 236.451316 455.310913 236.952301 C 454.096405 237.453285 452.866717 237.893544 451.614256 238.280668 C 450.354205 238.660202 449.086562 238.97901 447.803739 239.229502 C 446.520916 239.487585 445.222911 239.677351 443.917315 239.806393 C 442.619311 239.935434 441.313715 240.00375 440.000529 240.00375 C 438.687343 240.00375 437.381748 239.935434 436.076152 239.806393 C 434.778147 239.677351 433.480143 239.487585 432.197319 239.229502 C 430.914496 238.97901 429.639263 238.660202 428.386802 238.280668 C 427.134341 237.893544 425.904653 237.453285 424.690145 236.952301 C 423.483229 236.451316 422.299084 235.897197 421.145302 235.274762 C 419.99152 234.659918 418.868101 233.984348 417.775044 233.255644 C 416.689578 232.53453 415.634475 231.752691 414.624915 230.917717 C 413.615356 230.090334 412.64375 229.209816 411.717688 228.283754 C 410.791626 227.357692 409.911109 226.386086 409.076135 225.376527 C 408.248752 224.359377 407.466912 223.311864 406.738208 222.226398 C 406.017094 221.133342 405.341525 220.009922 404.72668 218.85614 C 404.104245 217.702358 403.542535 216.518214 403.041551 215.303706 C 402.540567 214.09679 402.100308 212.867101 401.720774 211.61464 C 401.341241 210.354589 401.022433 209.086947 400.771941 207.804123 C 400.513858 206.5213 400.324091 205.223295 400.195049 203.9177 C 400.066008 202.619695 399.997692 201.306509 399.997692 200.000913 C 399.997692 198.687727 400.066008 197.382132 400.195049 196.076536 C 400.324091 194.778532 400.513858 193.480527 400.771941 192.197703 C 401.022433 190.91488 401.341241 189.639647 401.720774 188.387186 C 402.100308 187.134726 402.540567 185.905037 403.041551 184.69053 C 403.542535 183.483613 404.104245 182.299468 404.72668 181.145686 C 405.341525 179.991904 406.017094 178.868485 406.738208 177.775428 C 407.466912 176.689962 408.248752 175.634859 409.076135 174.6253 C 409.911109 173.60815 410.791626 172.644134 411.717688 171.718073 C 412.64375 170.792011 413.615356 169.911493 414.624915 169.076519 C 415.634475 168.249136 416.689578 167.467297 417.775044 166.738592 C 418.868101 166.009888 419.99152 165.341909 421.145302 164.719474 C 422.299084 164.104629 423.483229 163.54292 424.690145 163.041935 C 425.904653 162.540951 427.134341 162.100692 428.386802 161.721159 C 429.639263 161.341625 430.914496 161.022817 432.197319 160.772325 C 433.480143 160.514242 434.778147 160.324475 436.076152 160.195434 C 437.381748 160.066392 438.687343 159.998076 440.000529 159.998076 C 441.313715 159.998076 442.619311 160.066392 443.917315 160.195434 C 445.222911 160.324475 446.520916 160.514242 447.803739 160.772325 C 449.086562 161.022817 450.354205 161.341625 451.614256 161.721159 C 452.866717 162.100692 454.096405 162.540951 455.310913 163.041935 C 456.517829 163.54292 457.701974 164.104629 458.855756 164.719474 C 460.009538 165.341909 461.132958 166.009888 462.226014 166.738592 C 463.31148 167.467297 464.366583 168.249136 465.376143 169.076519 C 466.385702 169.911493 467.357308 170.792011 468.28337 171.718073 C 469.209432 172.644134 470.08995 173.60815 470.917333 174.6253 C 471.752307 175.634859 472.534146 176.689962 473.255259 177.775428 C 473.983964 178.868485 474.659534 179.991904 475.274378 181.145686 C 475.896813 182.299468 476.450932 183.483613 476.951916 184.69053 C 477.452901 185.905037 477.90075 187.134726 478.280284 188.387186 C 478.659817 189.639647 478.978625 190.91488 479.229118 192.197703 C 479.4872 193.480527 479.676967 194.778532 479.806009 196.076536 C 479.93505 197.382132 480.003366 198.687727 480.003366 200.000913 Z M 480.003366 200.000913 " transform="matrix(0.514612, 0, 0, 0.514612, -144.659994, -28.813483)"/>
<path fill-rule="nonzero" fill="rgb(0%, 0%, 0%)" fill-opacity="1" stroke-width="11.048229" stroke-linecap="butt" stroke-linejoin="miter" stroke="rgb(0%, 0%, 0%)" stroke-opacity="0.0326" stroke-miterlimit="4" d="M 308.16755 23.960635 C 347.368624 23.960635 383.332911 41.223493 416.060413 76.108852 C 448.787915 110.634569 465.331488 150.914571 466.050774 196.94886 C 466.050774 239.027076 448.787915 268.15815 413.902556 283.982436 C 343.412552 301.96458 298.097549 314.192438 277.957548 321.025653 C 258.17719 327.499225 244.151117 334.332439 235.879331 341.165654 C 195.958972 368.858156 176.178613 409.497801 176.178613 462.005661 C 176.178613 502.645306 186.608257 539.688523 207.827187 573.135311 C 229.405759 606.222455 250.984332 631.397457 272.922548 647.941029 C 292.343263 664.844245 315.72005 678.151031 343.052909 687.861389 C 370.385768 697.931389 391.604698 703.326033 407.069341 704.045318 L 425.051485 704.045318 C 489.067918 704.045318 535.461849 682.826388 563.873636 640.028886 C 564.592922 640.028886 568.908637 644.3446 576.82078 652.97603 C 585.092566 661.607459 593.723995 671.317816 603.07471 682.107103 C 612.425425 692.536746 618.898997 700.089247 622.855069 704.045318 C 623.574354 704.045318 625.012926 704.045318 627.170783 704.045318 C 628.968997 704.045318 630.767212 704.404961 631.846141 705.124247 C 640.837212 705.124247 645.152927 702.606747 645.152927 697.931389 C 645.152927 693.256032 635.802212 652.97603 617.100782 577.091382 C 598.399353 500.847092 587.610066 461.646018 585.092566 459.128518 C 582.215423 456.251375 576.82078 455.172446 568.908637 455.891732 C 555.60185 455.891732 549.128278 459.128518 549.128278 464.882804 C 549.128278 468.838876 549.487921 472.435305 549.847564 474.952805 C 549.847564 477.110662 550.207207 483.224591 550.926493 494.013877 C 551.645779 504.803164 552.365064 513.434593 553.08435 519.908165 C 553.08435 542.565666 549.847564 562.346024 544.093278 578.889597 C 537.979349 595.792812 531.86542 608.02067 526.111134 615.932813 C 519.997205 623.844956 511.725419 632.476385 500.936133 641.107815 C 476.84006 655.133887 449.507201 661.967102 418.937556 661.967102 C 381.175054 661.967102 345.570409 646.502458 312.842907 615.932813 C 280.475048 585.363168 263.571833 550.118166 262.852547 509.838164 C 262.852547 490.057806 267.887547 472.794947 277.957548 458.049589 C 288.027549 443.304231 301.693978 432.874588 318.956836 427.120302 C 321.833979 425.68173 344.851123 419.208159 389.087198 408.059229 C 432.963629 396.550657 455.261487 390.796371 455.980773 390.077085 C 478.638274 382.524585 500.57649 366.700298 522.155063 341.88494 C 543.373992 317.429224 554.163279 283.982436 554.163279 241.904219 C 554.163279 224.641361 551.286136 205.939932 545.891493 186.159573 C 542.654707 171.414215 536.540778 154.870643 527.909349 136.888499 C 519.27792 118.906355 507.409705 99.48564 491.945061 77.907067 C 476.84006 56.688137 454.542201 36.548136 426.130414 17.846706 C 397.358984 -0.495081 366.070053 -13.442224 331.90398 -19.915796 C 323.991837 -21.354368 312.842907 -22.073653 298.097549 -22.073653 C 231.92326 -22.073653 180.494328 -3.731867 144.170397 32.951707 L 134.100397 44.100636 L 106.048252 13.171349 C 90.583608 -5.170438 81.232894 -15.240439 77.996108 -18.117582 C 74.759322 -20.635082 70.443607 -22.073653 65.048964 -22.073653 C 56.417535 -22.073653 52.10182 -19.19651 52.10182 -14.16151 C 52.10182 -12.003653 71.162893 66.398495 110.004324 221.044932 C 111.442895 225.001004 117.916467 227.158861 130.144325 227.158861 L 143.091469 227.158861 C 147.04754 222.843147 148.845755 219.246718 148.845755 216.009932 C 148.845755 214.571361 148.845755 211.694218 148.126469 207.01886 C 147.407183 202.343503 145.968612 195.510288 144.170397 186.159573 C 142.01254 176.808858 141.293254 165.659929 142.01254 153.072428 C 143.451112 127.178141 149.205398 104.880283 159.994684 86.898139 C 170.78397 68.915995 185.169685 55.609208 203.151829 46.977779 C 221.133973 38.34635 238.396831 32.232421 254.940404 28.995635 C 271.843619 25.758849 289.46612 23.960635 308.16755 23.960635 Z M 308.16755 23.960635 " transform="matrix(0.0108615, 0, 0, -0.0108615, 75.852066, 76.877435)"/>
<path fill-rule="nonzero" fill="rgb(0%, 0%, 0%)" fill-opacity="1" stroke-width="15.626915" stroke-linecap="butt" stroke-linejoin="miter" stroke="rgb(0%, 0%, 0%)" stroke-opacity="0.023" stroke-miterlimit="4" d="M 95.96158 584.841338 C 133.095852 638.762335 184.473406 666.231522 249.076865 666.231522 C 281.12425 666.231522 313.171635 657.583815 345.219021 639.779712 C 376.757717 622.484298 403.209527 591.962979 423.048385 548.215755 C 447.46544 492.768692 460.182656 416.465394 460.182656 319.814549 C 460.182656 216.550753 445.430685 137.704011 416.944121 82.765637 C 403.718216 54.787761 385.405424 32.914149 362.005746 16.127423 C 338.606068 -0.659302 318.258522 -10.833075 300.963108 -14.902585 C 283.667694 -18.972094 266.880968 -21.515537 250.094242 -22.024226 C 232.798828 -22.024226 215.503414 -19.989471 198.208 -15.919962 C 180.912586 -11.850453 160.565039 -1.167991 137.165361 16.127423 C 113.765683 33.422837 95.452892 55.805138 82.226987 82.765637 C 53.231733 137.704011 38.988451 216.550753 38.988451 319.814549 C 38.988451 435.795562 57.809931 524.307388 95.96158 584.841338 Z M 320.801965 597.049866 C 300.963108 618.414789 277.56343 629.097251 250.094242 629.097251 C 222.116366 629.097251 198.208 618.414789 177.860454 597.049866 C 161.582417 579.754451 150.391266 555.846085 144.795691 524.816077 C 139.708805 494.294758 137.165361 430.199987 137.165361 333.040454 C 137.165361 227.741903 139.708805 158.560246 144.795691 124.986795 C 150.391266 91.413344 162.091105 65.470223 180.912586 46.140054 C 199.734066 25.792508 222.625055 16.127423 250.094242 16.127423 C 276.546052 16.127423 299.437042 25.792508 317.749833 46.140054 C 337.080002 65.978911 349.28853 93.956787 353.866728 130.073682 C 358.444926 166.190576 361.497058 233.846167 362.005746 333.040454 C 362.005746 429.691299 359.462303 493.27738 353.866728 523.798699 C 348.779841 554.828707 337.588691 579.245763 320.801965 597.049866 Z M 320.801965 597.049866 " transform="matrix(0.00767906, 0, 0, -0.00767906, 82.868574, 78.506656)"/>
<path fill="none" stroke-width="1" stroke-linecap="butt" stroke-linejoin="miter" stroke="rgb(0%, 0%, 0%)" stroke-opacity="1" stroke-miterlimit="10" d="M 440.000529 240.00375 L 392.786554 287.210134 " transform="matrix(0.514612, 0, 0, 0.514612, -144.659994, -28.813483)"/>
<path fill-rule="nonzero" fill="rgb(0%, 0%, 0%)" fill-opacity="1" stroke-width="1" stroke-linecap="butt" stroke-linejoin="miter" stroke="rgb(0%, 0%, 0%)" stroke-opacity="1" stroke-miterlimit="10" d="M 389.067126 290.929563 L 391.549275 283.498296 L 392.786554 287.210134 L 396.498393 288.447414 Z M 389.067126 290.929563 " transform="matrix(0.514612, 0, 0, 0.514612, -144.659994, -28.813483)"/>
<path fill-rule="nonzero" fill="rgb(100%, 100%, 100%)" fill-opacity="1" d="M 60.414062 101.125 L 73.277344 101.125 L 73.277344 111.933594 L 60.414062 111.933594 Z M 60.414062 101.125 "/>
<path fill-rule="nonzero" fill="rgb(98.429871%, 98.429871%, 98.429871%)" fill-opacity="1" d="M 60.414062 101.125 L 73.277344 101.125 L 73.277344 111.417969 L 60.414062 111.417969 Z M 60.414062 101.125 "/>
<path fill-rule="nonzero" fill="rgb(0%, 0%, 0%)" fill-opacity="1" stroke-width="11.047199" stroke-linecap="butt" stroke-linejoin="miter" stroke="rgb(0%, 0%, 0%)" stroke-opacity="0.0326" stroke-miterlimit="4" d="M 207.963806 74.138469 C 207.963806 57.956049 223.427007 48.606206 253.993801 46.08894 C 265.860909 46.08894 271.974268 42.492847 271.974268 34.941051 C 271.974268 34.221832 271.255049 29.90652 270.176221 21.995115 C 268.018565 12.645272 265.860909 6.531913 264.062862 4.014648 C 261.905206 1.497383 257.589894 0.0589452 251.116926 0.0589452 C 249.678489 0.0589452 245.722786 0.0589452 238.890209 0.0589452 C 232.417241 0.0589452 220.909742 0.418555 205.086931 1.137773 C 188.904511 1.497383 167.68756 1.856992 141.076469 1.856992 C 93.608036 1.856992 63.400852 1.497383 50.095306 0.0589452 L 41.824291 0.0589452 C 37.508979 4.733867 34.991714 8.32996 34.991714 10.847225 C 36.430151 28.827692 40.745463 40.6948 47.93765 46.08894 L 61.962414 46.08894 C 108.711628 47.886987 142.514906 64.788626 164.091466 96.074638 C 168.047169 100.030341 228.461538 201.799784 344.974963 401.023357 C 461.488389 600.24693 520.82393 701.297154 522.981586 704.174029 C 527.656507 712.085434 535.567913 716.041137 547.075411 716.041137 L 571.888456 716.041137 C 575.844158 709.927778 578.001814 706.691294 578.001814 705.972076 L 606.051343 383.04289 C 624.751028 167.636897 634.82009 59.034877 635.898918 56.877221 C 639.495011 49.685034 661.071572 46.08894 700.988208 46.08894 C 717.530238 46.08894 726.160862 42.492847 726.160862 36.019879 C 726.160862 34.581442 725.082034 29.90652 722.924378 21.995115 C 721.126331 11.926053 719.328284 6.172304 717.889847 4.014648 C 716.811019 1.856992 712.136098 0.778164 703.865083 0.0589452 C 702.067036 0.0589452 697.392115 0.0589452 689.840319 0.0589452 C 682.648132 0.0589452 669.702196 0.418555 651.00251 1.137773 C 632.302824 1.497383 607.849389 1.856992 578.001814 1.856992 C 515.42979 1.856992 474.434325 1.497383 455.015421 0.0589452 L 443.148313 0.0589452 C 438.833001 4.014648 437.034954 6.891523 437.034954 9.049179 C 437.034954 10.847225 437.754173 16.960584 438.833001 27.029646 C 441.709875 35.66027 443.507922 41.05441 444.946359 42.852456 L 448.902062 46.08894 L 469.040185 46.08894 C 505.001119 47.886987 526.21807 53.640737 533.050647 62.990579 L 520.82393 212.947673 L 283.122157 212.947673 L 248.95927 155.05057 C 221.62896 109.020575 207.963806 82.049874 207.963806 74.138469 Z M 516.149008 260.056497 C 516.149008 267.248683 511.833696 319.392037 503.922291 416.126949 C 496.010885 512.502252 491.335964 561.409122 489.897527 562.128341 L 462.926826 518.97522 C 452.498155 500.994753 431.281205 465.393429 399.995192 412.171247 L 310.092858 260.056497 L 412.941128 258.977669 C 481.626512 258.977669 516.149008 259.337278 516.149008 260.056497 Z M 516.149008 260.056497 " transform="matrix(0.0108625, 0, 0, -0.0108625, 60.412872, 109.418609)"/>
<path fill-rule="nonzero" fill="rgb(0%, 0%, 0%)" fill-opacity="1" stroke-width="15.625457" stroke-linecap="butt" stroke-linejoin="miter" stroke="rgb(0%, 0%, 0%)" stroke-opacity="0.023" stroke-miterlimit="4" d="M 213.091433 577.960692 L 199.866763 572.87428 C 190.711222 569.822433 177.486551 566.261945 160.192752 563.210098 C 142.898952 559.64961 123.570587 557.106404 102.207658 556.089122 L 82.879294 556.089122 L 82.879294 601.866827 L 102.207658 601.866827 C 133.23477 603.39275 162.227316 608.479162 189.185298 617.126062 C 215.634639 625.772962 234.454362 633.91122 245.135827 641.032197 C 255.817291 648.153173 264.972832 655.782791 273.111091 662.903767 C 274.128373 664.938332 278.197503 665.955614 284.809838 665.955614 C 290.913532 665.955614 296.508585 663.921049 302.103638 659.85192 L 302.103638 360.770913 L 303.12092 61.181264 C 307.698691 56.094852 311.76782 53.551646 314.819667 52.025723 C 318.380155 50.499799 326.518414 49.482517 339.234443 47.956594 C 351.441831 46.43067 372.296119 45.922029 400.780025 45.922029 L 427.229365 45.922029 L 427.229365 0.144324 L 416.03926 0.144324 C 401.797307 2.178888 348.898625 3.196171 256.834574 3.196171 C 166.296446 3.196171 113.906405 2.178888 100.173094 0.144324 L 87.965705 0.144324 L 87.965705 45.922029 L 113.906405 45.922029 C 128.656999 45.922029 141.373028 45.922029 152.054493 45.922029 C 162.735957 45.922029 170.874216 46.43067 176.97791 46.939311 C 183.081604 47.447952 188.168016 48.465235 192.745786 49.991158 C 197.832198 51.517082 200.375404 52.025723 200.884045 52.025723 C 201.901327 52.025723 203.427251 53.551646 206.987739 57.112135 C 210.548227 60.163982 212.582792 61.689905 213.091433 61.181264 Z M 213.091433 577.960692 " transform="matrix(0.00767978, 0, 0, -0.00767978, 68.918193, 111.047983)"/>
<path fill-rule="nonzero" fill="rgb(100%, 100%, 100%)" fill-opacity="1" d="M 61.183594 135.863281 C 61.183594 136.535156 61.152344 137.210938 61.085938 137.878906 C 61.019531 138.550781 60.921875 139.21875 60.789062 139.878906 C 60.65625 140.539062 60.492188 141.191406 60.296875 141.835938 C 60.101562 142.484375 59.875 143.117188 59.617188 143.738281 C 59.359375 144.363281 59.070312 144.972656 58.753906 145.566406 C 58.4375 146.160156 58.089844 146.738281 57.714844 147.296875 C 57.339844 147.859375 56.941406 148.398438 56.511719 148.921875 C 56.085938 149.441406 55.632812 149.941406 55.15625 150.417969 C 54.679688 150.894531 54.179688 151.347656 53.660156 151.773438 C 53.136719 152.203125 52.597656 152.601562 52.035156 152.976562 C 51.476562 153.351562 50.898438 153.699219 50.304688 154.015625 C 49.710938 154.335938 49.101562 154.621094 48.476562 154.878906 C 47.855469 155.136719 47.222656 155.363281 46.574219 155.558594 C 45.929688 155.757812 45.277344 155.917969 44.617188 156.050781 C 43.953125 156.183594 43.289062 156.28125 42.617188 156.347656 C 41.945312 156.414062 41.273438 156.445312 40.601562 156.445312 C 39.925781 156.445312 39.253906 156.414062 38.582031 156.347656 C 37.910156 156.28125 37.246094 156.183594 36.585938 156.050781 C 35.921875 155.917969 35.269531 155.757812 34.625 155.558594 C 33.980469 155.363281 33.347656 155.136719 32.722656 154.878906 C 32.101562 154.621094 31.492188 154.335938 30.898438 154.015625 C 30.300781 153.699219 29.726562 153.351562 29.164062 152.976562 C 28.605469 152.601562 28.0625 152.203125 27.542969 151.773438 C 27.019531 151.347656 26.523438 150.894531 26.042969 150.417969 C 25.566406 149.941406 25.117188 149.441406 24.6875 148.921875 C 24.261719 148.398438 23.859375 147.859375 23.484375 147.296875 C 23.109375 146.738281 22.765625 146.160156 22.445312 145.566406 C 22.128906 144.972656 21.839844 144.363281 21.582031 143.738281 C 21.324219 143.117188 21.097656 142.484375 20.902344 141.835938 C 20.707031 141.191406 20.542969 140.539062 20.410156 139.878906 C 20.28125 139.21875 20.179688 138.550781 20.113281 137.878906 C 20.050781 137.210938 20.015625 136.535156 20.015625 135.863281 C 20.015625 135.1875 20.050781 134.515625 20.113281 133.84375 C 20.179688 133.171875 20.28125 132.507812 20.410156 131.847656 C 20.542969 131.183594 20.707031 130.53125 20.902344 129.886719 C 21.097656 129.242188 21.324219 128.609375 21.582031 127.984375 C 21.839844 127.363281 22.128906 126.753906 22.445312 126.160156 C 22.765625 125.5625 23.109375 124.988281 23.484375 124.425781 C 23.859375 123.867188 24.261719 123.324219 24.6875 122.804688 C 25.117188 122.28125 25.566406 121.785156 26.042969 121.308594 C 26.523438 120.832031 27.019531 120.378906 27.542969 119.949219 C 28.0625 119.523438 28.605469 119.121094 29.164062 118.746094 C 29.726562 118.371094 30.300781 118.027344 30.898438 117.707031 C 31.492188 117.390625 32.101562 117.101562 32.722656 116.84375 C 33.347656 116.585938 33.980469 116.359375 34.625 116.164062 C 35.269531 115.96875 35.921875 115.804688 36.585938 115.671875 C 37.246094 115.542969 37.910156 115.441406 38.582031 115.378906 C 39.253906 115.3125 39.925781 115.277344 40.601562 115.277344 C 41.273438 115.277344 41.945312 115.3125 42.617188 115.378906 C 43.289062 115.441406 43.953125 115.542969 44.617188 115.671875 C 45.277344 115.804688 45.929688 115.96875 46.574219 116.164062 C 47.222656 116.359375 47.855469 116.585938 48.476562 116.84375 C 49.101562 117.101562 49.710938 117.390625 50.304688 117.707031 C 50.898438 118.027344 51.476562 118.371094 52.035156 118.746094 C 52.597656 119.121094 53.136719 119.523438 53.660156 119.949219 C 54.179688 120.378906 54.679688 120.832031 55.15625 121.308594 C 55.632812 121.785156 56.085938 122.28125 56.511719 122.804688 C 56.941406 123.324219 57.339844 123.867188 57.714844 124.425781 C 58.089844 124.988281 58.4375 125.5625 58.753906 126.160156 C 59.070312 126.753906 59.359375 127.363281 59.617188 127.984375 C 59.875 128.609375 60.101562 129.242188 60.296875 129.886719 C 60.492188 130.53125 60.65625 131.183594 60.789062 131.847656 C 60.921875 132.507812 61.019531 133.171875 61.085938 133.84375 C 61.152344 134.515625 61.183594 135.1875 61.183594 135.863281 Z M 61.183594 135.863281 "/>
<g clip-path="url(#clip-1)">
<path fill="none" stroke-width="1" stroke-linecap="butt" stroke-linejoin="miter" stroke="rgb(0%, 0%, 0%)" stroke-opacity="1" stroke-miterlimit="4" d="M 399.997692 320.001834 C 399.997692 321.307429 399.936967 322.620615 399.807925 323.91862 C 399.678884 325.224215 399.489117 326.52222 399.231034 327.805044 C 398.972951 329.087867 398.654143 330.355509 398.27461 331.60797 C 397.895076 332.868021 397.454817 334.09771 396.953833 335.304627 C 396.452849 336.519134 395.891139 337.703279 395.276295 338.857061 C 394.66145 340.010843 393.98588 341.134262 393.257176 342.219728 C 392.528472 343.312785 391.754223 344.360297 390.919249 345.377447 C 390.091866 346.387007 389.211348 347.358613 388.285286 348.284674 C 387.359225 349.210736 386.387619 350.091254 385.378059 350.918637 C 384.360909 351.753611 383.313397 352.52786 382.22034 353.256564 C 381.134874 353.985268 380.011455 354.660838 378.857673 355.275683 C 377.703891 355.898118 376.519746 356.452237 375.305239 356.953221 C 374.098322 357.454205 372.868633 357.894464 371.608582 358.273998 C 370.356121 358.661122 369.088479 358.972339 367.805656 359.230422 C 366.515242 359.488505 365.224827 359.678272 363.919232 359.807313 C 362.613637 359.936355 361.308041 359.99708 360.002446 359.99708 C 358.68926 359.99708 357.383664 359.936355 356.078069 359.807313 C 354.772473 359.678272 353.482059 359.488505 352.199236 359.230422 C 350.908822 358.972339 349.64118 358.661122 348.388719 358.273998 C 347.136258 357.894464 345.906569 357.454205 344.692062 356.953221 C 343.485145 356.452237 342.301001 355.898118 341.147219 355.275683 C 339.985846 354.660838 338.870017 353.985268 337.776961 353.256564 C 336.691495 352.52786 335.636391 351.753611 334.626832 350.918637 C 333.609682 350.091254 332.645667 349.210736 331.712014 348.284674 C 330.785952 347.358613 329.913025 346.387007 329.078051 345.377447 C 328.250668 344.360297 327.468829 343.312785 326.740125 342.219728 C 326.01142 341.134262 325.343441 340.010843 324.721006 338.857061 C 324.106162 337.703279 323.544452 336.519134 323.043468 335.304627 C 322.542484 334.09771 322.102225 332.868021 321.722691 331.60797 C 321.343157 330.355509 321.024349 329.087867 320.766266 327.805044 C 320.515774 326.52222 320.318417 325.224215 320.189375 323.91862 C 320.067925 322.620615 319.999609 321.307429 319.999609 320.001834 C 319.999609 318.688648 320.067925 317.383052 320.189375 316.077457 C 320.318417 314.771861 320.515774 313.481447 320.766266 312.198624 C 321.024349 310.90821 321.343157 309.640568 321.722691 308.388107 C 322.102225 307.135646 322.542484 305.905957 323.043468 304.69145 C 323.544452 303.484533 324.106162 302.300389 324.721006 301.146607 C 325.343441 299.985234 326.01142 298.869405 326.740125 297.776349 C 327.468829 296.690883 328.250668 295.635779 329.078051 294.62622 C 329.913025 293.60907 330.785952 292.645055 331.712014 291.718993 C 332.645667 290.792931 333.609682 289.912413 334.626832 289.077439 C 335.636391 288.250056 336.691495 287.468217 337.776961 286.739513 C 338.870017 286.010808 339.985846 285.342829 341.147219 284.720394 C 342.301001 284.10555 343.485145 283.54384 344.692062 283.042856 C 345.906569 282.541872 347.136258 282.101613 348.388719 281.722079 C 349.64118 281.342545 350.908822 281.023737 352.199236 280.765654 C 353.482059 280.515162 354.772473 280.317805 356.078069 280.196354 C 357.383664 280.067313 358.68926 279.998997 360.002446 279.998997 C 361.308041 279.998997 362.613637 280.067313 363.919232 280.196354 C 365.224827 280.317805 366.515242 280.515162 367.805656 280.765654 C 369.088479 281.023737 370.356121 281.342545 371.608582 281.722079 C 372.868633 282.101613 374.098322 282.541872 375.305239 283.042856 C 376.519746 283.54384 377.703891 284.10555 378.857673 284.720394 C 380.011455 285.342829 381.134874 286.010808 382.22034 286.739513 C 383.313397 287.468217 384.360909 288.250056 385.378059 289.077439 C 386.387619 289.912413 387.359225 290.792931 388.285286 291.718993 C 389.211348 292.645055 390.091866 293.60907 390.919249 294.62622 C 391.754223 295.635779 392.528472 296.690883 393.257176 297.776349 C 393.98588 298.869405 394.66145 299.985234 395.276295 301.146607 C 395.891139 302.300389 396.452849 303.484533 396.953833 304.69145 C 397.454817 305.905957 397.895076 307.135646 398.27461 308.388107 C 398.654143 309.640568 398.972951 310.90821 399.231034 312.198624 C 399.489117 313.481447 399.678884 314.771861 399.807925 316.077457 C 399.936967 317.383052 399.997692 318.688648 399.997692 320.001834 Z M 399.997692 320.001834 " transform="matrix(0.514612, 0, 0, 0.514612, -144.659994, -28.813483)"/>
</g>
<path fill-rule="nonzero" fill="rgb(0%, 0%, 0%)" fill-opacity="1" stroke-width="11.046195" stroke-linecap="butt" stroke-linejoin="miter" stroke="rgb(0%, 0%, 0%)" stroke-opacity="0.0326" stroke-miterlimit="4" d="M 307.82585 24.140531 C 347.379284 24.140531 383.336951 41.400211 416.058427 75.919571 C 448.779904 110.798508 465.320431 151.071095 466.039585 197.096909 C 466.039585 239.167379 448.779904 267.933513 413.900967 284.114463 C 343.42394 302.093297 298.11728 314.318903 277.980986 321.15086 C 257.844693 327.62324 243.821203 334.455197 235.910516 340.927577 C 195.997506 368.974557 175.861212 409.247144 175.861212 462.104915 C 175.861212 502.737078 186.648512 539.773475 207.863536 572.854529 C 229.438136 606.295159 251.012736 631.465526 272.946913 648.006053 C 292.364053 664.54658 315.736537 677.850916 343.064364 687.919063 C 370.39219 697.98721 391.607214 703.38086 407.069011 704.100013 L 425.047844 704.100013 C 489.052491 704.100013 535.437882 682.525413 563.844439 640.095366 C 564.563592 640.095366 568.878512 644.410286 577.148775 653.040126 C 585.059462 661.669966 593.689302 671.378536 603.038296 682.165836 C 612.387289 692.59356 618.859669 700.14467 623.174589 704.100013 C 623.534166 704.100013 624.972473 704.100013 627.129933 704.100013 C 628.927816 704.100013 630.725699 704.45959 632.164006 705.178743 C 640.793846 705.178743 645.108766 702.661707 645.108766 697.98721 C 645.108766 693.312713 635.759773 653.040126 617.061786 577.169449 C 598.363799 500.939195 587.576499 461.745338 585.059462 458.868725 C 582.182849 456.351688 577.148775 455.272958 568.878512 455.992111 C 555.574175 455.992111 549.101795 458.868725 549.101795 464.981528 C 549.101795 468.936871 549.461372 472.173061 549.820949 475.049675 C 549.820949 476.847558 550.180525 483.319938 550.899679 494.107238 C 551.618832 504.534962 552.337985 513.164802 553.057139 519.996758 C 553.057139 542.650089 549.820949 562.426805 544.067722 578.967332 C 537.954918 595.507859 531.842115 608.093042 526.088888 616.003729 C 519.976085 623.914416 511.705822 632.184679 500.918522 641.174096 C 476.826885 654.83801 449.499058 662.029543 418.935041 662.029543 C 381.17949 662.029543 345.5814 646.567746 312.859923 616.003729 C 280.498023 585.439712 263.59792 549.841622 262.878766 509.928612 C 262.878766 490.151895 267.91284 472.532638 277.980986 458.149571 C 288.049133 443.406928 301.713046 432.979204 318.972727 426.866401 C 321.489763 425.787671 344.862247 419.315291 389.090177 408.168414 C 432.958531 396.661961 455.252284 390.549157 455.971438 389.830004 C 478.624768 382.638471 500.558945 366.817097 522.133545 342.006307 C 543.348569 317.195517 554.135869 284.114463 554.135869 242.043993 C 554.135869 224.784313 551.259255 206.086326 545.865605 185.950032 C 542.629415 171.207389 536.516612 155.026439 527.886772 137.047605 C 519.256932 119.068772 507.390902 99.292055 491.929105 78.077031 C 476.826885 56.502431 454.533131 36.725714 426.126574 18.027727 C 397.360441 -0.670259 366.07727 -13.255443 331.917487 -20.0874 C 324.0068 -21.16613 312.500347 -21.885283 298.11728 -21.885283 C 231.955173 -21.885283 180.535709 -3.546873 143.858888 33.129948 L 134.150318 43.917248 L 106.103338 12.993654 C 90.641541 -4.985179 81.292548 -15.412903 78.056358 -17.92994 C 74.820168 -20.806553 70.505248 -21.885283 65.111598 -21.885283 C 56.481758 -21.885283 52.166838 -19.368246 52.166838 -13.974596 C 52.166838 -12.176713 71.224401 66.211001 110.058682 220.828969 C 111.496988 225.143889 117.969368 226.941773 129.835398 226.941773 L 143.139735 226.941773 C 147.095079 222.986429 148.892962 219.390662 148.892962 216.154472 C 148.892962 214.716166 148.533385 211.839552 148.173809 207.165056 C 147.454655 202.490559 146.016349 195.299026 143.858888 185.950032 C 142.061005 176.601039 141.341852 165.813739 142.061005 152.868979 C 143.499312 126.979458 149.252539 105.045282 160.039839 87.066448 C 170.827139 69.087615 184.850629 55.783278 202.829462 47.153438 C 221.167872 38.164021 238.427553 32.410794 254.968079 29.174604 C 271.508606 25.578838 289.48744 24.140531 307.82585 24.140531 Z M 307.82585 24.140531 " transform="matrix(0.0108635, 0, 0, -0.0108635, 34.167662, 139.004437)"/>
<path fill-rule="nonzero" fill="rgb(0%, 0%, 0%)" fill-opacity="1" stroke-width="15.624038" stroke-linecap="butt" stroke-linejoin="miter" stroke="rgb(0%, 0%, 0%)" stroke-opacity="0.023" stroke-miterlimit="4" d="M 213.114806 578.07594 L 199.891336 572.98999 C 190.736627 569.429825 177.513157 566.378255 160.220928 562.81809 C 142.420104 559.76652 123.093494 557.223545 102.2411 556.206355 L 82.914491 556.206355 L 82.914491 601.979904 L 102.2411 601.979904 C 133.265394 603.505689 162.255308 608.083043 189.210842 617.237753 C 215.657781 625.883868 234.475795 633.512792 245.15629 641.141717 C 255.836784 648.262047 264.991494 655.890972 273.129014 663.011301 C 274.146204 665.045681 278.214963 666.062871 284.826698 666.062871 C 290.929838 666.062871 296.524383 664.028491 302.118928 659.959731 L 302.118928 360.905883 L 303.136118 60.834844 C 307.713472 56.257489 311.782232 53.205919 314.833802 52.188729 C 318.393967 50.662944 326.531487 49.137159 339.246361 48.119969 C 351.452641 46.594184 372.305035 46.085589 400.786354 46.085589 L 427.233293 46.085589 L 427.233293 -0.196554 L 416.044203 -0.196554 C 401.803544 1.837826 348.909666 2.855016 256.853974 2.855016 C 166.324068 2.855016 113.938785 1.837826 100.20672 -0.196554 L 88.000441 -0.196554 L 88.000441 46.085589 L 113.938785 46.085589 C 128.688039 46.085589 141.402914 46.085589 152.083408 46.085589 C 162.763903 46.085589 170.901422 46.085589 177.004562 47.102779 C 183.107702 47.611374 188.193652 48.628564 192.771007 50.154349 C 197.856956 51.171539 200.399931 52.188729 200.908526 52.188729 C 201.417121 52.188729 203.451501 53.714514 207.011666 56.766084 C 210.571831 60.326249 212.097616 61.852034 213.114806 60.834844 Z M 213.114806 578.07594 " transform="matrix(0.00768047, 0, 0, -0.00768047, 42.093646, 135.06099)"/>
<path fill-rule="nonzero" fill="rgb(0%, 0%, 0%)" fill-opacity="1" stroke-width="15.624038" stroke-linecap="butt" stroke-linejoin="miter" stroke="rgb(0%, 0%, 0%)" stroke-opacity="0.023" stroke-miterlimit="4" d="M 212.857701 578.170101 L 200.142826 573.084151 C 190.479522 569.523986 177.256052 566.472417 159.963823 562.912252 C 142.671594 559.860682 123.344984 557.317707 101.983995 555.791922 L 83.165981 555.791922 L 83.165981 602.074065 L 101.983995 602.074065 C 133.516884 603.091255 162.506798 608.177205 188.953737 616.82332 C 215.909271 625.469434 234.21869 633.606954 244.899185 641.235879 C 255.579679 648.356209 265.242984 655.476538 272.871909 663.105463 C 274.397694 665.139843 278.466453 666.157033 285.078188 666.157033 C 291.181328 666.157033 296.775873 664.122653 301.861823 660.053893 L 301.861823 361.000044 L 302.879013 60.929005 C 307.456367 56.35165 311.525127 53.300081 315.085292 51.774296 C 318.136862 50.757106 326.274382 49.231321 338.989256 48.214131 C 351.704131 46.688346 372.556525 46.179751 401.037844 46.179751 L 426.976188 46.179751 L 426.976188 -0.102392 L 415.787098 -0.102392 C 402.055034 1.931988 349.161156 2.949177 257.105464 2.949177 C 166.575558 2.949177 114.190275 1.931988 99.949615 -0.102392 L 88.251931 -0.102392 L 88.251931 46.179751 L 114.190275 46.179751 C 128.430934 46.179751 141.145809 46.179751 151.826303 46.179751 C 162.506798 46.179751 171.152912 46.179751 176.747457 47.196941 C 182.850597 47.705536 188.445142 48.722726 193.022497 50.248511 C 197.599851 51.265701 200.142826 51.774296 201.160016 51.774296 C 201.668611 51.774296 203.702991 53.808676 206.754561 56.860245 C 210.314726 60.42041 212.349106 61.4376 212.857701 60.929005 Z M 212.857701 578.170101 " transform="matrix(0.00768047, 0, 0, -0.00768047, 41.185465, 142.132026)"/>
<path fill-rule="nonzero" fill="rgb(0%, 0%, 0%)" fill-opacity="1" d="M 106.878906 120.53125 L 106.152344 119.804688 L 106.878906 119.074219 L 107.605469 119.804688 M 103.96875 117.621094 L 103.238281 116.890625 L 103.96875 116.164062 L 104.695312 116.890625 M 101.054688 114.707031 L 100.328125 113.980469 L 101.054688 113.253906 L 101.785156 113.980469 M 98.144531 111.796875 L 97.417969 111.070312 L 98.144531 110.339844 L 98.875 111.070312 M 95.234375 108.886719 L 94.507812 108.160156 L 95.234375 107.429688 L 95.960938 108.160156 M 92.324219 105.976562 L 91.59375 105.246094 L 92.324219 104.519531 L 93.050781 105.246094 M 89.414062 103.0625 L 88.683594 102.335938 L 89.414062 101.609375 L 90.140625 102.335938 M 86.5 100.152344 L 85.773438 99.425781 L 86.5 98.699219 L 87.230469 99.425781 M 83.589844 97.242188 L 82.863281 96.515625 L 83.589844 95.785156 L 84.316406 96.515625 "/>
<path fill-rule="nonzero" fill="rgb(100%, 100%, 100%)" fill-opacity="1" d="M 88.203125 102.15625 L 101.066406 102.15625 L 101.066406 112.960938 L 88.203125 112.960938 Z M 88.203125 102.15625 "/>
<path fill-rule="nonzero" fill="rgb(98.429871%, 98.429871%, 98.429871%)" fill-opacity="1" d="M 88.203125 102.15625 L 101.066406 102.15625 L 101.066406 112.449219 L 88.203125 112.449219 Z M 88.203125 102.15625 "/>
<path fill-rule="nonzero" fill="rgb(0%, 0%, 0%)" fill-opacity="1" stroke-width="11.047199" stroke-linecap="butt" stroke-linejoin="miter" stroke="rgb(0%, 0%, 0%)" stroke-opacity="0.0326" stroke-miterlimit="4" d="M 207.965468 73.95232 C 207.965468 58.129509 223.42867 48.779666 253.995463 45.902791 C 265.862571 45.902791 271.97593 42.306698 271.97593 35.114511 C 271.97593 34.395292 271.256711 30.07998 270.177883 22.168575 C 268.020227 12.818732 265.862571 6.705373 264.064525 3.828499 C 261.906869 1.311233 257.591557 -0.127204 251.118589 -0.127204 C 249.680151 -0.127204 245.724448 -0.127204 238.891871 -0.127204 C 232.418903 -0.127204 220.911404 0.232405 205.088593 0.951624 C 188.906173 1.670843 167.689222 2.030452 141.078131 2.030452 C 93.609699 2.030452 63.402514 1.311233 50.096969 -0.127204 L 41.825954 -0.127204 C 37.510642 4.547717 34.993376 8.50342 34.993376 11.020685 C 36.431814 29.001152 40.747126 40.508651 47.939313 45.902791 L 61.964077 45.902791 C 108.713291 48.060447 142.516568 64.602477 164.093129 95.888489 C 168.048831 99.844192 228.4632 201.613635 344.976626 400.837208 C 461.490051 600.42039 520.825592 701.470614 522.983248 703.98788 C 527.65817 711.899285 535.569575 715.854988 547.077074 715.854988 L 571.890118 715.854988 C 575.845821 710.101239 578.003477 706.505145 578.003477 706.145536 L 606.053005 382.856741 C 624.752691 167.810357 634.821752 58.848727 635.90058 57.050681 C 639.496674 49.498885 661.073234 45.902791 700.98987 45.902791 C 717.5319 45.902791 726.162524 42.666307 726.162524 35.83373 C 726.162524 34.754902 725.083696 30.07998 722.92604 22.168575 C 721.127993 12.099513 719.329947 5.986155 717.891509 3.828499 C 716.812681 2.030452 712.13776 0.592015 703.866745 -0.127204 C 702.068698 -0.127204 697.393777 -0.127204 689.841981 -0.127204 C 682.649794 -0.127204 669.703858 0.232405 651.004172 0.951624 C 632.304487 1.670843 607.851052 2.030452 578.003477 2.030452 C 515.431452 2.030452 474.435987 1.311233 455.017083 -0.127204 L 443.149975 -0.127204 C 438.834663 3.828499 437.036616 7.064983 437.036616 8.863029 C 437.036616 11.020685 437.755835 17.134044 438.834663 26.843496 C 441.711538 35.83373 443.509584 40.86826 444.948022 43.025916 L 448.903724 45.902791 L 469.041847 45.902791 C 505.002781 48.060447 526.219732 53.814197 533.05231 63.164039 L 520.825592 213.121133 L 283.12382 213.121133 L 248.960933 154.864421 C 221.630623 108.834425 207.965468 81.863725 207.965468 73.95232 Z M 516.150671 259.870347 C 516.150671 267.422143 511.835359 319.205888 503.923953 415.9408 C 496.012548 512.675712 491.337626 561.222973 489.899189 561.942191 L 462.928489 519.14868 C 452.499818 501.168213 431.282867 465.207279 399.996855 411.985097 L 310.09452 259.870347 L 412.942791 259.151129 C 481.628174 259.151129 516.150671 259.510738 516.150671 259.870347 Z M 516.150671 259.870347 " transform="matrix(0.0108625, 0, 0, -0.0108625, 88.201916, 110.447837)"/>
<path fill-rule="nonzero" fill="rgb(0%, 0%, 0%)" fill-opacity="1" stroke-width="15.625457" stroke-linecap="butt" stroke-linejoin="miter" stroke="rgb(0%, 0%, 0%)" stroke-opacity="0.023" stroke-miterlimit="4" d="M 108.822345 429.173238 C 91.019904 429.173238 76.777951 434.768291 66.096487 446.975679 C 55.415022 459.183067 49.819969 473.42502 49.819969 491.227461 C 49.819969 538.53109 67.62241 579.222383 103.227292 613.809983 C 138.323533 648.906224 182.575314 666.200023 234.965355 666.200023 C 295.493654 666.200023 346.357771 647.3803 387.049064 610.249495 C 427.740358 572.610048 448.086005 524.289137 449.103287 464.77812 C 449.103287 436.294215 442.490952 408.827592 428.75764 382.886892 C 415.53297 356.946192 399.765094 334.565981 380.94537 315.237616 C 362.125647 295.909252 335.676306 270.985835 301.088707 240.976006 C 277.182572 220.121718 243.612255 189.603248 200.886396 148.911954 L 141.884021 92.961426 L 218.180196 91.944143 C 322.451636 91.944143 378.402164 93.470067 385.0145 97.030555 C 389.59227 98.556478 397.730529 128.057666 408.920635 186.04276 L 408.920635 189.094607 L 449.103287 189.094607 L 449.103287 186.04276 C 448.086005 184.008195 444.016875 153.489725 435.878617 94.99599 C 428.248999 36.502256 423.162587 5.475144 421.128023 2.931939 L 421.128023 -0.119908 L 49.819969 -0.119908 L 49.819969 30.907203 C 49.819969 35.484973 51.854534 40.571385 55.923663 46.166438 C 59.992793 51.25285 70.165616 62.951597 85.933492 80.754037 C 105.261857 102.116967 122.047015 120.93669 135.780327 137.213207 C 141.884021 143.825542 153.582768 156.032931 169.859285 173.835371 C 186.644444 192.146454 197.834549 204.353842 203.938243 210.966177 C 210.041937 217.578512 219.70612 228.768618 232.93079 244.027853 C 246.15546 259.287088 255.819643 270.477194 260.906054 278.106811 C 266.501107 285.227788 274.130725 295.400611 283.794907 308.11664 C 293.96773 320.832669 301.088707 331.514134 305.157836 340.161034 C 309.226965 348.807934 313.804736 358.472116 319.90843 369.15358 C 326.012124 379.835045 330.081253 390.51651 333.1331 401.197974 C 335.676306 411.879439 338.219512 421.543621 340.254077 431.207803 C 341.78 440.363344 342.797283 451.55345 342.797283 463.760838 C 342.797283 505.978055 331.607177 542.091578 309.226965 573.118689 C 286.338113 603.637159 253.785078 618.896395 212.076502 618.896395 C 190.204932 618.896395 170.876567 613.301342 154.091409 602.111236 C 137.30625 590.412489 125.607503 579.731024 118.995168 569.04956 C 112.382833 558.368095 108.822345 551.75576 108.822345 550.229837 C 108.822345 549.212554 110.856909 549.212554 113.908756 549.212554 C 126.116145 549.212554 138.323533 544.126143 151.039562 534.970602 C 163.755591 525.815061 169.859285 510.555825 169.859285 489.192896 C 169.859285 472.407738 164.772873 458.165785 154.091409 446.975679 C 143.409944 435.785574 128.150709 429.68188 108.822345 429.173238 Z M 108.822345 429.173238 " transform="matrix(0.00767978, 0, 0, -0.00767978, 96.707238, 112.077204)"/>
</svg>
